<svg width="139" height="204" viewBox="0 0 139 204" fill="none" xmlns="http://www.w3.org/2000/svg">
<path d="M138.439 198.996C131.911 197.938 125.476 196.595 119.165 194.685C118.463 192.753 117.679 190.857 117.02 188.913C116.293 186.773 115.652 184.61 115.183 182.402C115.172 182.359 115.16 182.316 115.149 182.274C115.789 181.4 116.335 180.46 116.878 179.506C117.451 178.498 117.992 177.484 118.494 176.434C119.507 174.377 120.38 172.251 121.119 170.085C121.861 167.933 122.467 165.726 122.928 163.497C123.17 162.395 123.425 161.228 123.123 160.103C122.891 159.235 122.271 158.409 121.372 158.147C119.376 157.568 117.929 159.725 117.071 161.161C115.971 163.011 115.161 165.029 114.615 167.113C113.489 171.382 113.451 175.878 114.14 180.225C114.211 180.663 114.301 181.112 114.387 181.547C114.37 181.597 114.338 181.652 114.325 181.716C114.276 181.821 114.374 181.901 114.453 181.911C114.473 181.982 114.492 182.053 114.5 182.142C114.487 182.207 114.502 182.264 114.542 182.299C115.351 186.232 116.651 190.11 118.26 193.768C118.371 194.013 118.483 194.258 118.595 194.503C117.457 194.151 116.33 193.782 115.2 193.398C112.783 192.566 110.404 191.647 108.049 190.645C107.976 190.543 107.849 190.47 107.684 190.484C107.062 190.223 106.454 189.959 105.828 189.684C105.813 189.627 105.794 189.556 105.732 189.496C105.475 189.168 105.233 188.837 104.99 188.505C104.979 188.462 104.982 188.416 104.985 188.369C105.07 188.285 105.114 188.166 105.048 188.032C105.029 187.961 104.981 187.897 104.948 187.83C104.809 185.594 104.576 183.352 104.333 181.128C103.984 178.048 103.526 174.967 102.954 171.916C101.819 165.903 100.214 159.971 97.8691 154.313C96.5509 151.111 94.9865 148.021 93.1979 145.067C93.0281 144.777 92.5309 144.925 92.4965 145.255C91.7979 151.408 92.0497 157.673 93.2043 163.756C94.3626 169.854 96.417 175.804 99.2873 181.305C100.676 183.97 102.293 186.512 104.077 188.933C100.505 187.281 97.0051 185.442 93.6179 183.45C89.2299 180.872 84.9994 178.024 80.9627 174.925C80.9932 174.81 80.9265 174.675 80.7786 174.638C80.6994 174.629 80.6345 174.616 80.5515 174.592C80.2242 174.344 79.9113 174.093 79.5983 173.841C78.031 171.026 76.8674 168.057 76.1895 164.898C78.8416 162.829 80.9222 160.059 82.189 156.943C82.8572 155.314 83.3012 153.593 83.4933 151.848C83.6472 150.418 83.805 148.545 82.7698 147.373C81.541 145.993 79.5676 146.644 78.3365 147.661C77.0558 148.721 76.2235 150.195 75.7194 151.749C75.1704 153.422 74.964 155.171 74.8797 156.918C74.7878 158.865 74.8934 160.805 75.1641 162.731C75.2318 163.155 75.3032 163.594 75.389 164.029C75.3652 164.111 75.3451 164.208 75.3213 164.291C75.3003 164.327 75.2792 164.363 75.2544 164.385C75.1876 164.479 75.2286 164.575 75.305 164.631C75.0072 164.894 75.3163 165.36 75.6636 165.283C76.2729 167.957 77.2191 170.572 78.525 172.984C74.4129 169.661 70.5232 166.08 66.8634 162.27C65.3231 158.182 64.4765 153.877 64.5306 149.499C64.5355 148.887 64.5728 148.282 64.6063 147.663C64.635 147.655 64.6855 147.672 64.7285 147.66C68.7077 146.823 72.295 144.351 74.7898 141.181C76.0372 139.595 77.0194 137.821 77.6581 135.911C78.2386 134.184 78.8611 131.927 77.8967 130.217C76.7586 128.203 74.1364 128.722 72.433 129.636C70.5692 130.639 69.1281 132.246 68.0238 134.022C66.8392 135.957 65.9667 138.082 65.3175 140.24C64.9757 141.369 64.6988 142.511 64.4725 143.67C64.3323 142.747 64.1455 141.82 63.8832 140.899C63.579 139.821 63.1708 138.755 62.6986 137.737C62.2598 136.787 61.7657 135.744 60.9891 135.022C60.2926 134.369 59.202 134.021 58.326 134.53C57.4461 135.025 57.1244 136.057 57.1643 137.008C57.1947 138.037 57.5418 139.104 57.9195 140.056C58.2858 140.964 58.7484 141.832 59.2893 142.648C59.9113 143.596 60.6507 144.466 61.4502 145.274C61.848 145.671 62.2564 146.049 62.6752 146.41C63.0902 146.757 63.5024 147.15 63.9947 147.384C63.6437 152.086 64.2746 156.845 65.9495 161.264C65.9609 161.306 65.9762 161.363 66.0019 161.402C63.2362 158.466 60.6298 155.381 58.1799 152.192C56.9731 150.608 55.8054 148.999 54.6768 147.363C54.6692 147.335 54.6797 147.317 54.6721 147.288C54.1829 144.947 53.9124 142.563 53.9042 140.185C53.8929 138.998 53.9532 137.792 54.0498 136.607C54.1091 136.026 54.1721 135.46 54.2457 134.876C54.2686 134.732 54.2772 134.593 54.3002 134.449C54.3994 134.362 54.451 134.21 54.3766 134.047C54.3766 134.047 54.3728 134.033 54.3689 134.019C54.4148 133.732 54.4282 133.438 54.4025 133.171C55.9961 132.591 57.5001 131.791 58.9421 130.932C60.5014 129.995 62.0092 128.981 63.4617 127.875C66.3095 125.677 68.9044 123.166 71.1864 120.404C72.4806 118.821 73.6803 117.172 74.7636 115.432C74.9564 115.121 74.7055 114.7 74.3162 114.85C70.6728 116.254 67.1934 118.041 63.9315 120.181C62.2987 121.244 60.725 122.413 59.2171 123.657C57.7589 124.856 56.3092 126.145 55.2231 127.702C54.9873 128.025 54.7879 128.368 54.5922 128.726C55.1633 125.704 55.972 122.71 56.9544 119.792C57.8852 117.025 58.9859 114.32 60.1915 111.662C60.3022 111.617 60.3795 111.505 60.3662 111.341C60.3662 111.341 60.3586 111.312 60.3547 111.298C60.4798 111.02 60.6048 110.743 60.7404 110.447C62.1804 109.695 63.6538 109.01 65.1683 108.421C67.0291 107.694 68.9166 107.066 70.7927 106.396C74.2233 105.171 77.6559 103.84 80.6343 101.729C82.1555 100.65 83.5155 99.3704 84.6207 97.8842C84.7276 97.825 84.8202 97.7697 84.9233 97.6963C85.1046 97.5715 85.0473 97.3579 84.9128 97.2566C84.867 97.0858 84.7068 96.9457 84.4987 96.9709C78.7047 97.5622 73.1374 100.03 68.7846 103.882C67.5439 104.977 66.4091 106.182 65.3908 107.477C65.3593 107.531 65.3278 107.585 65.3249 107.632C63.8715 108.22 62.4372 108.879 61.0983 109.665C61.6062 108.582 62.1464 107.507 62.6905 106.446C63.2136 105.421 63.7405 104.41 64.2855 103.409C64.3456 103.347 64.3876 103.275 64.3972 103.196C66.1363 99.9534 67.9661 96.7624 69.8102 93.5677C72.2594 89.3105 74.7086 85.0534 76.9298 80.6896C77.2123 80.1409 77.4806 79.596 77.7593 79.0331C77.9302 78.6974 77.5561 78.4467 77.2555 78.5272C73.47 79.5721 70.0402 81.7727 67.4919 84.7442C64.7566 87.9337 63.1233 91.9722 62.8468 96.1506C62.6861 98.5281 62.9605 100.926 63.6462 103.199C63.3742 103.73 63.084 104.25 62.812 104.781C61.8909 106.553 60.9955 108.365 60.1469 110.179C60.1011 110.008 60.0592 109.851 60.0134 109.681C60.1138 108.738 60.1454 107.769 60.1341 106.81C60.12 105.441 59.9981 104.07 59.7865 102.708C59.3642 100.044 58.5765 97.4474 57.4424 94.9896C56.7918 93.5924 56.0306 92.2401 55.1806 90.9573C55.0041 90.6994 54.5966 90.8391 54.5508 91.1261C53.6233 96.6538 54.3561 102.423 56.6168 107.539C57.2463 108.973 58.0009 110.357 58.8766 111.679C58.9834 111.849 59.1562 111.863 59.2917 111.797C59.2993 111.825 59.2926 111.857 59.2859 111.89C59.2869 111.95 59.284 111.997 59.2992 112.054C58.4105 114.062 57.5905 116.097 56.8573 118.17C55.7833 121.205 54.8973 124.311 54.2527 127.459C54.3823 122.846 53.9871 118.222 53.0975 113.7C52.7381 111.844 52.289 109.996 51.7683 108.167C51.6653 107.783 51.1214 107.928 51.0545 108.251C49.6469 115.022 49.8861 122.098 51.7143 128.749C52.1529 130.386 52.7204 131.989 53.3413 133.562C53.1511 135.657 53.0906 137.779 53.1809 139.891C53.1857 139.966 53.1799 140.059 53.1704 140.138C53.1748 142.044 53.3301 143.94 53.6322 145.812C46.1111 134.462 40.6256 121.833 37.623 108.509C35.9791 101.229 35.0519 93.8179 34.7927 86.3806C34.8538 86.1506 34.8968 85.9102 34.9722 85.6764C35.3483 84.4465 35.923 83.2702 36.5959 82.1745C38.0324 79.806 39.8935 77.7053 41.6391 75.5744C42.4255 74.6161 43.2119 73.6577 44.0127 72.6955C47.8291 69.7047 51.9708 67.0691 56.2919 64.8738C63.124 65.1792 70.0146 63.6991 76.1106 60.5704C77.8255 59.6989 79.4736 58.6927 81.0301 57.5738C81.3536 57.3498 81.1304 56.8603 80.7573 56.8993C75.322 57.4554 69.9687 58.661 64.8223 60.4672C61.9204 61.4889 59.0719 62.7099 56.3302 64.1006C56.3302 64.1006 56.3302 64.1006 56.3159 64.1044C56.147 64.1039 56.0296 64.1811 55.9523 64.2934C53.9845 65.3089 52.0682 66.4022 50.2111 67.6016C48.4819 68.7058 46.83 69.9266 45.24 71.2071C47.9382 67.936 50.6325 64.6508 53.3306 61.3798C55.5314 58.715 57.7361 56.0644 59.937 53.3997C60.1699 53.1236 59.8474 52.7218 59.5296 52.8527C56.1572 54.1225 53.0796 56.0915 50.4951 58.5845C47.8964 61.0812 45.7871 64.0877 44.3361 67.3754C43.5276 69.2247 42.9289 71.1702 42.5717 73.1579C42.5555 73.2691 42.5784 73.3545 42.6404 73.4142C42.2949 73.8424 41.9351 74.2745 41.5896 74.7027C39.7982 76.8916 37.9199 79.0428 36.4338 81.455C35.8134 82.4604 35.2197 83.5655 34.792 84.7176C34.6093 75.9628 35.3713 67.1837 37.056 58.5846C37.7149 55.2039 38.5323 51.8418 39.469 48.524C40.9188 46.0909 42.5318 43.7515 44.3776 41.5938C46.2731 39.3923 48.3908 37.3906 50.6812 35.6326C50.7843 35.5592 50.9017 35.4819 51.0009 35.3943C51.0515 35.4113 51.1059 35.4425 51.167 35.4414C58.6413 35.6816 66.2199 33.8492 72.8132 30.3432C74.6808 29.3545 76.4777 28.2169 78.1793 26.9523C78.4103 26.7836 78.3454 26.3127 78.0077 26.3117C71.5105 26.0538 65.0178 27.2443 59.0611 29.8626C53.5435 32.287 48.5943 35.9171 44.6221 40.445C42.825 42.4981 41.1853 44.7379 39.8642 47.1364C42.1595 39.4418 45.1913 31.9769 48.9511 24.8816C49.1086 24.8394 49.2107 24.7053 49.1716 24.5021C49.1716 24.5021 49.1678 24.4879 49.164 24.4737C49.2442 24.3149 49.3282 24.1703 49.4084 24.0115C50.8857 22.8833 52.797 22.4016 54.6091 22.0076C56.2171 21.6531 57.8221 21.3451 59.4491 21.0617C59.5579 21.1241 59.68 21.1219 59.7897 21.0162C59.7897 21.0162 59.7897 21.0162 59.8041 21.0123C60.6533 20.8611 61.5064 20.724 62.3452 20.5908C67.4962 19.7752 72.6958 19.0838 77.7152 17.6626C80.5379 16.8604 83.2633 15.8098 85.8504 14.4147C86.1606 14.2553 86.1005 13.8594 85.7723 13.7795C82.2008 12.8751 78.4508 12.7355 74.8008 13.2558C71.1547 13.7903 67.6268 14.995 64.4279 16.7981C62.6043 17.836 60.9275 19.0787 59.3499 20.4627C57.8556 20.7258 56.3689 21.0173 54.8793 21.3554C53.2323 21.7357 51.4097 22.1478 49.9286 23.0329C51.1169 20.8835 52.3778 18.7758 53.693 16.6992C53.8009 16.7008 53.9154 16.6702 53.9965 16.5721C54.1129 16.4341 54.2189 16.3142 54.3391 16.1904C59.2842 13.9194 64.7578 13.0478 69.6466 10.6241C71.0408 9.93006 72.3721 9.11562 73.5822 8.13528C73.795 7.95619 73.7522 7.50994 73.4144 7.5089C67.5498 7.26462 61.661 9.16293 57.0163 12.7267C56.4695 13.1479 55.9302 13.5975 55.4273 14.0679C55.7928 13.5428 56.1403 13.0072 56.5058 12.482C57.7046 10.7723 58.9578 9.09387 60.251 7.45043C60.3884 7.27628 60.1156 7.0595 59.9781 7.23364C57.7429 9.99918 55.6565 12.8622 53.7151 15.8083C53.6197 15.9102 53.5243 16.0121 53.4288 16.1139C53.3582 16.1939 53.3343 16.2766 53.3391 16.3516C52.0964 18.2409 50.9262 20.1718 49.7961 22.1377C49.9469 21.67 50.094 21.1882 50.2267 20.7101C50.6697 19.1572 51.0116 17.5703 51.2599 15.978C51.7576 12.8541 51.8803 9.64759 51.648 6.49043C51.5118 4.66545 51.2574 2.85692 50.8741 1.08291C50.8016 0.812427 50.4008 0.690933 50.2834 0.997037C48.0276 6.83491 47.0867 13.1139 47.6181 19.334C47.7628 21.0194 48.0221 22.674 48.3749 24.3342C48.2584 24.4722 48.142 24.6102 48.0437 24.7586C47.9454 24.907 48.0446 25.0482 48.1639 25.0926C44.0957 32.6977 40.8787 40.7309 38.5357 49.0487C38.5424 48.5586 38.5454 48.0543 38.534 47.5539C38.5188 46.8103 38.4751 46.0744 38.3989 45.3319C38.3912 45.3034 38.3979 45.2711 38.4046 45.2388C38.4008 45.2246 38.397 45.2103 38.3932 45.1961C38.2646 43.8574 38.0749 42.5197 37.7955 41.1909C36.9117 37.0334 35.294 33.0574 32.9854 29.48C31.6747 27.451 30.1578 25.5688 28.4605 23.8722C28.2525 23.6686 27.8393 23.9014 27.9013 24.1899C29.2039 29.6236 31.369 34.8414 34.3034 39.609C35.0961 40.9071 35.9709 42.168 36.8849 43.4031C37.1605 44.0311 37.4114 44.681 37.7939 45.2499C37.8415 45.7711 37.8892 46.2924 37.9225 46.8175C38.0081 48.3966 37.9897 49.9884 37.8778 51.5747C37.8033 51.8693 37.725 52.1496 37.6505 52.4442C35.2204 62.0975 33.9735 72.0441 33.927 82.0046C33.8479 81.0798 33.7546 80.1589 33.6612 79.2379C33.3144 76.1114 32.8312 72.991 32.2191 69.9051C31.9655 68.6151 31.7014 67.3431 31.4048 66.0647C32.8471 63.6031 33.7159 60.7765 34.2259 57.985C34.7665 55.0785 34.8996 52.0828 34.6024 49.1414C34.4366 47.4922 34.1382 45.8632 33.6681 44.2803C33.607 44.0526 33.2043 44.0384 33.1289 44.2722C31.8124 48.3479 31.8918 52.7667 33.352 56.7849C33.4197 56.9804 33.6144 57.0198 33.7642 56.9491C33.5292 58.4768 33.1826 59.9887 32.7205 61.4704C32.3061 62.7868 31.7868 64.0551 31.2532 65.3271C30.9023 63.7886 30.5228 62.2577 30.129 60.7306C29.7389 59.2178 29.3203 57.7126 28.916 56.2036C28.5812 55.0117 28.2427 53.8055 27.7935 52.6442C26.8835 50.2789 25.4669 47.9121 22.9833 46.945C22.7953 46.8733 22.5023 46.9823 22.5023 47.2112C22.3738 51.1974 23.9084 55.1499 26.6733 58.0252C27.4584 58.8371 28.3104 59.5548 29.2579 60.1706C29.2579 60.1706 29.2722 60.1668 29.2903 60.1772C29.2903 60.1772 29.2979 60.2056 29.3018 60.2199C30.8418 66.1392 32.0994 72.1495 32.9267 78.2141C33.1544 79.923 33.3574 81.6537 33.5098 83.3676C33.6621 85.0814 33.6857 86.8297 33.9135 88.5386C33.9402 88.6383 34.0127 88.6799 34.1024 88.6711C34.3335 93.3696 34.8413 98.0703 35.6249 102.712C36.3284 106.827 37.2466 110.883 38.3795 114.882C38.2021 114.564 38.0352 114.227 37.8577 113.908C36.9334 112.234 35.9518 110.574 34.9206 108.958C32.88 105.752 30.6687 102.652 28.3047 99.6692C26.9891 98.0229 25.6134 96.4385 24.2128 94.8761C24.272 94.7534 24.252 94.6214 24.1175 94.5202C23.9648 94.4085 23.8017 94.3149 23.6423 94.2355C23.6232 94.1644 23.5574 94.0904 23.4668 94.0384C23.339 93.9049 23.2111 93.7713 23.0976 93.6339C22.7018 92.443 22.2917 91.256 21.9817 90.0421C21.7796 89.2876 21.6242 88.5358 21.4649 87.7698C24.3001 86.8423 26.7079 84.7782 28.0538 82.1289C29.5734 79.0973 29.5692 75.3603 28.1241 72.3145C27.4965 71.0026 26.4748 69.537 24.8431 69.5165C23.2152 69.5102 21.9754 70.8952 21.2882 72.2237C20.4644 73.7871 20.1435 75.5667 20.0411 77.303C19.9263 79.1647 19.9842 81.0412 20.1279 82.8946C20.2584 84.3549 20.4605 85.7961 20.7379 87.2323C20.5499 87.3894 20.6376 87.7169 20.8552 87.8417C20.9486 88.3049 21.0564 88.7643 21.1641 89.2236C21.433 90.3417 21.7344 91.4663 22.1073 92.5718C21.6398 92.0867 21.1685 91.5874 20.6867 91.1062C18.0144 88.4045 15.1684 85.8561 12.1993 83.4781C10.6966 82.2786 9.15861 81.1192 7.5853 79.9997C6.06256 78.8972 4.51119 77.8024 2.86533 76.8702C2.62966 76.735 2.39781 76.614 2.16596 76.493C2.16596 76.493 2.14401 76.4684 2.12588 76.458C2.20988 76.3134 2.1956 76.0884 2.00763 76.0167C1.00196 75.5843 0.0619042 76.5991 0.0121238 77.5584C-0.0453239 78.7181 0.715943 79.8416 1.27686 80.7898C2.38057 82.676 3.71235 84.44 5.23883 86.0145C8.25934 89.1569 11.9737 91.6252 16.0584 93.1855C17.2225 93.6365 18.4209 93.9867 19.6365 94.2866C20.2243 94.419 20.8121 94.5514 21.4065 94.6515C21.9037 94.7319 22.4409 94.8474 22.9686 94.8128C23.0506 95.0044 23.1469 95.1922 23.2289 95.3838C23.3215 95.5574 23.5257 95.5179 23.5954 95.3772C27.2083 99.4137 30.5235 103.713 33.476 108.262C34.6322 110.058 35.7455 111.865 36.7948 113.72C36.8062 113.763 36.8501 113.812 36.8616 113.855C36.7337 113.721 36.6097 113.602 36.4675 113.472C35.2091 112.268 33.8801 111.144 32.47 110.119C29.6783 108.059 26.6222 106.33 23.4144 105.008C20.1741 103.679 16.3985 102.356 12.8544 103.214C12.049 103.415 11.1873 103.691 10.5927 104.278C10.0831 104.781 9.90069 105.531 10.2985 106.157C10.6744 106.758 11.4329 107.013 12.0856 107.158C13.0483 107.373 14.0245 107.524 15.0044 107.688C19.6303 108.463 24.2983 108.936 28.9691 109.134C29.1561 109.145 29.284 109.05 29.3575 108.923C30.0578 109.361 30.7476 109.817 31.427 110.291C32.9344 111.337 34.3751 112.477 35.7347 113.714C36.4998 114.394 37.2154 115.118 37.9309 115.842C38.053 116.068 38.1713 116.281 38.2934 116.508C38.7007 117.283 39.087 118.095 39.5621 118.838C42.6378 128.313 46.9647 137.361 52.4166 145.741C52.3622 145.71 52.3116 145.693 52.2572 145.662C51.3977 144.458 50.5238 143.258 49.6251 142.08C48.4069 140.453 47.16 138.834 45.8778 137.255C43.3754 134.157 40.706 131.18 37.7961 128.45C35.0465 125.861 32.0812 123.497 28.842 121.542C25.5589 119.538 21.9628 117.74 18.1298 117.119C16.2854 116.82 14.3807 116.812 12.5591 117.285C11.0704 117.683 9.6724 118.363 8.43654 119.305C5.94668 121.177 4.16468 123.974 3.56874 127.017C2.95656 130.172 3.79379 133.64 5.93368 136.072C7.07852 137.368 8.54117 138.303 10.2052 138.788C12.0535 139.33 13.9915 139.406 15.9123 139.303C23.0642 138.913 30.0829 136.193 35.6658 131.722C36.3615 131.169 37.0315 130.578 37.6757 129.947C37.7854 129.842 37.8017 129.73 37.7816 129.599C42.7094 134.305 46.9146 139.693 51.0483 145.101C49.058 144.2 47.0152 143.389 44.9523 142.676C41.8885 141.605 38.7512 140.66 35.5337 140.103C29.819 139.102 23.2788 139.542 18.6903 143.487C16.669 145.219 15.1494 147.564 14.5431 150.168C13.9778 152.638 14.3877 155.199 15.6936 157.382C16.9557 159.515 19.0862 161.111 21.5718 161.513C24.2665 161.95 27.0729 161.031 29.2364 159.429C34.1283 155.814 35.5178 149.491 36.9987 143.968C37.2059 143.195 37.4274 142.419 37.667 141.652C37.6804 141.588 37.6938 141.523 37.6928 141.462C39.4743 141.87 41.2213 142.378 42.9474 142.923C45.8471 143.84 48.7134 144.918 51.5062 146.122C51.6798 146.198 51.8535 146.274 52.0272 146.349C52.3095 146.716 52.6062 147.079 52.8991 147.428C52.9649 147.502 53.0336 147.529 53.0947 147.528C53.3905 147.83 53.6681 148.122 53.9495 148.428C54.5344 149.064 55.0839 149.741 55.5943 150.444C55.7412 150.648 55.9186 150.967 56.1476 151.135C59.4331 155.61 63.0384 159.847 66.8985 163.832C65.7325 163.26 64.5208 162.745 63.3414 162.237C61.269 161.373 59.1518 160.629 56.9791 160.021C52.7493 158.835 48.3552 158.181 43.9496 158.401C42.8293 158.457 41.7062 158.559 40.6022 158.733C39.5554 158.891 38.5019 159.082 37.5686 159.607C36.7851 160.061 36.1313 160.77 35.8936 161.658C35.653 162.592 35.9992 163.598 36.646 164.294C37.3406 165.054 38.289 165.502 39.2603 165.806C40.1811 166.093 41.1333 166.326 42.0913 166.466C43.9501 166.762 45.8585 166.784 47.7346 166.572C51.5152 166.138 55.1901 164.681 58.2011 162.348C58.5704 162.066 58.9321 161.755 59.29 161.431C59.29 161.431 59.29 161.431 59.3148 161.409C60.4092 161.772 61.497 162.167 62.5885 162.576C63.702 163.01 64.8088 163.477 65.9051 163.961C66.6179 164.273 67.3201 164.604 68.0185 164.92C71.2929 168.208 74.7371 171.329 78.3683 174.231C71.5344 173.118 64.5649 172.758 57.6572 173.373C50.7496 173.988 43.898 175.671 37.6274 178.663C34.2139 180.295 30.9969 182.317 28.0661 184.719C27.7502 184.972 27.9448 185.469 28.3503 185.437C35.0099 184.812 41.6333 183.937 48.2309 182.795C54.8142 181.657 61.3537 180.24 67.8206 178.553C70.63 177.815 73.4174 177.053 76.1962 176.202C75.5138 176.69 74.8429 177.221 74.2045 177.758C72.6365 179.063 71.1963 180.502 69.8764 182.045C67.2508 185.129 65.1281 188.658 63.6665 192.422C62.8408 194.55 62.2068 196.764 61.8248 199.003C61.7722 199.322 62.129 199.623 62.443 199.478C65.8708 197.843 68.7854 195.322 71.1399 192.372C73.7379 189.128 75.667 185.392 77.2859 181.586C78.1737 179.517 78.9746 177.41 79.7431 175.297C82.4346 177.384 85.2072 179.372 88.0572 181.248C93.1721 184.592 98.5763 187.584 104.161 190.161C100.019 190.218 95.8495 191.091 91.9265 192.31C87.5245 193.688 83.319 195.685 79.4187 198.134C77.2123 199.518 75.1233 201.055 73.1335 202.732C72.9846 202.863 72.9779 203.125 73.1162 203.24C72.9444 203.286 72.9663 203.54 73.1562 203.504C73.4788 203.448 73.7975 203.378 74.12 203.322C78.5924 203.466 83.0553 203.003 87.3752 201.891C91.9709 200.721 96.3911 198.896 100.464 196.462C102.764 195.082 104.968 193.516 106.977 191.741C107.077 191.653 107.111 191.553 107.131 191.456C115.245 194.942 123.752 197.546 132.438 199.048C134.384 199.381 136.343 199.649 138.312 199.839C138.862 199.89 138.997 199.075 138.435 198.982L138.439 198.996ZM122.477 160.154C122.73 160.926 122.629 161.807 122.472 162.597C122.063 164.736 121.482 166.86 120.792 168.922C119.432 173.009 117.611 176.976 115.361 180.66C115.309 180.751 115.256 180.841 115.204 180.931C115.205 180.763 115.22 180.591 115.221 180.423C117.521 175.153 119.525 169.749 121.233 164.272C121.49 163.455 121.733 162.643 121.986 161.812C122.115 161.38 122.245 160.949 122.375 160.517C122.42 160.399 122.451 160.284 122.492 160.15L122.477 160.154ZM122.136 159.452C121.915 160.061 121.804 160.732 121.63 161.343C121.419 162.101 121.179 162.867 120.95 163.615C120.488 165.097 120.026 166.579 119.517 168.058C118.528 171.008 117.456 173.935 116.311 176.82C115.955 177.724 115.581 178.618 115.225 179.522C115.253 178.538 115.284 177.568 115.373 176.583C115.519 175.064 115.743 173.555 116.047 172.054C116.682 168.985 117.681 166.017 118.988 163.164C119.676 161.668 120.473 160.233 121.256 158.803C121.578 158.915 121.879 159.124 122.118 159.442L122.136 159.452ZM114.526 178.229C114.23 175.41 114.24 172.584 114.7 169.776C115.031 167.749 115.6 165.75 116.415 163.869C116.836 162.917 117.32 161.979 117.867 161.1C118.362 160.311 118.938 159.485 119.761 159.005C120.131 158.784 120.511 158.713 120.889 158.749C119.166 161.194 117.88 164.01 116.878 166.797C115.813 169.752 115.092 172.844 114.731 175.962C114.642 176.718 114.572 177.485 114.515 178.247L114.526 178.229ZM81.1324 147.217C81.1324 147.217 81.1181 147.221 81.1219 147.235C81.0579 147.511 81.0732 147.797 81.0702 148.073C81.0645 148.395 81.0444 148.72 81.0205 149.032C80.9755 149.609 80.9306 150.185 80.857 150.769C80.7099 151.938 80.4873 153.111 80.1961 154.257C79.5927 156.586 78.6791 158.845 77.4936 160.947C77.13 161.594 76.7405 162.202 76.3368 162.814C76.6012 162.026 76.8437 161.213 77.0719 160.404C77.4567 159.035 77.8234 157.655 78.1576 156.268C78.847 153.459 79.4028 150.61 79.8222 147.766C79.8346 147.641 79.7831 147.563 79.6925 147.511C80.1524 147.281 80.6391 147.151 81.1324 147.217ZM75.8497 153.896C76.1238 152.343 76.6098 150.778 77.5347 149.478C77.946 148.894 78.5607 148.211 79.2793 147.744C78.8704 150.569 78.3317 153.368 77.6633 156.141C77.3186 157.546 76.9415 158.944 76.5281 160.321C76.2922 161.101 76.0383 161.871 75.8025 162.652C75.3945 159.755 75.3406 156.749 75.8459 153.882L75.8497 153.896ZM76.0026 163.971C78.7771 160.298 80.5594 155.899 81.2796 151.373C81.3876 150.688 81.4736 149.979 81.5348 149.291C81.5654 148.947 81.5816 148.607 81.5979 148.267C81.6075 147.959 81.6562 147.626 81.5904 147.323C83.0321 147.837 83.0089 149.811 82.9133 151.058C82.7842 152.694 82.4175 154.303 81.8485 155.844C80.68 159.041 78.6547 161.903 76.0112 164.06C76.0036 164.032 75.9959 164.004 75.9883 163.975L76.0026 163.971ZM76.3605 129.637C76.3605 129.637 76.3929 129.643 76.4111 129.654C78.2602 130.486 77.7006 133.092 77.2461 134.602C76.7172 136.407 75.8705 138.114 74.7949 139.653C72.6225 142.768 69.4904 145.164 65.8947 146.402C65.6018 146.511 65.3012 146.591 65.0006 146.672C65.0216 146.636 65.0426 146.6 65.0779 146.56C69.7693 143.685 73.3255 138.979 75.208 133.867C75.4696 133.125 75.7131 132.373 75.9136 131.633C76.0835 131.008 76.3098 130.306 76.3605 129.637ZM75.8805 129.506C75.7201 130.052 75.6504 130.651 75.5262 131.218C75.361 131.919 75.1491 132.616 74.919 133.303C74.4722 134.613 73.9205 135.875 73.2676 137.103C71.9408 139.594 70.2009 141.861 68.1395 143.786C67.2825 144.596 66.3672 145.36 65.4186 146.056C66.6795 144.178 67.78 142.159 68.8739 140.172C70.1109 137.918 71.2793 135.637 72.4113 133.334C72.7387 132.667 73.0518 132.003 73.3649 131.34C73.6293 130.78 73.9405 130.224 74.1505 129.634C74.7088 129.484 75.3147 129.398 75.8662 129.51L75.8805 129.506ZM67.4756 136.442C68.328 134.642 69.4037 132.874 70.8992 131.527C71.6255 130.86 72.4577 130.301 73.368 129.92C73.4396 129.901 73.493 129.871 73.5608 129.838C73.3938 130.188 73.2486 130.562 73.0959 130.908C72.8353 131.481 72.5709 132.041 72.3065 132.6C71.7567 133.754 71.203 134.894 70.617 136.028C69.4486 138.309 68.2116 140.563 66.9383 142.796C66.2138 144.043 65.4636 145.251 64.7754 146.519C64.7754 146.519 64.7468 146.526 64.7363 146.545C65.0918 143.062 65.9903 139.602 67.4718 136.428L67.4756 136.442ZM60.4957 135.413C61.2676 136.061 61.7292 137.097 62.1671 137.987C62.6087 138.891 62.9788 139.814 63.2954 140.766C63.5072 141.442 63.6941 142.14 63.8485 142.831C63.5948 141.998 63.3087 141.16 62.973 140.365C62.5552 139.378 62.084 138.421 61.5488 137.511C61.0652 136.68 60.5262 135.756 59.8469 135.053C60.0816 135.128 60.3173 135.263 60.5139 135.424L60.4957 135.413ZM59.4719 134.971C59.7018 135.428 60.01 135.834 60.279 136.265C60.5919 136.746 60.8761 137.234 61.1604 137.722C61.6813 138.636 62.1344 139.582 62.5302 140.544C62.9337 141.535 63.2799 142.54 63.5402 143.569C63.6737 144.068 63.7824 144.588 63.873 145.097C63.8959 145.183 63.9044 145.272 63.913 145.361C63.8653 145.298 63.7995 145.224 63.7518 145.16C63.436 144.726 63.1488 144.284 62.8436 143.832C62.2397 142.895 61.675 141.933 61.1494 140.945C60.1573 139.074 59.3828 137.1 58.637 135.118C58.8899 134.974 59.1589 134.948 59.4395 134.964L59.4719 134.971ZM64.0884 146.703C63.888 146.528 63.659 146.36 63.4443 146.189C63.0694 145.877 62.7087 145.562 62.3586 145.229C61.7022 144.611 61.0954 143.95 60.5526 143.241C59.4488 141.812 58.5722 140.201 58.103 138.45C57.8627 137.553 57.6119 136.446 58.1521 135.599C58.2256 135.472 58.3211 135.371 58.406 135.287C58.9839 137.329 59.8519 139.309 60.8335 141.197C61.3333 142.147 61.858 143.074 62.4361 143.972C62.7271 144.428 63.0142 144.87 63.33 145.304C63.4988 145.533 63.6572 145.781 63.8261 146.01C63.8995 146.113 63.973 146.215 64.0464 146.317C64.0617 146.374 64.0769 146.431 64.0922 146.488C64.0826 146.567 64.0693 146.632 64.074 146.707L64.0884 146.703ZM79.9249 98.6237C81.0195 98.2999 82.1407 98.0757 83.2591 97.8981C83.1522 97.9573 83.031 98.0203 82.9241 98.0794C82.3181 98.3944 81.716 98.7235 81.11 99.0385C79.9305 99.675 78.729 100.287 77.5314 100.913C75.1609 102.143 72.8047 103.369 70.4381 104.614C69.4971 105.11 68.5667 105.588 67.6296 106.099C70.9671 102.58 75.2424 99.9852 79.9106 98.6275L79.9249 98.6237ZM66.9443 106.862C69.2776 105.779 71.544 104.562 73.8362 103.383C76.2105 102.167 78.5848 100.951 80.9629 99.7493C81.6118 99.4228 82.2608 99.0963 82.9097 98.7699C78.7171 103.219 72.3903 104.915 66.7534 107.066C66.8098 106.99 66.8842 106.924 66.9405 106.848L66.9443 106.862ZM70.0519 91.7788C68.2507 94.962 66.4458 98.131 64.6952 101.331C64.6895 100.967 64.6877 100.616 64.6964 100.248C64.9398 99.2669 65.2015 98.2966 65.5136 97.3433C66.0416 95.7065 66.6707 94.1037 67.4048 92.5491C68.8834 89.4217 70.7675 86.4909 72.9903 83.8507C73.6078 83.1207 74.2434 82.4011 74.9048 81.7204C75.2655 81.3491 75.6301 80.992 75.9985 80.6492C76.0481 80.6054 76.0978 80.5616 76.1474 80.5178C74.2087 84.3329 72.125 88.0649 70.0232 91.7864L70.0519 91.7788ZM76.2992 79.6531C76.136 79.7884 75.9805 79.9522 75.8211 80.1017C75.5062 80.4149 75.1874 80.714 74.8763 81.0415C74.2607 81.6641 73.6527 82.3153 73.0772 82.973C71.9052 84.3246 70.8277 85.7424 69.8589 87.2226C67.9386 90.1326 66.3817 93.3115 65.2762 96.6287C65.1559 96.9814 65.0394 97.3483 64.9229 97.7152C65.6815 92.1869 68.2693 86.9009 72.1593 82.868C73.1671 81.8198 74.2627 80.8702 75.428 80.0087C75.7171 79.8854 76.0244 79.7726 76.3174 79.6636L76.2992 79.6531ZM64.8153 90.7864C66.1785 87.1712 68.6782 84.0754 71.8637 81.8792C72.6138 81.3578 73.4154 80.9141 74.2285 80.5132C72.1909 82.1272 70.4024 84.0407 68.9192 86.1775C66.8987 89.1144 65.4448 92.4487 64.7228 95.9378C64.4325 97.3735 64.2576 98.8394 64.2192 100.299C64.1524 100.622 64.0894 100.96 64.0225 101.283C63.3036 97.7981 63.5552 94.0993 64.8077 90.7579L64.8153 90.7864ZM55.0285 93.1952C56.2109 97.8371 57.5365 102.441 58.7762 107.067C58.8144 107.21 58.8563 107.366 58.8945 107.509C58.553 106.807 58.179 106.098 57.87 105.403C56.8828 103.15 56.1026 100.811 55.498 98.4401C55.2653 97.5717 55.0756 96.6918 54.9002 95.8081C54.8975 94.9391 54.9415 94.0729 55.0323 93.2094L55.0285 93.1952ZM54.96 97.5773C55.7523 101.164 56.9636 104.654 58.4211 108.032C58.8236 108.962 59.2051 109.928 59.3071 110.938C56.7476 106.94 55.2598 102.303 54.9457 97.5811L54.96 97.5773ZM58.3703 103.835C57.6407 101.284 56.9398 98.7251 56.2103 96.1742C55.8603 94.9253 55.496 93.6802 55.1174 92.439C55.1231 92.3459 55.1432 92.249 55.1489 92.1559C57.7914 96.4066 59.2867 101.3 59.5187 106.289C59.5377 106.818 59.5386 107.336 59.5433 107.869C59.528 107.812 59.5089 107.741 59.4937 107.684C59.0893 106.404 58.746 105.122 58.3846 103.831L58.3703 103.835ZM59.5376 124.395C62.4255 122.003 65.5585 119.898 68.8661 118.157C70.3844 117.353 71.9542 116.628 73.5431 115.973C73.5431 115.973 73.5326 115.991 73.5221 116.009C72.9008 116.496 72.3416 117.043 71.7565 117.55C71.1362 118.098 70.4977 118.635 69.8736 119.169C68.6148 120.254 67.3522 121.324 66.0896 122.395C63.5644 124.536 60.981 126.632 58.4376 128.763C57.0825 129.889 55.6796 130.952 54.3464 132.102C54.6026 128.936 57.1642 126.358 59.5376 124.395ZM54.3272 132.489C55.6528 131.539 56.9049 130.486 58.1827 129.472C59.4854 128.437 60.7738 127.405 62.0583 126.359C64.6379 124.249 67.2099 122.11 69.7456 119.951C70.4442 119.351 71.1428 118.752 71.8414 118.153C71.9654 118.044 72.1038 117.93 72.2422 117.817C68.6879 122.645 64.2281 126.784 59.114 129.97C57.5518 130.954 55.9085 131.806 54.3129 132.722C54.3081 132.647 54.3177 132.568 54.3272 132.489ZM53.5296 131.802C51.437 126.168 50.6021 120.075 51.0373 114.085C51.1291 112.824 51.2858 111.577 51.4855 110.318C51.5495 115.824 52.1058 121.336 52.9198 126.778C53.1132 128.13 53.3105 129.496 53.5794 130.843C53.5593 131.169 53.5497 131.477 53.5296 131.802ZM53.6647 128.471C53.5865 128.064 53.5084 127.658 53.434 127.266C53.1966 125.865 52.9736 124.46 52.7792 123.047C52.4085 120.232 52.1236 117.394 51.9323 114.562C51.8523 113.347 51.7867 112.129 51.7392 110.921C53.1209 116.593 53.7688 122.446 53.6619 128.288C53.6628 128.349 53.6533 128.428 53.6542 128.489L53.6647 128.471ZM71.8809 59.1557C74.3476 58.571 76.8382 58.1325 79.3488 57.826C79.0892 58.0023 78.8115 58.1683 78.5481 58.3304C76.0241 59.1593 73.522 60.0128 70.975 60.7563C68.1418 61.5765 65.2858 62.3113 62.3992 62.9322C61.2245 63.1859 60.0384 63.3969 58.8494 63.6545C63.031 61.7406 67.3949 60.2203 71.8666 59.1595L71.8809 59.1557ZM61.9296 63.4699C63.38 63.1576 64.8267 62.831 66.2619 62.4617C69.1218 61.7412 71.9445 60.939 74.7405 60.0373C75.3913 59.8324 76.0526 59.6094 76.6996 59.3903C72.1743 61.854 67.1606 63.411 62.023 63.9331C60.9037 64.05 59.7797 64.0918 58.6661 64.1155C59.7558 63.9456 60.8408 63.7006 61.9296 63.4699ZM58.5237 54.0225C54.874 58.4944 51.21 62.9702 47.5461 67.4461L44.6542 70.9673C44.7315 70.8551 44.8193 70.7247 44.9109 70.6086C45.3433 69.9893 45.7795 69.3842 46.2157 68.779C47.1233 67.5288 48.031 66.2786 48.9787 65.0634C50.8523 62.6084 52.8021 60.2092 54.814 57.8697C55.8553 56.66 56.9328 55.471 58.0141 54.2963C58.1925 54.218 58.3672 54.1254 58.5456 54.0471L58.5237 54.0225ZM47.2461 63.6357C49.1846 60.736 51.6784 58.1911 54.5729 56.2254C55.2733 55.7478 55.9996 55.3091 56.7372 54.9131C53.0008 59.1184 49.4647 63.4989 46.1757 68.0574C45.6622 68.7748 45.1487 69.4921 44.6534 70.2199C44.3336 70.687 44.0101 71.1399 43.7085 71.6175C44.4227 68.7865 45.6274 66.0682 47.2461 63.6357ZM76.6917 26.9542C76.6917 26.9542 76.8281 26.9482 76.9073 26.9575C71.1661 30.9523 64.4719 33.5089 57.5174 34.3501C56.151 34.5179 54.7759 34.5964 53.4038 34.6284C59.3183 32.769 65.1985 30.7814 71.1016 28.8793C72.0062 28.5911 72.8966 28.3068 73.8012 28.0186C74.7202 27.7266 75.6649 27.4735 76.5504 27.1141C76.622 27.0949 76.664 27.0227 76.6917 26.9542ZM67.2811 27.9042C69.9062 27.3381 72.5962 27.0141 75.2833 26.9654C74.0675 27.3522 72.8709 27.8102 71.6589 28.2112C70.0539 28.7481 68.4488 29.2849 66.8256 29.8114C63.5973 30.8748 60.3795 31.9201 57.1512 32.9835C55.5175 33.528 53.8838 34.0726 52.2683 34.6275C52.1929 34.6325 52.1137 34.6232 52.0383 34.6281C56.6057 31.4055 61.7836 29.0873 67.2668 27.908L67.2811 27.9042ZM79.7178 13.5709C80.5843 13.5981 81.4297 13.6615 82.2865 13.7676C81.1959 13.8767 80.0956 14.0647 79.024 14.245C77.5259 14.4939 76.0248 14.7893 74.5496 15.1236C71.6133 15.7883 68.7124 16.6418 65.883 17.7051C64.4038 18.2541 62.9581 18.8703 61.5343 19.5112C66.6142 15.5104 73.2979 13.4296 79.7216 13.5851L79.7178 13.5709ZM83.0641 14.3221C82.7635 14.4026 82.463 14.4832 82.1624 14.5637C81.3894 14.7708 80.605 14.9352 79.814 15.1319L75.1314 16.2646C72.0349 17.018 68.9383 17.7714 65.8313 18.5429C64.6824 18.8355 63.5478 19.1243 62.4026 19.4311C67.5758 17.2668 73.0237 15.6697 78.5697 14.8398C80.0612 14.6232 81.5612 14.4959 83.0641 14.3221ZM60.8739 20.0238C60.9598 20.0008 61.06 19.974 61.1459 19.9509C61.1459 19.9509 61.1602 19.9471 61.1745 19.9433L61.2031 19.9356C67.2836 18.581 73.3336 17.1125 79.373 15.6621C80.2538 15.4566 81.1164 15.2407 81.9972 15.0352C82.5736 14.896 83.1614 14.7995 83.7339 14.6461C79.5923 16.595 75.0968 17.7386 70.6071 18.5602C67.3035 19.1707 63.9866 19.617 60.6678 20.1706C60.7317 20.123 60.7918 20.0611 60.8558 20.0134L60.8739 20.0238ZM68.5458 8.4625C69.4991 8.29861 70.4571 8.20975 71.4266 8.16358C71.3694 8.17893 71.3121 8.19427 71.2405 8.21345C70.6327 8.40684 70.0143 8.6183 69.4103 8.82592C68.2165 9.23735 67.016 9.68108 65.8337 10.1352C63.4833 11.0396 61.1663 12.0114 58.8827 13.0505C57.9942 13.4564 57.0915 13.8661 56.2288 14.3109C59.674 11.2517 64.0008 9.19209 68.5563 8.44443L68.5458 8.4625ZM55.347 15.1422C57.5924 14.1897 59.7815 13.0843 62.0451 12.1421C64.3516 11.1884 66.681 10.3201 69.0475 9.53343C69.7232 9.30663 70.4026 9.09405 71.082 8.88148C71.2109 8.84697 71.3397 8.81245 71.4828 8.77409C67.4127 11.3905 62.5307 12.4087 58.0256 14.0888C57.079 14.4493 56.1543 14.8344 55.241 15.2622C55.2763 15.2222 55.3155 15.1964 55.3508 15.1565L55.347 15.1422ZM50.5827 2.91561C51.4892 8.53173 51.2554 14.3008 49.8213 19.827C49.6485 20.4989 49.4575 21.1603 49.2484 21.8114C49.2314 21.1752 49.2105 20.5247 49.1934 19.8884C49.1784 18.4582 49.192 17.0203 49.2418 15.6032C49.3415 12.7691 49.5672 9.94695 49.9475 7.12917C50.1376 5.72027 50.3745 4.31411 50.5789 2.90139L50.5827 2.91561ZM49.2825 6.19351C49.5833 4.96858 49.949 3.75678 50.369 2.57618C49.7245 5.26643 49.4301 8.0612 49.1673 10.8018C48.8948 13.6212 48.7445 16.4384 48.724 19.2818C48.7182 20.0615 48.7304 20.8517 48.7389 21.6275C48.7341 21.7814 48.7474 21.9457 48.7569 22.0957C47.8666 16.8262 48.0412 11.4086 49.2968 6.18968L49.2825 6.19351ZM29.8844 28.5563C29.5191 27.4793 29.2073 26.3728 28.9097 25.2624C28.9717 25.3221 29.0194 25.3856 29.0853 25.4595C29.0423 25.471 29.0108 25.5252 29.0404 25.5783C30.1803 28.1719 31.363 30.7539 32.5277 33.3256C33.5474 35.5852 34.5241 37.8563 35.5047 40.1416C33.156 36.5292 31.2559 32.6441 29.8844 28.5563ZM36.7421 41.3816C36.0791 40.1097 35.4839 38.8045 34.8639 37.5211C33.6276 34.9686 32.4305 32.3904 31.2373 29.8264C30.5905 28.4434 29.9438 27.0604 29.2866 25.6954C31.6602 28.3704 33.5939 31.4073 35.0247 34.6858C36.1721 37.3079 36.9913 40.0789 37.4737 42.9097C37.2324 42.4098 37.0015 41.8919 36.7316 41.3997L36.7421 41.3816ZM33.3558 45.4626C33.8716 47.9029 34.1689 50.3866 34.1179 52.8873C34.092 53.9928 34.005 55.0994 33.8531 56.1929C32.6141 52.7715 32.444 48.9873 33.3558 45.4626ZM23.4655 50.4624C23.2901 49.5786 23.1824 48.6615 23.1864 47.7602C25.0298 48.6853 26.1755 50.4991 26.9557 52.3804C27.3964 53.4524 27.7445 54.5798 28.0744 55.6967C28.3939 56.8318 28.6991 57.9706 29.0042 59.1095C26.1763 57.0293 24.1911 53.9146 23.4693 50.4766L23.4655 50.4624ZM27.108 71.6713C28.8385 74.3507 29.003 77.999 27.7944 80.932C26.752 83.4542 24.7068 85.4975 22.2266 86.6045C22.7792 86.0903 23.2735 85.5306 23.746 84.9462C24.5076 84.0098 25.1347 82.9721 25.653 81.8719C26.766 79.4986 27.1854 76.884 26.9978 74.2946C26.9359 73.5483 26.8273 72.7993 26.6757 72.0618C26.5756 71.6308 26.464 71.1572 26.3171 70.7236C26.6234 71.0077 26.8943 71.3318 27.108 71.6713ZM25.5367 70.2156C25.5367 70.2156 25.6092 70.2572 25.6454 70.278C25.7866 70.8047 26.0031 71.3265 26.148 71.8675C26.3197 72.5081 26.4665 73.1706 26.5523 73.8342C26.7267 75.1149 26.7112 76.4312 26.5192 77.7186C26.1829 80.1279 25.2197 82.4305 23.7661 84.3916C23.1467 85.2289 22.4214 85.9573 21.6378 86.6402C21.655 86.5898 21.676 86.5537 21.6932 86.5033C22.2391 85.7925 22.6792 84.9727 23.0553 84.2006C23.5917 83.1109 24.0089 81.9768 24.3431 80.8192C24.9828 78.5117 25.2074 76.0865 24.9798 73.691C24.9226 73.0197 24.8187 72.3457 24.6719 71.6832C24.6023 71.3662 24.5289 71.0349 24.445 70.7217C24.3915 70.5224 24.342 70.3374 24.2637 70.16C24.6645 70.0526 25.0815 70.0629 25.4937 70.2271L25.5367 70.2156ZM23.4182 70.5544C23.5748 70.4514 23.7351 70.3627 23.9135 70.2843C23.9335 70.4163 23.986 70.5548 24.0241 70.6972C24.1081 71.0104 24.1882 71.3093 24.2578 71.6263C24.3817 72.2034 24.4732 72.774 24.5504 73.3483C24.6905 74.5009 24.7161 75.6842 24.63 76.8516C24.4722 79.1825 23.8935 81.4889 22.917 83.6273C22.7643 83.9734 22.5791 84.3129 22.4082 84.6486C22.4932 84.3359 22.582 84.0375 22.6527 83.7287C22.9496 82.4895 23.1207 81.2383 23.1476 79.9647C23.1716 78.7376 23.0736 77.5127 22.861 76.3186C22.6303 75.114 22.3127 73.8716 21.7423 72.7733C21.7385 72.7591 21.7241 72.7629 21.7203 72.7487C22.1308 71.8758 22.6863 71.0862 23.4612 70.5429L23.4182 70.5544ZM20.9454 84.8575C20.7024 83.0916 20.5882 81.2913 20.5713 79.5107C20.5601 77.8658 20.6348 76.1979 21.0339 74.5957C21.159 74.0892 21.3271 73.5712 21.5418 73.0559C21.9004 74.1652 22.2734 75.2707 22.4745 76.4221C22.6871 77.6163 22.7813 78.8269 22.7353 80.0294C22.6998 81.2137 22.5422 82.4003 22.2691 83.5568C22.0265 84.5983 21.6428 85.5708 21.2266 86.5368C21.1208 85.9701 21.0331 85.4138 20.9559 84.8394L20.9454 84.8575ZM3.82414 77.9865C4.61223 78.5229 5.38981 79.0775 6.1674 79.632C7.72258 80.7411 9.22814 81.894 10.7022 83.1011C13.3736 85.2842 15.9639 87.5655 18.4521 89.9808C17.1574 89.2139 15.813 88.4908 14.5469 87.7163C11.3792 85.7423 8.60194 83.2214 6.00216 80.5612C5.30093 79.8337 4.5959 79.0918 3.90518 78.3462C3.66762 78.0894 3.44439 77.8288 3.20683 77.5721C3.41387 77.7149 3.60659 77.8616 3.81363 78.0045L3.82414 77.9865ZM20.4277 93.4033C19.4506 93.1921 18.4802 92.9486 17.5194 92.6262C15.6015 91.9958 13.7524 91.1638 11.9978 90.1692C8.51334 88.1581 5.44124 85.3957 3.10873 82.1299C2.46575 81.2189 1.86188 80.2822 1.33628 79.2939C1.03293 78.7344 0.659946 78.0867 0.743074 77.4236C0.7555 77.2982 0.800354 77.1793 0.849036 77.0748C1.50146 78.5936 2.46118 79.9995 3.44094 81.3085C4.53423 82.755 5.76969 84.1023 7.10729 85.3155C10.0668 88.0012 13.6133 89.8432 17.1379 91.6604C18.2208 92.2094 19.3037 92.7584 20.3762 93.3255C20.4487 93.3671 20.5174 93.3945 20.5899 93.4361C20.5394 93.4191 20.4783 93.4202 20.4277 93.4033ZM21.2188 92.9777C20.2628 92.5015 19.3029 92.011 18.3469 91.5348C16.5216 90.6202 14.6821 89.7094 12.9093 88.7044C9.59944 86.8296 6.61029 84.5484 4.20712 81.5915C2.99075 80.0865 2.03109 78.4516 1.03517 76.796C1.22605 76.5923 1.49706 76.4586 1.78904 76.5177C1.84343 76.5489 1.8835 76.584 1.9417 76.6294C2.41488 77.2502 2.96632 77.8196 3.48913 78.3966C4.09971 79.0722 4.72461 79.744 5.34569 80.4015C6.58404 81.7022 7.86153 82.9773 9.19532 84.1762C10.5654 85.3959 11.9955 86.5537 13.5135 87.5812C14.9552 88.5529 16.4808 89.38 17.9502 90.2832C18.9443 90.9017 19.8994 91.546 20.7771 92.3026C21.051 92.5802 21.3105 92.8616 21.57 93.143C21.4469 93.0844 21.3238 93.0258 21.2007 92.9673L21.2188 92.9777ZM12.8237 104.016C16.1693 103.104 19.7932 104.376 22.8885 105.622C23.8178 105.998 24.7262 106.411 25.6278 106.856C22.2263 105.326 18.4974 104.464 14.7722 104.302C13.8227 104.251 12.8638 104.28 11.9086 104.322C12.2264 104.191 12.5518 104.089 12.8237 104.016ZM10.9399 105.115C10.9886 105.011 11.0554 104.917 11.1365 104.819C11.1508 104.815 11.1833 104.821 11.2014 104.832C15.7302 104.442 20.2359 105.112 24.4504 106.698C23.4847 106.53 22.5048 106.365 21.5286 106.215C19.2271 105.87 16.9017 105.608 14.5849 105.436C13.3473 105.34 12.1212 105.287 10.8922 105.281C10.9094 105.23 10.9122 105.184 10.9256 105.119L10.9399 105.115ZM17.4588 107.229C16.5007 107.089 15.5389 106.935 14.5733 106.766C13.705 106.617 12.787 106.513 11.9531 106.263C11.6029 106.158 11.1182 105.953 10.9475 105.602C13.8291 105.821 16.707 106.027 19.5696 106.404C21.0314 106.592 22.4866 106.813 23.9531 107.076C24.8863 107.238 25.831 107.442 26.7575 107.636C26.8624 107.685 26.9674 107.733 27.0542 107.77C27.1229 107.798 27.162 107.772 27.1974 107.732C27.2947 107.752 27.3777 107.775 27.475 107.795C27.7431 107.937 27.9969 108.082 28.265 108.224C24.662 108.061 21.0599 107.729 17.4836 107.207L17.4588 107.229ZM7.79788 120.986C10.0874 118.71 13.1602 117.581 16.3825 117.755C20.1841 117.973 23.7993 119.613 27.051 121.442C28.0623 122.011 29.0384 122.619 30.0078 123.259C24.1871 123.064 18.3903 122.558 12.6251 121.768C11.7501 121.651 10.8713 121.521 9.9925 121.39C9.23964 121.271 8.48299 121.138 7.71295 121.07C7.73776 121.048 7.75875 121.012 7.79788 120.986ZM7.47626 121.332C8.93042 121.72 10.4533 121.907 11.9371 122.12C13.4857 122.346 15.0306 122.558 16.5821 122.737C19.6889 123.11 22.7872 123.394 25.9094 123.594C27.564 123.7 29.2252 123.774 30.8827 123.833C32.6153 125.032 34.2707 126.343 35.8554 127.734C36.1139 127.955 36.362 128.194 36.6063 128.418C32.7114 127.051 28.638 126.22 24.5053 125.969C22.4013 125.847 20.2925 125.878 18.1922 125.998C16.0347 126.134 13.8782 126.33 11.7083 126.362C10.5155 126.377 9.3075 126.334 8.11952 126.195C7.51838 126.127 6.92393 126.027 6.32184 125.898C5.84953 125.796 5.38389 125.661 4.91157 125.559C5.45479 123.979 6.33768 122.522 7.48294 121.3L7.47626 121.332ZM4.7951 125.926C5.64524 126.293 6.61088 126.462 7.52213 126.599C8.54502 126.752 9.59559 126.837 10.6309 126.864C12.7302 126.912 14.8228 126.763 16.9049 126.633C19.091 126.489 21.2743 126.393 23.468 126.507C25.5968 126.608 27.7247 126.877 29.8153 127.293C31.7399 127.662 33.6272 128.179 35.4983 128.807C33.8428 128.64 32.1548 128.696 30.5068 128.786C28.2415 128.92 25.9714 129.208 23.727 129.535C19.2526 130.184 14.7238 131.032 10.1808 130.967C7.97752 130.932 5.37451 130.378 4.34528 128.198C4.34528 128.198 4.34528 128.198 4.34146 128.183C4.4122 127.417 4.57646 126.656 4.7951 125.926ZM4.29455 129.096C5.24187 130.399 6.81238 131.107 8.39348 131.339C9.51369 131.512 10.6521 131.467 11.7905 131.421C12.9575 131.368 14.1092 131.257 15.2572 131.133C19.9062 130.62 24.5018 129.678 29.1671 129.282C31.4171 129.092 33.6595 129.101 35.9029 129.171C31.9445 130.659 27.9719 132.151 23.882 133.262C21.6633 133.856 19.4218 134.365 17.1526 134.714C15.0161 135.042 12.8385 135.275 10.6743 135.214C8.89474 135.157 7.1362 134.835 5.5886 133.983C4.7501 132.514 4.30668 130.802 4.28406 129.114L4.29455 129.096ZM28.4342 135.078C25.3165 136.555 21.9976 137.566 18.5881 138.068C15.2216 138.558 11.2014 138.842 8.2313 136.86C7.31249 136.237 6.53113 135.439 5.93109 134.517C7.0541 135.101 8.34126 135.381 9.6008 135.502C11.7096 135.7 13.8557 135.521 15.9464 135.251C20.5658 134.685 25.0919 133.426 29.5073 131.983C31.9206 131.2 34.3187 130.359 36.7091 129.489C34.203 131.702 31.4622 133.611 28.4304 135.064L28.4342 135.078ZM18.4333 144.99C21.8271 141.396 26.9343 140.302 31.753 140.536C31.3026 140.688 30.8674 140.896 30.4495 141.054C29.7815 141.309 29.1278 141.56 28.4598 141.816C27.1381 142.322 25.8164 142.829 24.4948 143.336C23.1731 143.842 21.8552 144.363 20.5374 144.884C19.8694 145.14 19.2195 145.405 18.5515 145.661C18.2338 145.792 17.894 145.898 17.562 146.033C17.833 145.67 18.1222 145.318 18.4333 144.99ZM17.1258 146.638C17.6191 146.475 18.0867 146.273 18.5763 146.096C19.2443 145.841 19.9018 145.604 20.5698 145.349C21.9239 144.849 23.278 144.348 24.6283 143.834C25.9786 143.32 27.3327 142.819 28.6687 142.309C29.3367 142.054 29.9904 141.802 30.6622 141.561C31.3158 141.31 32.0964 141.131 32.6537 140.692C32.6929 140.666 32.6996 140.634 32.7062 140.601C33.066 140.627 33.4438 140.663 33.7969 140.721C34.6681 140.823 35.5221 140.976 36.3799 141.143C30.161 142.611 25.4874 147.327 19.7455 149.888C18.3465 150.506 16.877 150.977 15.3645 151.229C15.5833 149.584 16.2095 148.028 17.1296 146.652L17.1258 146.638ZM15.31 151.656C15.31 151.656 15.3196 151.577 15.3225 151.53C21.4601 150.618 26.2882 146.136 31.6829 143.424C32.681 142.912 33.7164 142.482 34.7852 142.119C34.1019 142.547 33.4263 143.002 32.7764 143.497C31.4231 144.516 30.1472 145.651 28.9256 146.817C26.4394 149.162 24.0707 151.658 21.3432 153.732C20.5902 154.3 19.801 154.847 18.9784 155.326C18.1557 155.806 17.2845 156.162 16.4361 156.603C15.59 155.105 15.1895 153.382 15.3281 151.666L15.31 151.656ZM17.3958 158.009C17.081 157.635 16.8091 157.25 16.5582 156.829C17.2882 156.634 17.9868 156.264 18.6567 155.901C19.3944 155.505 20.1063 155.07 20.7781 154.6C22.1753 153.631 23.4913 152.53 24.7491 151.385C27.2897 149.071 29.6651 146.543 32.4251 144.476C33.178 143.908 33.9567 143.379 34.765 142.903C34.9502 142.792 35.1534 142.692 35.3386 142.581C31.4399 146.983 29.6077 153.028 25.0249 156.88C24.1737 157.596 23.2308 158.2 22.2431 158.693C21.7297 158.953 21.2048 159.17 20.658 159.362C20.2935 159.49 19.9252 159.604 19.5568 159.718C18.7525 159.293 18.014 158.713 17.4101 158.005L17.3958 158.009ZM30.3666 157.005C28.6392 158.917 26.2744 160.283 23.6875 160.534C22.3993 160.65 21.1598 160.433 20.031 159.942C20.6971 159.794 21.3651 159.539 21.9539 159.274C22.8786 158.889 23.7546 158.38 24.5649 157.797C25.9257 156.806 27.0996 155.576 28.139 154.245C30.2454 151.514 31.7603 148.408 33.7178 145.579C34.5014 144.438 35.39 143.346 36.3883 142.377C34.9723 147.455 34.0372 152.955 30.3914 156.983L30.3666 157.005ZM37.5675 160.462C38.3949 159.828 39.4589 159.619 40.4589 159.458C41.459 159.297 42.4704 159.178 43.4829 159.121C47.629 158.849 51.8017 159.363 55.8168 160.378C56.1957 160.475 56.5744 160.572 56.9571 160.683C51.8073 159.957 46.5429 159.949 41.3767 160.478C39.8986 160.63 38.4138 160.815 36.9519 161.084C37.117 160.842 37.3222 160.634 37.5493 160.451L37.5675 160.462ZM38.5973 164.763C38.0038 164.495 37.419 164.087 37.0336 163.565C38.2673 163.646 39.5279 163.598 40.7741 163.554C42.2646 163.506 43.7474 163.429 45.2226 163.323C48.1588 163.116 51.0931 162.788 54.0035 162.313C54.6524 162.216 55.3118 162.1 55.953 161.974C51.9679 163.82 47.6442 164.917 43.249 165.119C41.9599 165.174 40.6841 165.165 39.4036 165.081C39.1326 164.986 38.8578 164.876 38.5973 164.763ZM49.2643 165.582C47.5161 165.928 45.7108 166.061 43.9407 165.925C42.8615 165.848 41.7489 165.704 40.6669 165.444C45.2261 165.626 49.8752 164.884 54.1379 163.33C55.242 162.927 56.3308 162.468 57.4044 161.951C54.9995 163.74 52.2196 164.988 49.2786 165.578L49.2643 165.582ZM41.4001 163.142C39.8772 163.184 38.3419 163.122 36.8161 163.211C36.7273 163.052 36.6634 162.87 36.6138 162.685C36.5185 162.329 36.5596 161.967 36.6875 161.643C38.0463 161.447 39.408 161.204 40.7783 161.051C42.2058 160.882 43.6486 160.77 45.099 160.686C47.9569 160.531 50.832 160.554 53.6879 160.735C55.0009 160.825 56.3072 160.948 57.6173 161.086C52.2697 162.198 46.8811 162.986 41.4144 163.138L41.4001 163.142ZM30.8908 183.581C31.2191 183.432 31.5616 183.279 31.8899 183.13C32.6142 182.799 33.3462 182.496 34.0781 182.193C35.5668 181.565 37.0707 180.994 38.5861 180.466C41.6025 179.414 44.6867 178.557 47.8023 177.875C50.9504 177.199 54.1337 176.712 57.3418 176.432C60.5929 176.141 63.8372 176.111 67.1026 176.045C67.2533 176.035 67.4079 176.039 67.5587 176.029C64.716 176.471 61.8666 176.944 59.043 177.457C52.7651 178.59 46.4966 179.872 40.3073 181.394C36.8959 182.231 33.5293 183.179 30.1445 184.117C30.3859 183.93 30.6455 183.754 30.9051 183.577L30.8908 183.581ZM58.9759 179.611C52.4946 181.073 45.9666 182.303 39.3948 183.255C36.1609 183.725 32.9079 184.124 29.654 184.462C29.7179 184.414 29.7962 184.363 29.8744 184.311C29.8782 184.325 29.9107 184.332 29.9393 184.324C33.0597 183.488 36.2002 182.784 39.3473 182.047C42.4515 181.323 45.5633 180.626 48.6827 179.958C54.9254 178.636 61.2139 177.485 67.5233 176.527C69.2762 176.256 71.0225 176.017 72.7687 175.778C73.3746 175.692 73.9987 175.616 74.6047 175.53C69.4431 177.05 64.2395 178.414 58.9864 179.593L58.9759 179.611ZM58.1091 175.861C51.7387 176.362 45.4273 177.657 39.3753 179.69C37.6739 180.268 35.9839 180.889 34.3167 181.595C33.8492 181.797 33.3815 181.998 32.9321 182.21C37.0309 179.586 41.5456 177.598 46.2281 176.237C53.2324 174.207 60.578 173.567 67.852 173.86C70.7031 173.966 73.5495 174.226 76.3825 174.55C70.3908 175.835 64.1999 175.403 58.1129 175.875L58.1091 175.861ZM66.7246 188.032C68.6689 184.581 71.1933 181.464 74.1528 178.825C75.34 177.759 76.6121 176.838 77.8985 175.914C77.2829 176.994 76.6711 178.089 76.0373 179.159C75.0952 180.739 74.1312 182.294 73.1309 183.828C71.138 186.926 69.0001 189.94 66.7963 192.88C65.5641 194.522 64.2776 196.133 63.0091 197.755C63.7683 194.347 65.0074 191.071 66.7351 188.014L66.7246 188.032ZM67.2463 195.246C65.9168 196.411 64.4701 197.424 62.8946 198.243C62.9146 198.146 62.949 198.046 62.9652 197.934C63.0053 197.97 63.0597 198.001 63.1055 197.943C65.6251 195.208 67.9109 192.23 70.1137 189.229C72.3023 186.232 74.3639 183.162 76.2948 180.005C76.8274 179.13 77.3743 178.251 77.9031 177.362C75.4611 183.936 72.6307 190.493 67.2463 195.246ZM96.8382 173.539C94.6864 167.799 93.3888 161.754 93.0243 155.642C92.853 152.941 92.9079 150.226 93.1211 147.529C93.3049 149.875 93.6213 152.201 93.9806 154.516C94.4201 157.358 94.9635 160.188 95.6071 162.99C96.8829 168.553 98.5776 174.019 100.608 179.365C101.44 181.553 102.358 183.717 103.329 185.853C103.374 186.024 103.42 186.194 103.462 186.351C100.766 182.359 98.5254 178.061 96.8239 173.543L96.8382 173.539ZM93.4979 148.191C95.5877 153.414 97.4418 158.73 98.9276 164.16C99.7124 167.032 100.411 169.927 100.978 172.842C101.532 175.654 101.957 178.5 102.407 181.324C102.483 181.838 102.577 182.362 102.668 182.871C101.147 179.373 99.7911 175.8 98.6209 172.177C96.8508 166.716 95.4776 161.133 94.5024 155.49C94.0839 153.069 93.7838 150.632 93.4836 148.195L93.4979 148.191ZM104.022 185.865C103.672 184.616 103.394 183.348 103.155 182.054C102.625 179.221 102.186 176.379 101.6 173.56C100.418 167.835 98.8716 162.177 96.9784 156.657C95.9283 153.597 94.7389 150.59 93.4207 147.617C93.3912 147.335 93.3473 147.056 93.3216 146.789C96.11 151.641 98.2427 156.852 99.864 162.216C101.637 168.088 102.776 174.115 103.575 180.187C103.84 182.206 104.029 184.231 104.219 186.255C104.156 186.135 104.103 185.996 104.037 185.861L104.022 185.865ZM76.7426 200.743C84.3054 196.962 92.3528 194.073 100.654 192.474C100.944 192.412 101.238 192.364 101.532 192.315C100.93 192.476 100.323 192.67 99.7252 192.845C97.5505 193.489 95.4015 194.172 93.2639 194.897C88.9707 196.337 84.7261 197.902 80.5339 199.605C78.7628 200.323 77.0031 201.085 75.2615 201.857C75.7444 201.483 76.2416 201.106 76.7426 200.743ZM74.2289 202.698C78.1739 201.046 82.1446 199.433 86.1717 197.972C90.4096 196.44 94.6962 195.032 99.0209 193.766C100.058 193.458 101.103 193.178 102.148 192.898C101.489 193.242 100.825 193.573 100.162 193.903C98.1008 194.913 96.01 195.87 93.8819 196.745C89.6153 198.514 85.2591 200.063 80.8046 201.302C78.9944 201.818 77.1613 202.248 75.332 202.692C74.9617 202.685 74.581 202.695 74.2108 202.687L74.2289 202.698ZM94.6793 198.576C90.4185 200.481 85.8962 201.754 81.2701 202.352C79.9036 202.52 78.5219 202.631 77.1393 202.681C78.0592 202.45 78.9934 202.215 79.9095 201.969C82.171 201.363 84.4136 200.686 86.6408 199.952C91.0667 198.491 95.4096 196.778 99.6409 194.821C101.482 193.961 103.315 193.073 105.111 192.104C105.154 192.092 105.183 192.085 105.225 192.073C101.996 194.678 98.4908 196.884 94.6937 198.572L94.6793 198.576ZM95.0553 193.166C90.9052 194.339 86.8161 195.74 82.8721 197.452C81.3586 198.102 79.8928 198.815 78.4347 199.557C80.5113 198.146 82.6871 196.876 84.9554 195.78C89.0389 193.786 93.3779 192.288 97.8457 191.442C100.124 191.014 102.428 190.793 104.729 190.62C104.801 190.661 104.891 190.652 104.969 190.601C105.012 190.589 105.073 190.588 105.12 190.591C105.293 190.667 105.467 190.742 105.641 190.818C102.071 191.408 98.5326 192.173 95.0514 193.151L95.0553 193.166Z" fill="#56887C"/>
</svg>
