<svg width="55" height="122" viewBox="0 0 55 122" fill="none" xmlns="http://www.w3.org/2000/svg">
<path d="M44.4305 37.593C47.2013 35.0699 49.6742 32.2221 51.7597 29.094C52.8025 27.5299 53.8602 25.8921 54.5901 24.1657C54.9626 23.2804 55.2158 22.218 54.7391 21.3327C54.3369 20.5802 53.5473 20.1965 52.7131 20.0932C51.7001 19.9604 50.6425 20.167 49.6444 20.3883C48.5122 20.6392 47.4098 20.9933 46.3522 21.436C44.6986 22.1295 43.1493 23.0443 41.7639 24.151C42.3002 22.7492 42.7918 21.3327 43.2238 19.8867C43.7452 18.1308 44.1921 16.3454 44.5645 14.5452C44.7433 13.6452 44.9072 12.7451 45.0412 11.845C45.1753 11.0187 45.3988 10.0744 45.2647 9.23333C45.1008 8.21521 44.2219 7.65451 43.2089 7.81682C42.181 7.97913 41.1978 8.56934 40.2891 9.05626C38.3674 10.0891 36.3862 11.3286 34.8667 12.8926C34.7922 11.9188 34.7028 10.9449 34.5687 9.9711C34.3602 8.37752 34.0771 6.7987 33.7196 5.23464C33.4366 4.00995 33.1982 2.32784 31.9618 1.66385C30.4274 0.852305 29.2953 2.53441 28.5951 3.61155C27.6566 5.02806 26.7926 6.48884 26.0031 7.99388C25.4072 9.13004 24.856 10.2957 24.3495 11.4761C24.3793 11.063 24.3942 10.6351 24.3942 10.2072C24.3942 9.02675 24.275 7.86108 24.0814 6.69541C23.8877 5.51499 23.5898 4.34932 23.2173 3.22792C22.9194 2.31309 22.5768 1.32448 21.8617 0.63098C21.2063 -0.00349889 20.2529 -0.195316 19.4335 0.217833C18.5546 0.660492 17.9885 1.50155 17.5267 2.3426C16.4095 4.33457 15.5455 6.45933 14.9049 8.65787C13.9664 11.8893 13.5195 15.2535 13.4897 18.6177C11.8957 17.6143 10.1677 16.8766 8.33538 16.4487C7.35218 16.2126 6.3541 16.0798 5.34112 16.0208C4.41751 15.9765 3.4492 15.9617 2.55539 16.2126C1.75096 16.4339 1.02102 16.8913 0.589015 17.6143C0.42515 17.8947 0.320878 18.2046 0.246394 18.5144C0.246394 18.5144 0.246379 18.4997 0.231482 18.4849C0.127204 18.3521 -0.0664541 18.5144 0.022927 18.6472C0.0825145 18.721 0.127206 18.7948 0.186793 18.8538C0.157 19.1637 0.142111 19.4735 0.171905 19.7834C0.320873 21.4655 1.19978 23 2.00421 24.4461C3.4641 27.1168 5.05806 29.7137 6.81589 32.1926C5.89229 31.8237 4.95379 31.5139 4.00039 31.263C3.31513 31.086 2.57031 30.8794 1.85526 30.8499C1.33387 30.8204 0.737984 30.9089 0.38046 31.3368C-0.528249 32.3992 0.886951 33.7862 1.54241 34.5682C2.39153 35.5863 3.28534 36.5454 4.23874 37.475C7.97785 41.1048 12.4767 44.0264 17.3629 45.9298C19.225 46.6528 21.1318 47.2283 23.0684 47.6266C23.2024 47.9365 23.3812 48.2464 23.5451 48.5267C23.7834 48.9546 24.0218 49.3678 24.2601 49.7957C24.7219 50.6515 25.1241 51.5368 25.4966 52.4369C25.5115 52.4811 25.5413 52.5254 25.5859 52.5697C25.5264 53.4255 25.4668 54.2813 25.4221 55.1371C25.288 57.6455 25.1539 60.1539 25.0645 62.6623C24.9007 67.0299 24.8113 71.4122 24.856 75.7798C23.8728 73.1829 22.5172 70.7187 20.9977 68.4021C18.9419 65.274 16.4691 62.4262 13.6685 59.9326C12.0894 58.5161 10.3762 57.2471 8.58862 56.0962C8.26089 55.8896 7.87357 56.1847 8.00764 56.5389C10.555 63.4001 14.5027 69.7154 19.6421 74.9535C21.0275 76.3552 22.4874 77.698 24.0218 78.9374C24.3197 79.4834 24.6027 80.0146 24.9007 80.5605C24.9007 80.59 24.9305 80.6048 24.9454 80.6195C25.139 86.2708 25.5859 91.9369 26.3904 97.5291C24.5134 94.7551 22.2043 92.2615 19.6868 90.0482C16.3946 87.1266 12.6257 84.7215 8.60353 82.9214C6.32431 81.9032 3.95571 81.0917 1.52752 80.4867C1.1849 80.3982 0.991229 80.8704 1.16999 81.1065C6.48817 87.7759 12.9534 93.4714 20.3274 97.8095C22.398 99.0194 24.5283 100.141 26.7181 101.129C26.8075 101.174 26.882 101.174 26.9565 101.159C27.2693 102.974 27.6119 104.774 28.0141 106.559C29.1761 111.768 30.6956 116.903 32.8854 121.787C33.0791 122.215 33.7196 121.934 33.5558 121.492C31.9767 116.991 30.5466 112.432 29.4442 107.799C28.8632 105.349 28.3866 102.871 27.9695 100.392C28.0141 100.333 28.029 100.259 27.9843 100.185C27.9545 100.141 27.9247 100.097 27.9099 100.052C27.8801 99.8605 27.8503 99.6686 27.8056 99.4768C29.4442 99.5506 31.1127 99.3293 32.7216 99.0489C34.4943 98.7391 36.2521 98.2816 37.9503 97.7062C41.3915 96.5258 44.639 94.7994 47.529 92.6156C48.9591 91.5385 50.2849 90.3433 51.5512 89.0891C52.2066 88.735 52.8621 88.3808 53.5026 88.0119C53.9347 87.7758 53.7857 87.1119 53.2643 87.1709C46.5458 87.8349 40.0061 90.0777 34.241 93.5452C35.5221 92.2762 36.7735 90.9925 37.9801 89.6498C41.0191 86.2708 43.775 82.6558 46.2479 78.8489C47.6482 76.6946 48.9442 74.4813 50.1509 72.2238C50.3147 71.9286 49.9274 71.5598 49.6295 71.7073C45.4733 73.7731 41.6597 76.5176 38.3823 79.7932C35.0901 83.0689 32.3193 86.8463 30.204 90.9778C29.1165 93.1025 28.2227 95.3158 27.5225 97.5881C27.3438 96.3487 27.1799 95.1092 27.0309 93.855C26.2712 87.4955 25.9584 81.0917 25.8839 74.7027C32.5428 71.486 37.8907 65.879 40.9297 59.2096C41.7937 57.3061 42.4641 55.3437 42.9557 53.3075C42.9706 53.2337 42.9557 53.1746 42.9557 53.1156C43.0451 52.9828 43.1344 52.8353 43.2238 52.7025C43.4026 52.4221 43.1494 51.9647 42.7769 52.1418C35.835 55.5502 30.2189 61.3048 27.0309 68.2988C26.5989 69.2579 26.2116 70.2465 25.869 71.2351C25.869 68.9333 25.9137 66.6167 25.9584 64.3149C26.0329 61.4966 26.1222 58.6636 26.2414 55.8454C26.301 54.4584 26.3457 53.0714 26.4053 51.6844C26.4053 51.6548 26.4053 51.6253 26.4053 51.5958C26.6287 51.3155 26.8224 50.9909 27.0309 50.6958C27.2991 50.3121 27.5523 49.9285 27.7907 49.5448C28.2823 48.7628 28.7739 47.9808 29.2506 47.184C29.3251 47.0659 29.34 46.9184 29.3102 46.7856C31.3659 46.0478 33.3621 45.1478 35.2689 44.1001C38.576 42.3 41.6448 40.1015 44.4156 37.5635L44.4305 37.593ZM11.0913 61.836C10.3614 60.39 9.7059 58.9292 9.11002 57.4242C9.2292 57.5127 9.34836 57.6013 9.46753 57.6898C9.85485 58.4128 10.4656 59.0473 10.987 59.6817C11.568 60.39 12.1341 61.113 12.7002 61.8213C13.8025 63.223 14.8751 64.6395 15.9328 66.0855C18.063 69.0218 20.0592 72.0615 21.8915 75.1896C22.2491 75.7946 22.5768 76.3995 22.9045 77.0045C18.0481 72.7254 14.0111 67.5906 11.0913 61.836ZM24.8262 78.7899C24.8262 78.6866 24.7815 78.5833 24.6772 78.5095C23.2173 75.9274 21.6085 73.4189 19.9698 70.9696C17.929 67.93 15.8136 64.9494 13.5493 62.0721C12.9087 61.2606 12.2682 60.4638 11.5978 59.667C11.3297 59.3424 11.0466 58.9882 10.7636 58.6489C15.7391 62.4853 19.8209 67.384 22.7257 72.9468C23.5153 74.4666 24.2005 76.0454 24.856 77.6242C24.856 77.7127 24.856 77.816 24.856 77.9046C24.856 78.2292 24.8709 78.5538 24.8858 78.8784C24.8709 78.8489 24.856 78.8194 24.8411 78.7899H24.8262ZM33.2578 98.2964C31.9171 98.562 30.5764 98.7096 29.2208 98.8424C29.6975 98.7096 30.1742 98.5472 30.6509 98.3849C31.5 98.1046 32.3491 97.8095 33.1834 97.4996C34.8816 96.8651 36.5798 96.2159 38.2632 95.5224C41.615 94.1354 44.9221 92.6008 48.1547 90.9482C48.4675 90.7859 48.7803 90.6236 49.0783 90.4613C44.6837 94.4453 39.0527 97.1307 33.243 98.3112L33.2578 98.2964ZM47.395 89.0743C48.6314 88.7792 49.8827 88.5579 51.1341 88.3661C45.4881 91.4499 39.6337 94.1502 33.6302 96.4667C32.6768 96.8356 31.7234 97.1897 30.77 97.5439C30.2784 97.7209 29.7869 97.898 29.3102 98.0751C34.539 93.7518 40.7659 90.6236 47.395 89.0743ZM42.1811 83.3345C39.4996 86.92 36.55 90.3138 33.3472 93.4714C32.5279 94.283 31.6937 95.065 30.8445 95.8323C30.5913 96.0093 30.338 96.2011 30.0997 96.393C34.822 90.4023 39.589 84.4412 44.4752 78.5685C45.2796 77.6094 46.084 76.6356 46.9033 75.6765C47.2907 75.2191 47.678 74.7764 48.0802 74.319C46.2926 77.4324 44.3411 80.4425 42.1959 83.3198L42.1811 83.3345ZM33.9431 86.3151C36.55 82.5967 39.7231 79.2768 43.3579 76.5323C44.6688 75.5437 46.0393 74.6289 47.4694 73.8026C47.1566 74.1862 46.8587 74.5551 46.5458 74.924C45.8308 75.765 45.1306 76.6208 44.4305 77.4766C43.0004 79.203 41.5852 80.9294 40.17 82.6705C37.3843 86.1085 34.6432 89.576 31.932 93.073C30.7403 94.6223 29.5634 96.1864 28.4014 97.7504C28.3568 97.78 28.327 97.8242 28.2823 97.8537C29.5634 93.737 31.4702 89.8416 33.9431 86.3003V86.3151ZM6.44347 85.9609C5.8029 85.3117 5.19213 84.6477 4.58136 83.969C4.68564 84.0428 4.78993 84.1313 4.89421 84.2051C5.68374 84.7953 6.45838 85.4003 7.24791 85.9905L11.8361 89.4432C14.9645 91.7893 18.063 94.1649 21.1765 96.5258C22.3384 97.4111 23.4855 98.3112 24.6623 99.1817C17.9141 95.8027 11.7319 91.3319 6.45838 85.9609H6.44347ZM26.7032 99.6391C25.2433 98.503 23.7089 97.4258 22.2193 96.3192C20.6849 95.183 19.1356 94.0469 17.5863 92.9255C14.4282 90.6236 11.3147 88.2775 8.17151 85.9462C7.2926 85.297 6.42859 84.6477 5.54967 84.0133C4.74524 83.423 3.95569 82.7591 3.09168 82.2574C2.89802 82.036 2.70437 81.8147 2.52561 81.5934C6.32431 82.6705 9.98893 84.2936 13.3407 86.3593C17.0202 88.6317 20.372 91.4352 23.2173 94.6666C24.424 96.0388 25.5413 97.4996 26.6138 98.9899C26.6436 99.2112 26.6734 99.4178 26.7181 99.6391H26.7032ZM30.5019 70.9548C29.5187 71.6778 28.5057 72.3566 27.4481 72.9615C29.4442 70.9548 31.3361 68.8153 33.1535 66.661C35.5072 63.8575 37.7269 60.9507 39.8124 57.9406C40.453 57.011 41.0936 56.0667 41.7044 55.1224C39.8423 61.4229 35.7903 67.0299 30.5019 70.9548ZM37.712 56.17C39.0229 55.1666 40.4083 54.2518 41.8682 53.4698C38.1738 59.2243 34.0027 64.6838 29.4144 69.7744C28.327 70.9843 27.2097 72.15 26.1073 73.3304C27.9397 66.5577 32.1257 60.449 37.712 56.1552V56.17ZM50.9851 21.0376C49.7784 22.8377 48.6165 24.6379 47.3055 26.3643C45.935 28.1644 44.5198 29.9203 43.0302 31.6024C40.0061 34.9813 36.7288 38.1685 33.2131 41.0458C32.0214 42.0196 30.7999 42.964 29.5485 43.864C30.8743 42.4475 32.1108 40.9573 33.2727 39.4227C35.5222 36.4864 37.4736 33.3435 39.1421 30.0531C39.8274 28.6956 40.4679 27.2938 41.0489 25.8921C41.0787 25.8773 41.0936 25.8773 41.1234 25.8478C43.7899 23.3542 47.3205 21.5097 51 21.0228L50.9851 21.0376ZM42.6429 9.07102C42.9706 8.93822 43.3579 8.77591 43.7154 8.83493C44.1028 8.89395 44.207 9.24808 44.2368 9.58745C44.2815 10.399 44.0581 11.2696 43.9389 12.0663C43.8048 12.9074 43.6559 13.7484 43.4771 14.5747C43.1345 16.2569 42.7174 17.9242 42.2258 19.5768C40.2296 26.2462 37.0863 32.532 32.9897 38.1685C31.8426 39.7473 30.6062 41.2819 29.3102 42.7426C28.6547 43.4804 27.9843 44.2034 27.2991 44.9264C27.5523 44.5428 27.7758 44.1444 28.0141 43.7608C28.5355 43.023 28.9973 42.241 29.4591 41.4737C30.1146 40.4113 30.7552 39.3342 31.3659 38.257C32.6471 36.0437 33.8686 33.8009 34.9859 31.5139C37.2204 26.9249 39.0527 22.159 40.5126 17.275C41.317 14.5895 42.0172 11.845 42.5535 9.08578C42.5833 9.08578 42.613 9.05626 42.6577 9.0415L42.6429 9.07102ZM34.9114 13.6452C35.0753 13.7485 35.2838 13.778 35.4626 13.6452C36.2223 13.0697 36.9374 12.45 37.712 11.8893C38.4866 11.3286 39.2762 10.8121 40.1104 10.34C40.6765 10.0154 41.2723 9.72025 41.8682 9.42514C40.8105 14.2206 39.4996 18.9276 37.7865 23.5312C36.0435 28.2234 33.9729 32.8566 31.5298 37.2389C31.0978 38.021 30.636 38.7882 30.1742 39.5555C30.338 39.2161 30.487 38.862 30.636 38.5226C31.9171 35.5568 32.9152 32.4582 33.6302 29.3153C34.8071 24.1952 35.2391 18.8981 34.9114 13.6452ZM23.1131 6.19373C23.3663 7.38891 23.5153 8.6136 23.5749 9.83829C23.6344 10.9892 23.6493 12.1844 23.5749 13.3353C21.8468 17.8062 20.7147 22.4984 20.2976 27.2643C19.9996 30.4957 19.9698 33.8009 20.4316 37.0176C20.4316 37.0914 20.4614 37.1651 20.4614 37.2242C20.1039 35.7044 19.8209 34.1698 19.6421 32.6205C18.8972 26.3938 19.4782 20.1375 20.6104 13.9845C20.9381 12.1696 21.3254 10.3547 21.7128 8.53983C21.9064 7.65451 22.1001 6.78394 22.3086 5.89863C22.4278 5.36743 22.5619 4.851 22.6661 4.31981C22.8449 4.93953 22.9939 5.55926 23.128 6.17898L23.1131 6.19373ZM20.1933 0.852312C21.1765 0.734269 21.7425 1.79665 22.0405 2.54917C22.1746 2.87379 22.2788 3.1984 22.398 3.52302C21.9511 4.92477 21.683 6.40031 21.3552 7.81682C20.9828 9.45466 20.6253 11.0925 20.2976 12.7303C19.657 15.9913 19.1356 19.2669 18.8675 22.5721C18.4504 27.5742 18.644 32.591 19.7762 37.4602C19.1058 35.2617 18.5993 33.0189 18.2567 30.7318C17.3182 24.5051 17.4672 18.175 18.0183 11.9188C18.1822 10.0891 18.3759 8.25948 18.5844 6.44458C18.7781 4.76247 19.0164 3.09511 19.1803 1.39825C19.4633 1.1179 19.7911 0.896577 20.1933 0.852312ZM15.0092 11.6827C15.4263 9.58745 16.0519 7.53646 16.8713 5.57401C17.2884 4.57065 17.7651 3.5968 18.3014 2.65246C18.4057 2.46064 18.5397 2.2393 18.6738 2.03273C18.2269 4.93953 17.929 7.87584 17.6459 10.7974C17.3182 14.1173 17.0947 17.452 17.0649 20.7867C17.0202 26.7922 17.6161 32.8271 19.3888 38.5816C19.6868 39.5702 20.0294 40.5441 20.4167 41.518C19.7017 40.2047 19.0909 38.8325 18.495 37.475C16.7223 33.3435 15.3816 29.0054 14.741 24.5493C14.1154 20.2851 14.16 15.9175 15.0092 11.6827ZM1.57221 17.7176C2.22768 16.9946 3.28534 16.8766 4.20894 16.8618C5.26662 16.8323 6.32431 16.9356 7.36709 17.1274C9.45265 17.5111 11.4637 18.3078 13.2215 19.4735C13.3109 19.5325 13.4003 19.5473 13.4897 19.5473C13.5046 20.4621 13.5493 21.3917 13.6238 22.3065C14.0409 27.043 15.2773 31.6909 17.0202 36.1175C17.8545 38.2128 18.7632 40.308 19.8656 42.2852C20.089 42.6689 20.3124 43.0525 20.5508 43.4361C19.8655 42.5803 19.1803 41.7245 18.495 40.8835C17.0352 39.0833 15.5753 37.2832 14.1154 35.483C11.1658 31.8532 8.17152 28.2382 5.22194 24.5936C3.82163 22.8672 2.42133 21.1556 1.00613 19.444C0.991228 18.8095 1.1402 18.2193 1.57221 17.7324V17.7176ZM4.00039 26.2462C3.18106 24.8297 2.31705 23.3984 1.66159 21.9081C1.42324 21.3474 1.16999 20.6687 1.05081 19.99C3.56838 23.2509 6.16044 26.4528 8.7078 29.6842C11.5978 33.373 14.5027 37.0471 17.4076 40.7212C18.212 41.7245 19.0164 42.7279 19.8209 43.7312C20.1933 44.2034 20.5657 44.6756 20.953 45.133C19.5378 44.2034 18.1971 43.1705 16.9011 42.0934C14.309 39.9096 11.9702 37.4307 9.85486 34.7895C7.69482 32.0893 5.75823 29.212 4.0153 26.2314L4.00039 26.2462ZM0.991237 32.2369C0.961443 32.0155 1.05082 31.8237 1.40835 31.7499C2.04891 31.6319 2.79375 31.868 3.40452 32.0008C4.9389 32.3549 6.38389 32.9156 7.79909 33.5796C9.97403 36.4864 12.3873 39.2161 15.0986 41.6655C15.7689 42.2705 16.4691 42.8607 17.1841 43.4214C16.2009 42.9197 15.2177 42.418 14.2345 41.8868C11.136 40.2195 8.21621 38.1685 5.46029 35.9995C4.68566 35.3945 3.92592 34.7748 3.18108 34.1255C2.45113 33.4911 1.75098 32.7976 0.991237 32.2221V32.2369ZM12.4022 42.5508C8.43965 40.2342 4.90911 37.2389 1.98932 33.7124C2.16809 33.8747 2.36174 34.037 2.5405 34.1993C3.21086 34.7895 3.89611 35.365 4.58136 35.9257C5.96677 37.0471 7.39688 38.1242 8.87167 39.1276C11.7915 41.1491 14.8602 42.9787 18.0332 44.5575C18.7185 44.8969 19.4186 45.2215 20.1337 45.5461C20.5508 45.8117 20.953 46.0921 21.385 46.3577C18.2716 45.4281 15.2475 44.1887 12.4171 42.5508H12.4022ZM25.3625 37.4898C25.3029 40.308 25.3327 43.1263 25.437 45.9445C25.4221 46.0183 25.3923 46.0921 25.3774 46.1511C21.4595 41.8131 20.8785 35.483 21.0871 29.9055C21.3254 23.4279 22.8449 17.0241 25.5115 11.1072C26.1669 9.64647 26.9118 8.20046 27.7013 6.81346C28.1035 6.1052 28.5206 5.42645 28.9675 4.73295C29.3549 4.12799 29.7273 3.464 30.2189 2.9328C29.4442 5.57401 28.8484 8.27423 28.3121 10.9745C27.7311 13.8813 27.2395 16.8176 26.8224 19.7539C26.0031 25.6265 25.4817 31.5434 25.3625 37.475V37.4898ZM26.2563 29.699C26.5989 23.8263 27.3736 17.9832 28.4759 12.1992C29.0867 8.98249 29.8613 5.79535 30.5913 2.6082C30.9488 2.37211 31.351 2.32784 31.7085 2.65246C31.6787 3.24267 31.7085 3.83288 31.7085 4.42309C31.7085 5.16086 31.7085 5.91338 31.7085 6.65115C31.7085 8.14144 31.6639 9.63172 31.6043 11.122C31.4851 14.1026 31.2616 17.0684 30.9339 20.0342C30.2784 25.9216 29.2655 31.7942 27.8205 37.5488C27.4034 39.1866 26.9714 40.8245 26.4947 42.4475C26.3457 42.9787 26.1669 43.4952 26.0031 44.0264C25.8541 39.2604 25.9435 34.4797 26.2265 29.7137L26.2563 29.699ZM26.5989 44.7789C26.4202 45.0887 26.2563 45.3838 26.0924 45.6937C26.0924 45.5609 26.0924 45.4281 26.0775 45.2953C26.3308 44.5133 26.5691 43.7313 26.7926 42.9345C27.2097 41.5327 27.597 40.131 27.9695 38.7145C28.7292 35.8224 29.4144 32.9304 29.9805 29.9941C31.1127 24.1214 31.8277 18.1603 32.1555 12.1844C32.2448 10.5318 32.3044 8.86444 32.3342 7.21185C32.3342 6.35604 32.3491 5.50023 32.3491 4.64443C32.3491 4.34932 32.3491 4.03946 32.3491 3.74435C32.4087 3.95093 32.4683 4.15749 32.5279 4.34931C32.9003 5.8396 33.2131 7.35941 33.4366 8.87921C34.39 15.0027 34.2559 21.2737 33.0791 27.3529C31.9022 33.4616 29.6677 39.3342 26.584 44.7494L26.5989 44.7789ZM28.4163 45.0445C31.7532 42.7131 34.9412 40.1162 37.9056 37.357C41.2127 34.2731 44.3113 30.9236 47.1119 27.3824C48.691 25.3904 50.2849 23.3394 51.6405 21.1851C51.6852 21.1114 51.7001 21.0376 51.6852 20.9786C52.3407 20.9343 53.1154 20.9786 53.6218 21.4065C53.6367 21.4065 53.6516 21.436 53.6665 21.4507C53.607 21.4507 53.5473 21.495 53.5026 21.554C52.8025 22.5574 52.1918 23.6345 51.4916 24.6526C50.8064 25.6412 50.0913 26.6298 49.3465 27.5742C47.8568 29.5071 46.2479 31.3515 44.5497 33.1222C41.1532 36.6635 37.3545 39.8358 33.2727 42.5951C32.1257 43.3624 30.9637 44.1001 29.772 44.8084C28.8781 45.3396 27.9695 45.8265 27.0607 46.3134C27.5225 45.9003 27.9694 45.4724 28.4014 45.0445H28.4163ZM27.4034 46.6971C28.1482 46.3134 28.8632 45.9003 29.5783 45.4871C30.636 44.8822 31.6638 44.2477 32.6917 43.5837C34.7773 42.2262 36.8033 40.7507 38.725 39.1866C42.5684 36.0585 46.084 32.5172 49.1826 28.6513C50.0466 27.5742 50.8659 26.4675 51.6704 25.3461C52.4599 24.2247 53.309 23.0886 53.9644 21.8786C54.2326 22.5279 53.9644 23.3394 53.6814 23.9444C52.9515 25.5527 51.9832 27.0725 51 28.548C47.0672 34.4206 41.7639 39.3194 35.6413 42.905C33.0195 44.4395 30.2487 45.6347 27.4183 46.6971H27.4034Z" fill="#56887C"/>
</svg>
