<svg width="98" height="217" viewBox="0 0 98 217" fill="none" xmlns="http://www.w3.org/2000/svg">
<path d="M0.182342 216.642C0.656835 216.201 1.08684 215.657 1.53167 215.173C1.96168 214.703 2.43618 214.262 2.91067 213.821C3.84483 212.94 4.76416 212.044 5.68349 211.148C7.53698 209.341 9.36081 207.505 11.0957 205.595C14.5357 201.82 17.7089 197.765 20.0962 193.255C20.6745 192.168 21.1935 191.067 21.6531 189.935C22.5131 185.999 22.2907 181.841 21.4307 177.86C20.0517 171.411 17.2789 165.344 15.6034 158.984C14.6544 155.399 14.0761 151.727 14.254 148.01C14.2688 147.717 14.6395 147.555 14.8768 147.658C15.2623 147.819 15.633 148.01 16.0037 148.201C16.1223 148.172 16.2558 148.201 16.3596 148.348C16.3596 148.363 16.3892 148.392 16.4041 148.407C20.1555 150.537 22.8394 154.239 24.2925 158.235C25.2711 160.908 25.7605 163.743 25.9829 166.578C26.2053 169.428 26.2053 172.322 25.9829 175.172C25.5974 180.695 24.3666 186.175 22.0831 191.228C21.92 191.772 21.7273 192.315 21.5049 192.844C24.3666 189.025 27.0801 185.117 29.5861 181.048C31.0688 178.624 32.4775 176.171 33.812 173.674C34.6869 171.5 35.6803 169.37 36.9259 167.342C37.0297 167.166 37.1483 167.004 37.2521 166.843C37.5338 166.255 37.7859 165.653 38.0676 165.065C37.9193 164.992 37.8304 164.801 37.9638 164.61C38.2159 164.272 38.468 163.92 38.7349 163.582C38.809 163.405 38.898 163.214 38.9869 163.038C38.9869 163.009 38.9869 162.979 39.0018 162.95C39.2538 161.408 39.1797 159.821 38.8831 158.279C38.2159 154.841 36.3624 151.756 34.3755 148.906C32.2847 145.91 30.0754 142.986 28.1478 139.887C26.2053 136.773 24.4704 133.482 23.299 130.001C21.9645 126.064 21.3121 121.877 21.7718 117.734C21.8162 117.367 22.3352 117.25 22.5428 117.529C26.7836 123.096 31.0244 128.708 34.3903 134.834C37.6969 140.856 40.0842 147.511 40.529 154.401C40.6328 156.06 40.6328 157.735 40.4846 159.395C40.7811 158.675 41.0777 157.941 41.3594 157.221C44.6809 148.671 47.1868 139.843 48.8475 130.823C49.5889 126.783 50.1523 122.7 50.5379 118.616C50.4489 118.014 50.3896 117.411 50.3006 116.809C50.182 116.045 50.0486 115.281 49.9003 114.517C49.8558 114.488 49.8113 114.429 49.7965 114.371C49.6334 113.9 49.4999 113.43 49.3813 112.946C46.9347 110.14 43.6429 108.083 40.3956 106.335C36.9703 104.484 33.4117 102.839 30.1792 100.665C28.385 99.4456 26.6946 98.0647 25.2711 96.4341C25.0339 96.1697 25.2563 95.729 25.5825 95.685C30.1643 95.1855 34.8944 96.0816 38.9573 98.241C42.2194 99.9744 44.9626 102.486 47.0088 105.513C45.7781 102.736 44.325 100.077 42.6198 97.5653C41.8636 96.4488 41.0628 95.3471 40.2177 94.2894C40.0694 94.3335 39.9211 94.3188 39.8173 94.1866C34.7462 93.0261 29.675 91.5718 25.0784 89.1039C20.719 86.7682 16.8934 83.4336 14.5506 79.0707C13.2902 76.735 12.534 74.1055 12.534 71.4466C12.534 71.1381 12.7416 70.8884 13.0826 70.9178C18.1093 71.4907 22.9432 73.1359 27.1988 75.8682C31.3209 78.4977 34.761 82.0968 37.2669 86.2834C38.4235 88.2225 39.3576 90.2644 40.0842 92.3944C43.6281 96.6692 46.564 101.414 48.5658 106.6C49.3813 108.7 49.9892 110.889 50.4489 113.093C50.5972 113.812 50.7158 114.547 50.8196 115.281C51.1606 110.669 51.2941 106.056 51.1903 101.429C51.0272 93.6871 50.2413 85.9896 48.9365 78.3803C48.9068 78.3949 48.8623 78.4096 48.8178 78.3949C42.427 77.6457 37 72.9156 34.9093 66.9515C34.3606 65.3944 34.0493 63.7638 33.9455 62.1332C33.6341 61.5897 33.2782 60.8258 34.0196 60.4879C34.0196 60.4879 34.0344 60.4879 34.0493 60.4879C34.1382 60.3851 34.3013 60.341 34.4496 60.4145C34.9389 60.4145 35.4431 60.7524 35.8434 60.9874C36.481 61.3547 37.1186 61.7513 37.7266 62.1773C40.2177 63.896 42.427 66.026 44.236 68.4352C45.7188 70.4036 46.9643 72.5777 47.8837 74.884C47.7206 74.0467 47.5723 73.1947 47.3944 72.3574C46.994 70.3155 46.5492 68.2883 46.1043 66.2611C45.4222 63.1615 44.666 60.0766 43.8653 57.0064C40.6032 55.1114 36.8221 54.4063 33.1299 53.8334C29.3785 53.2458 25.6567 52.6582 22.0831 51.3655C15.2475 48.8976 8.94562 44.3731 4.70484 38.4825C2.21376 35.0303 0.389928 30.7703 1.22029 26.4661C1.29443 26.1136 1.63547 25.9226 1.97652 26.0401C8.57493 28.4786 14.9806 31.4313 21.0155 35.045C26.9912 38.6147 32.6554 42.816 37.519 47.7811C39.5356 49.8377 41.478 52.0118 43.1832 54.3475C43.1684 54.2741 43.1536 54.2007 43.1239 54.1419C42.0415 50.1756 40.8553 46.2387 39.5652 42.3312C39.239 41.347 38.898 40.3627 38.5421 39.3785C38.468 39.2904 38.4087 39.1729 38.4235 39.0407C37.6524 36.94 36.7776 34.8687 35.7396 32.8856C34.8648 31.211 33.8417 29.595 32.6554 28.126C32.0771 27.4062 31.4544 26.7012 30.7871 26.0548C30.6537 25.9226 30.5054 25.8051 30.3571 25.6729C30.3275 25.8197 30.1792 25.9372 30.0457 25.9666C29.8826 26.0107 29.7047 25.952 29.5861 25.8198C29.4526 25.8198 29.334 25.761 29.245 25.6581C29.1116 25.5259 28.9929 25.3937 28.8595 25.2468C28.8595 25.2468 28.8447 25.2468 28.8298 25.2321C28.7705 25.1734 28.7112 25.1146 28.6519 25.0559C28.6222 25.0265 28.5926 24.9824 28.5629 24.9531C28.2071 24.9531 27.8364 24.9531 27.4805 24.9531C26.7243 24.9531 25.968 24.9531 25.2118 24.9531C23.6401 24.9237 22.0683 24.8796 20.4966 24.7914C17.4272 24.6299 14.343 24.3361 11.3181 23.8219C9.85013 23.5722 8.397 23.2931 6.95869 22.9111C5.7428 22.588 4.54174 22.1619 3.45931 21.5156C1.99134 20.6342 0.968224 19.2974 0.567871 17.7256C0.493731 17.6522 0.478902 17.5346 0.508558 17.4465C0.434418 17.0499 0.375101 16.6385 0.375101 16.1978C0.375101 15.0814 0.671661 13.965 1.23512 12.9808C1.51685 12.496 1.84307 12.0406 2.24342 11.644C2.68826 11.2033 3.14792 10.9829 3.71138 10.7479C3.75586 10.7332 3.78552 10.7185 3.83 10.7185C3.23689 9.27892 2.9255 7.64835 3.38516 6.17936C3.66689 5.23921 4.34898 4.47531 5.29796 4.18151C6.36557 3.85833 7.53698 4.10806 8.56011 4.46062C12.7416 5.91492 16.4189 8.57379 19.5624 11.6146C21.6235 13.6124 23.5066 15.8012 25.286 18.0488C24.1887 16.4035 23.0173 14.8023 21.7866 13.2452C20.4076 11.5265 18.9545 9.88118 17.4124 8.29467C15.9889 6.84036 13.9426 5.342 13.9278 3.10913C13.9278 1.09661 15.7813 0.0830428 17.6051 0.0683528C19.5624 0.0683528 21.4604 0.920362 23.0173 2.0368C23.1952 2.169 23.3583 2.3159 23.5363 2.44811C23.5659 2.38935 23.5956 2.31591 23.6549 2.27184C25.2415 0.993817 27.3619 -0.489867 29.5267 0.156489C31.3654 0.700015 32.1809 2.5656 32.522 4.29901C32.7296 5.38606 32.8037 6.50253 32.863 7.58958C32.9372 8.8676 32.952 10.1603 32.9075 11.4383C32.8334 13.9944 32.5665 16.5504 32.0623 19.0477C31.7509 20.6048 31.2468 22.2795 30.2237 23.5134C30.2978 23.5869 30.3571 23.6603 30.3719 23.7778C30.3719 23.866 30.3719 23.9541 30.3719 24.0276C30.3719 24.1745 30.3719 24.336 30.3719 24.4976C31.2468 25.2174 32.0327 26.0842 32.7592 26.9068C33.8713 28.1995 34.85 29.6097 35.71 31.0787C36.4662 32.3714 37.1335 33.7082 37.7414 35.0597C37.5486 33.7963 37.4448 32.5183 37.3855 31.255C37.2521 28.5814 37.3855 25.8932 37.8007 23.2343C38.6162 17.9606 40.4549 12.8633 43.2129 8.28001C44.7698 5.67989 46.6085 3.27073 48.7289 1.09662C49.0996 0.729372 49.6482 0.964425 49.6334 1.47857C49.4554 6.56128 48.5954 11.6146 47.3202 16.5357C46.045 21.5009 44.3695 26.3486 42.5456 31.1375C41.5225 33.8258 40.4549 36.4993 39.3873 39.1875C39.5356 39.6135 39.6987 40.0396 39.847 40.4656C41.6115 45.5924 43.1684 50.8073 44.5177 56.0663C44.5771 56.0957 44.6364 56.125 44.6957 56.1544C44.9033 56.2866 44.9329 56.5657 44.844 56.7861C44.9329 56.9183 44.8884 57.0652 44.7846 57.1533C44.9922 57.9906 45.1998 58.8427 45.4074 59.6947C45.3333 58.5048 45.3481 57.3149 45.4667 56.1397C45.6595 54.3769 46.0302 52.6435 46.5195 50.9248C47.513 47.4433 48.9958 44.1234 50.6268 40.8916C52.2579 37.6598 54.0373 34.5162 55.6387 31.2697C55.8907 30.7702 56.1132 30.2561 56.3504 29.7566C56.2466 29.3013 56.1725 28.8312 56.1132 28.3758C55.9945 27.5238 55.9352 26.6718 55.9204 25.8051C55.9056 24.101 56.0835 22.397 56.469 20.737C57.0918 18.1075 58.2632 14.8758 60.9915 13.7447C61.7774 13.4215 62.6374 13.3186 63.4826 13.4361C64.224 13.539 65.262 13.8034 65.6475 14.4938C65.7661 14.7142 65.5289 14.9786 65.3065 14.9345C64.9802 14.8758 64.743 14.7142 64.4464 14.5673C64.1054 14.4204 63.7495 14.3176 63.3788 14.2588C62.7264 14.1707 62.0591 14.2294 61.4364 14.4644C60.2501 14.9198 59.3753 15.8894 58.7525 16.947C57.2846 19.459 56.7211 22.588 56.6618 25.4525C56.647 26.3192 56.6914 27.2006 56.7952 28.0673C56.8101 28.2583 56.8397 28.4492 56.8842 28.6402C57.2401 27.8469 57.5811 27.0537 57.8925 26.2457C58.5301 24.6152 59.0194 22.9405 59.6274 21.3099C60.265 19.5912 61.0953 17.9166 62.4595 16.6386C63.7199 15.4487 65.3509 14.6995 67.1006 14.7876C67.3675 14.7876 67.5158 15.0814 67.501 15.3164C67.071 20.502 64.5799 25.4378 60.7395 28.9928C59.657 30.0064 58.456 30.8878 57.1808 31.6369C56.9435 31.7838 56.6914 31.681 56.5432 31.5195C53.5628 37.5717 49.9003 43.3448 47.7799 49.779C46.5343 53.5102 45.8523 57.4912 46.045 61.4281C46.045 61.5456 45.9709 61.619 45.8819 61.6484C46.0895 62.5445 46.2971 63.4406 46.4899 64.3367C46.7716 65.6735 47.0533 67.0102 47.3054 68.347C47.3499 68.3617 47.3944 68.4058 47.4092 68.4646C47.6909 69.4635 47.943 70.4771 48.1951 71.4907C48.1654 65.4825 49.6482 59.4009 52.2727 54.0391C53.0438 52.4672 53.9483 50.9542 54.9418 49.5146C55.0011 49.3677 55.0456 49.2208 55.1049 49.0739C55.1642 48.927 55.2828 48.8535 55.4014 48.8388C55.4014 48.8388 55.4014 48.8389 55.4162 48.8242C55.5645 48.6185 55.8314 48.8094 55.7869 49.0151C55.8463 49.0885 55.8907 49.1914 55.8759 49.2942C55.3569 56.1691 54.7935 63.1909 52.3024 69.6985C51.6055 71.5054 50.7603 73.2388 49.7372 74.8987C49.6185 75.0897 49.4406 75.1044 49.2923 75.031C49.2923 75.1044 49.2923 75.1631 49.2923 75.2366C49.2923 75.3982 49.233 75.5157 49.1441 75.5892C49.322 76.4118 49.4703 77.2491 49.6334 78.0717C49.7075 78.1599 49.7223 78.248 49.6779 78.3362C50.8937 84.7263 51.65 91.2045 51.9613 97.6975C52.4507 107.584 51.9169 117.529 50.4044 127.298C50.2858 128.047 50.1523 128.781 50.0337 129.53C50.4637 128.282 50.9086 127.048 51.3831 125.814C52.7472 122.332 54.319 118.924 56.0835 115.619C56.4542 114.929 56.8397 114.238 57.2252 113.563C56.7952 111.359 56.558 109.112 56.3949 106.893C56.2021 104.293 56.1428 101.678 56.1873 99.0783C56.2763 93.8193 56.8397 88.5604 57.8628 83.3895C58.4411 80.4956 59.1529 77.6457 60.0129 74.8106C60.1167 74.4727 60.6653 74.5021 60.7691 74.8106C62.326 79.5407 63.1564 84.4912 63.2306 89.4711C63.3047 94.451 62.6374 99.4162 61.2436 104.19C60.5022 106.717 59.5532 109.17 58.3967 111.535C59.5236 109.67 60.695 107.819 61.9405 106.027C63.9868 103.074 66.1516 100.107 68.7169 97.5653C71.2673 95.0239 74.4701 92.6882 78.1919 92.5119C78.1029 92.4385 78.0584 92.3357 78.0584 92.2035C78.0584 92.2035 78.0584 92.2034 78.0584 92.1888C77.9843 92.0125 78.0288 91.8509 78.1178 91.7334C78.1474 91.5424 78.1771 91.3514 78.2067 91.1604C78.0733 90.2056 78.1326 89.2067 78.2957 88.2812C78.8888 84.7997 80.2678 81.3623 82.0471 78.3068C82.492 77.5429 82.9813 76.779 83.4855 76.0592C83.9155 75.4422 84.4048 74.6196 85.1907 74.3993C86.0062 74.1642 86.6141 74.7224 86.9997 75.3688C87.4593 76.1474 87.8004 77.0141 88.0821 77.8661C88.2304 78.3215 88.349 78.7916 88.4676 79.2617C89.3276 78.5565 90.2915 77.9542 91.3887 77.9249C92.6787 77.8955 93.8057 78.6153 94.6064 79.5848C94.6509 79.5848 94.7102 79.5848 94.7547 79.6289C95.1995 79.8933 95.4812 80.4221 95.7185 80.8775C95.9409 81.3329 96.104 81.803 96.2374 82.3024C96.5043 83.316 96.5933 84.3443 96.5192 85.3873C96.445 86.4156 96.193 87.4292 95.763 88.3694C95.3478 89.2801 94.7695 90.2497 93.9243 90.8373C93.8205 90.9107 93.7167 90.896 93.6426 90.852C93.5388 90.9548 93.435 91.0576 93.3163 91.1458C94.9029 91.7334 96.3561 92.9086 97.2606 94.2894C97.7647 95.0533 98.1502 96.0081 97.9427 96.9483C97.7499 97.8003 97.0975 98.4173 96.2968 98.7111C95.4516 99.0196 94.5322 99.0049 93.6426 98.9902C93.4943 98.9902 93.3312 98.9755 93.1829 98.9608C93.1829 98.9608 93.1829 98.9608 93.1829 98.9755C93.2867 100.224 92.1894 101.179 91.0477 101.458C89.5797 101.811 88.0524 101.164 86.7328 100.562C84.3306 99.4603 82.0768 97.9472 80.3419 95.9494C79.7637 95.2736 79.2595 94.5538 78.8295 93.7752C78.7109 93.7752 78.5774 93.7899 78.4588 93.7752C78.2364 93.7752 78.1178 93.5843 78.1178 93.3933C75.0484 93.9075 72.3942 95.5528 70.1403 97.6681C67.5751 100.077 65.4399 102.956 63.4233 105.806C61.5253 108.48 59.7756 111.256 58.1594 114.106C62.2816 112.813 66.6261 112.182 70.9411 111.976C75.4636 111.756 80.0157 112.064 84.4641 112.872C85.6058 113.078 86.7476 113.313 87.8597 113.592C88.5714 113.768 89.4759 114.121 89.6094 114.943C89.7577 115.839 88.9421 116.383 88.1859 116.618C87.1331 116.971 86.0507 117.235 84.9682 117.499C80.5347 118.601 75.9825 119.262 71.4304 119.424C66.3148 119.615 61.1843 119.218 56.1576 118.234C56.0983 118.234 56.039 118.19 55.9945 118.161C54.8676 120.393 53.8297 122.67 52.8807 124.977C52.0948 126.901 51.3831 128.84 50.7158 130.809C50.3896 131.778 50.0782 132.762 49.7817 133.732C49.4851 134.731 49.2478 135.759 48.8623 136.729C48.803 136.875 48.6992 136.949 48.5806 136.964C47.2609 142.825 45.5854 148.613 43.5391 154.268C42.7236 156.516 41.8636 158.734 40.9442 160.938C41.0332 160.835 41.137 160.747 41.226 160.644C41.8042 159.733 42.4122 158.837 43.0498 157.97C44.8291 155.517 46.8161 153.211 48.9661 151.066C53.2662 146.776 58.2335 143.075 63.6606 140.283C66.5223 138.815 69.4879 137.566 72.5425 136.567C72.5573 136.508 72.5869 136.449 72.6166 136.376C72.7056 136.112 73.0763 136.156 73.1949 136.347C73.3728 136.303 73.4914 136.567 73.2987 136.626C73.269 136.626 73.2394 136.655 73.1949 136.655C73.1504 136.831 73.0911 137.008 73.0466 137.184C73.1949 137.125 73.3283 137.331 73.1949 137.434C73.1059 137.492 73.017 137.537 72.928 137.595C71.979 140.754 69.9031 143.515 67.5306 145.792C64.7875 148.436 61.5402 150.508 58.2187 152.329C54.66 154.283 50.9827 156.031 47.5426 158.191C44.6512 159.997 42.0118 162.127 39.8618 164.742C39.5801 165.227 39.2835 165.712 38.9425 166.182C38.8683 166.285 38.7793 166.314 38.6904 166.314C38.5421 166.564 38.3938 166.799 38.2159 167.034C36.8072 170.031 35.2948 172.969 33.6934 175.862C33.2634 176.876 32.8334 177.89 32.4034 178.903C32.2996 179.138 32.0475 179.109 31.9289 178.962C29.853 182.488 27.6436 185.984 25.286 189.362C25.3601 189.304 25.4343 189.245 25.5084 189.186C27.4805 187.188 29.5564 185.293 31.7954 183.575C36.4514 180.005 41.8932 177.214 47.7799 176.421C49.1292 176.244 50.5972 176.083 51.9613 176.244C52.9696 176.362 54.1855 176.803 54.5117 177.86C54.9418 179.212 53.711 180.211 52.7027 180.886C51.4869 181.709 50.1968 182.414 48.8772 183.046C43.5984 185.543 37.8155 186.66 32.3144 188.555C28.6667 189.818 25.0635 191.463 22.0831 193.902C21.7866 194.21 21.49 194.533 21.1935 194.842C19.7255 196.707 18.1982 198.529 16.5968 200.277C16.5375 200.351 16.4634 200.424 16.4041 200.497C15.3809 201.878 14.2985 203.23 13.1568 204.537C11.4219 206.535 9.59806 208.445 7.71492 210.31C6.78076 211.25 5.81694 212.161 4.85313 213.072C3.88932 213.968 2.94033 214.908 1.9172 215.731C1.41305 216.128 0.864424 216.495 0.389932 216.935C0.152686 217.156 -0.143871 216.759 0.0785474 216.539L0.182342 216.642ZM24.8411 177.655C25.1822 174.864 25.286 172.028 25.2118 169.223C25.1377 166.446 24.856 163.655 24.1739 160.952C23.1211 156.795 20.9117 152.741 17.4124 150.14C19.7552 154.283 21.5345 158.763 22.6318 163.391C23.907 168.708 24.3815 174.232 23.9959 179.697C23.8625 181.533 23.6401 183.34 23.3139 185.146C24.0108 182.708 24.5298 180.211 24.8263 177.669L24.8411 177.655ZM23.477 172.587C23.0914 167.225 21.8459 161.922 19.859 156.927C18.7913 154.254 17.5013 151.683 16.0037 149.23C15.722 149.068 15.4254 148.921 15.1289 148.774C14.9509 155.282 17.1899 161.54 19.2955 167.621C21.1342 172.954 22.8987 178.433 23.0025 184.089C23.5511 180.284 23.7587 176.435 23.477 172.587ZM32.9372 81.8177C29.675 78.2333 25.5677 75.4717 21.0304 73.7529C18.8358 72.9156 16.5375 72.328 14.1947 72.0048C15.0547 72.3721 15.8554 72.8862 16.6561 73.371C17.5755 73.9292 18.5096 74.4874 19.4141 75.0603C21.2083 76.1914 22.9728 77.3519 24.7077 78.5565C28.1922 80.995 31.5433 83.6392 34.6424 86.5625C36.0065 87.8552 37.3114 89.192 38.5718 90.5876C37.2076 87.3705 35.3245 84.4031 32.952 81.803L32.9372 81.8177ZM25.2267 80.3046C23.3287 78.9385 21.3862 77.631 19.4141 76.3824C18.4207 75.7507 17.4272 75.1338 16.4337 74.5315C15.4847 73.9586 14.4913 73.4444 13.6312 72.7687C13.6312 72.9009 13.6609 73.0184 13.6906 73.1506C16.2261 76.5881 19.1324 79.7464 22.3649 82.5375C25.7456 85.4608 29.4378 88.0168 33.4117 90.0734C35.1465 90.9695 36.9407 91.7334 38.7349 92.4972C34.7906 87.8993 30.1495 83.8742 25.2267 80.3193V80.3046ZM39.6097 93.4961C39.5059 93.3639 39.4021 93.2464 39.2983 93.1289C37.4597 92.5119 35.6803 91.7187 33.9455 90.852C31.9437 89.8677 29.9864 88.7513 28.1033 87.5467C24.2777 85.1082 20.7783 82.2437 17.6496 78.9825C16.3596 77.6458 15.1585 76.2502 14.0168 74.7959C14.8471 78.1011 16.7154 81.1125 19.162 83.5804C22.7652 87.2235 27.4805 89.5005 32.2699 91.1899C34.7017 92.0419 37.1779 92.7764 39.6394 93.5255L39.6097 93.4961ZM47.7799 108.539C46.8606 106.702 45.6743 104.984 44.2805 103.471C41.3446 100.283 37.43 98.05 33.1892 97.0658C31.5582 96.6839 29.8826 96.4929 28.2071 96.4929C31.4395 97.4037 34.5534 98.8874 37.4004 100.591C40.618 102.516 43.5688 104.881 46.1488 107.584C46.994 108.465 47.7947 109.391 48.5509 110.345C48.3137 109.728 48.0468 109.126 47.7651 108.539H47.7799ZM48.9958 111.521C44.755 106.085 39.1352 101.781 32.7592 99.0636C30.9947 98.2997 29.1709 97.7268 27.3322 97.1833C29.6899 99.4162 32.5071 101.106 35.3541 102.648C38.7645 104.484 42.3084 106.159 45.4371 108.45C46.7864 109.435 48.0023 110.566 49.0847 111.829C49.0551 111.726 49.0254 111.624 48.9958 111.521ZM5.17935 37.175C7.18111 40.1424 9.77599 42.7278 12.6229 44.9166C15.4402 47.0761 18.5689 48.8242 21.8904 50.1022C25.197 51.3802 28.6371 51.9972 32.1216 52.5554C29.2895 51.4096 26.5315 50.0728 23.8773 48.5451C18.1389 45.2251 12.8602 41.0679 8.33768 36.2349C7.07731 34.8834 5.86142 33.4732 4.71967 32.0189C4.15621 31.2991 3.60758 30.5646 3.07378 29.8154C2.77722 29.3894 2.46584 28.9781 2.18411 28.5374C2.16928 31.6222 3.45931 34.6337 5.17935 37.1897V37.175ZM37.7266 49.353C35.3096 46.8998 32.7444 44.5934 30.0309 42.4634C24.5891 38.1886 18.6282 34.619 12.4005 31.6076C9.68702 30.3002 6.91421 29.1103 4.09691 28.0085C4.88278 28.8459 5.66866 29.6832 6.52868 30.4618C7.71491 31.5488 8.96045 32.5477 10.2653 33.5026C12.9195 35.471 15.7368 37.1897 18.6134 38.8056C24.337 42.0374 30.3423 44.9019 35.7396 48.6773C37.4448 49.8671 39.0907 51.1304 40.6328 52.5113C39.6987 51.4242 38.7349 50.3666 37.7414 49.353H37.7266ZM27.7177 44.5494C21.9497 41.3911 16.0037 38.4824 10.6212 34.7071C9.12356 33.6495 7.67043 32.533 6.30626 31.3138C4.94209 30.1092 3.57793 28.8312 2.46584 27.3915C2.46584 27.3915 2.45101 27.3915 2.43618 27.3915C2.85136 27.9498 3.23689 28.5521 3.63724 29.125C4.09691 29.7713 4.55657 30.4177 5.04589 31.064C6.02453 32.3714 7.06249 33.6348 8.14493 34.854C10.3098 37.3073 12.6674 39.6135 15.1882 41.7142C20.2 45.8861 25.8494 49.3089 31.8844 51.8356C32.9223 52.2616 33.9603 52.6729 35.0279 53.0548C37.7414 53.5396 40.4401 54.1566 42.946 55.3024C38.5569 50.866 33.2041 47.5608 27.7474 44.5788L27.7177 44.5494ZM1.87272 18.5189C2.33239 19.4737 3.16275 20.2376 4.08207 20.7811C5.07554 21.3834 6.20247 21.7506 7.32939 22.0444C8.67873 22.397 10.0577 22.6761 11.4367 22.9111C14.3281 23.4106 17.2492 23.6897 20.1703 23.8954C21.8162 24.0129 23.4473 24.0863 25.0932 24.1598C25.9087 24.2039 26.7243 24.2479 27.5546 24.2773C27.8512 24.2773 28.1477 24.3067 28.4443 24.3214C27.7919 24.2773 27.1395 24.2039 26.487 24.1157C23.3435 24.1598 20.1703 23.7485 17.101 23.205C13.483 22.5733 9.93909 21.6038 6.51385 20.311C4.92726 19.7088 3.35551 19.033 1.81341 18.2985C1.84306 18.372 1.87272 18.4601 1.90237 18.5335L1.87272 18.5189ZM3.0293 12.2316C2.71791 12.5401 2.43618 12.8926 2.19894 13.2746C1.72444 14.0678 1.44271 14.9639 1.3834 15.8894C1.33891 16.4476 1.39822 17.0205 1.53167 17.5787C7.84836 20.8105 14.9064 22.8965 21.9942 23.4694C22.4835 23.5134 22.9728 23.5281 23.4621 23.5575C22.8542 23.4106 22.2463 23.2637 21.6383 23.0874C19.2065 22.397 16.8489 21.5009 14.5802 20.3845C10.6657 18.4601 6.61765 15.8747 4.4676 11.9671C4.34898 11.7468 4.23036 11.5118 4.11174 11.2767C4.11174 11.2767 4.0969 11.3061 4.08207 11.3061C3.68172 11.5559 3.35551 11.9231 3.01446 12.2316H3.0293ZM4.66036 10.7773C6.35074 14.6554 10.1319 17.2702 13.7499 19.2093C15.8554 20.3257 18.05 21.2659 20.3186 22.0151C22.6021 22.7643 24.9598 23.2784 27.3322 23.7044C24.159 22.5733 21.06 21.0896 18.2131 19.3268C16.4485 18.2397 14.6989 17.1527 13.0085 15.9628C11.3626 14.7876 9.82047 13.4802 8.32285 12.1141C7.47766 11.3502 6.67696 10.5569 5.86143 9.76366C5.17935 9.10261 4.51209 8.42688 3.88932 7.70708C3.91897 8.79413 4.28966 9.93994 4.66036 10.7773ZM4.73451 5.34202C4.31932 5.73865 4.08208 6.23811 3.97828 6.76695C3.99311 6.76695 4.02276 6.79633 4.03759 6.81101C5.41659 8.32408 6.69179 9.8812 8.17458 11.3061C9.62771 12.7017 11.1846 14.0091 12.7861 15.243C13.5868 15.86 14.3875 16.4623 15.2178 17.0499C16.0334 17.6228 16.8341 18.2397 17.7089 18.7245C19.4734 19.7087 21.2528 20.6636 23.0914 21.5303C24.6928 22.2795 26.3387 22.9405 27.9846 23.5428C27.4657 23.1315 26.9615 22.6761 26.4574 22.2648C25.6863 21.6184 24.9153 20.9868 24.1442 20.3404C22.6466 19.0918 21.149 17.8284 19.6365 16.5798C16.6117 14.0678 13.5423 11.5999 10.5174 9.08793C8.82701 7.69239 7.15145 6.29686 5.46107 4.916C5.209 5.00414 4.97176 5.15106 4.74934 5.34202H4.73451ZM24.7818 18.6364C23.4621 16.9617 22.098 15.3311 20.63 13.774C17.7682 10.7332 14.5061 7.9862 10.725 6.16466C9.77599 5.70927 8.79735 5.28323 7.78905 4.98944C7.32938 4.85723 6.82524 4.75441 6.32109 4.7691C9.15322 7.19293 12.0447 9.58738 14.8768 12.0112C17.872 14.5673 20.8969 17.094 23.907 19.6206C24.7522 20.3257 25.5974 21.0455 26.4574 21.7506C27.095 22.2795 27.7622 22.8083 28.385 23.3665C27.7919 22.6614 27.2729 21.9122 26.7243 21.1777C26.0867 20.3257 25.4342 19.4737 24.7818 18.6364ZM15.3365 1.69891C15.0547 1.99271 14.8471 2.37467 14.8026 2.87413C14.6989 3.91711 15.2771 4.85726 15.9444 5.62114C16.6116 6.3997 17.3975 7.09013 18.1093 7.82462C19.5476 9.3083 20.9117 10.8654 22.2018 12.4666C23.6401 14.2588 24.9598 16.1244 26.1905 18.0488C27.1395 19.5472 28.0588 21.0749 28.8447 22.6761C28.6222 22.0444 28.4147 21.4128 28.1774 20.7958C27.8957 20.0466 27.5991 19.2974 27.2877 18.5482C26.6353 17.0058 25.8791 15.5074 25.0487 14.0384C23.4028 11.1298 21.5049 8.35347 19.3103 5.81211C18.0796 4.38719 16.7748 3.03572 15.3809 1.77239C15.3513 1.74301 15.3364 1.72829 15.3216 1.69891H15.3365ZM18.6875 0.964416C17.8424 0.817517 16.7748 0.86159 15.9741 1.24353C20.9562 5.88554 24.8856 11.4971 27.5398 17.755C27.9105 18.607 28.2367 19.4884 28.5629 20.3551C28.6074 20.4873 28.6519 20.6195 28.6964 20.737C28.474 18.5482 28.0884 16.3888 27.4508 14.2588C26.5167 11.1739 25.1377 8.22125 23.3435 5.533C22.3352 4.00525 21.1638 2.63907 19.9331 1.2876C19.5179 1.1407 19.1027 1.03787 18.6727 0.964416H18.6875ZM31.2171 19.3562C31.6916 17.2114 31.9585 15.008 32.092 12.8192C32.2254 10.4688 32.1958 8.10373 31.9585 5.75334C31.8102 4.2109 31.4989 2.30118 30.1347 1.31696C29.764 1.05254 29.3636 0.890972 28.9633 0.832212C30.4016 3.25605 31.232 6.1059 31.6323 8.8823C32.0623 11.8643 31.9733 14.9198 31.3951 17.8725C31.3209 18.2545 31.232 18.6217 31.143 18.9889C31.143 18.9889 31.143 19.0036 31.143 19.0183C31.143 19.1946 31.143 19.3709 31.1282 19.5471C31.1578 19.4884 31.1875 19.4149 31.2171 19.3562ZM31.4099 13.965C31.6175 10.9976 31.2468 7.98619 30.3719 5.13634C29.9123 3.63797 29.2747 2.22777 28.6074 0.802848C27.0208 0.758779 25.3601 2.00742 24.2184 2.9182C24.2184 2.9182 24.2035 2.9182 24.1887 2.9182C26.9467 5.31265 28.9336 8.67663 30.0457 12.0847C30.5499 13.6124 30.8761 15.1989 31.0392 16.8001C31.2171 15.8453 31.3506 14.8905 31.4099 13.9356V13.965ZM30.3275 19.65C30.3275 19.5618 30.3275 19.4737 30.3275 19.3856C30.3868 17.4171 30.1347 15.434 29.6157 13.539C28.6222 9.79305 26.576 6.14994 23.6401 3.56451C22.958 2.96223 22.2314 2.41872 21.4307 1.97802C23.2545 4.09337 24.7818 6.53191 25.9829 9.0145C27.4064 11.9525 28.4147 15.1255 28.904 18.3573C29.1116 19.7087 29.2154 21.0602 29.2154 22.4117C29.245 22.5145 29.2598 22.6173 29.2895 22.7202C29.3192 22.6761 29.3488 22.6467 29.3636 22.6027C29.3488 22.5733 29.334 22.5292 29.3488 22.4851C29.5119 21.78 29.8085 21.119 30.0457 20.4285C30.1347 20.1788 30.2088 19.9144 30.2978 19.6647L30.3275 19.65ZM43.9395 24.6152C45.5854 19.7969 46.9643 14.8905 47.8244 9.8812C48.1209 8.1331 48.3433 6.37032 48.4916 4.60753C47.7651 6.3997 47.0237 8.16248 46.3416 9.96934C45.4816 12.2463 44.6957 14.5379 43.9839 16.8589C42.5456 21.545 41.4335 26.3192 40.618 31.1522C40.3956 32.4743 40.188 33.7964 40.0101 35.1185C41.3891 31.6369 42.7384 28.1554 43.9395 24.6005V24.6152ZM39.7283 31.9014C40.1583 29.4922 40.6625 27.0831 41.2408 24.7033C42.3974 19.9585 43.806 15.2724 45.4964 10.7038C46.4157 8.22124 47.3795 5.72394 48.5806 3.34417C48.5806 3.18258 48.6102 3.00631 48.6102 2.84472C45.4222 6.39968 42.9015 10.5128 41.1666 14.9492C39.2687 19.8262 38.2752 25.0706 38.3197 30.3002C38.3197 31.7545 38.4383 33.1941 38.5866 34.6337C38.6756 35.4123 38.7942 36.1761 38.9128 36.94C38.9869 36.4552 39.0611 35.9705 39.1352 35.5004C39.3132 34.2958 39.4911 33.1059 39.7135 31.9014H39.7283ZM65.8254 19.4149C66.1961 18.2397 66.4334 17.0205 66.5668 15.8012C66.5372 15.8012 66.5075 15.8012 66.4779 15.8012C66.2703 16.7267 65.8847 17.6375 65.5585 18.5042C65.1137 19.65 64.6244 20.7664 64.0757 21.8682C62.9933 24.0423 61.7033 26.1135 60.2798 28.082C60.1315 28.2876 59.9684 28.508 59.8201 28.7137C62.6226 26.2311 64.7282 22.9993 65.8403 19.4296L65.8254 19.4149ZM57.2104 30.6527C57.3142 30.5939 57.4032 30.5205 57.507 30.4471C58.1594 29.6979 58.8267 28.9781 59.4494 28.1848C60.1908 27.23 60.8877 26.2604 61.5402 25.2321C62.845 23.1755 63.9423 21.0161 64.8764 18.7686C65.1285 18.1663 65.3658 17.5493 65.5882 16.9323C65.7216 16.5798 65.8403 16.1979 65.9589 15.8453C63.2899 16.3154 61.555 19.0771 60.6505 21.4274C60.0277 23.0286 59.5681 24.6886 58.9453 26.2898C58.4115 27.6707 57.8184 29.0222 57.1808 30.3589C57.1808 30.4471 57.1956 30.5499 57.2104 30.638V30.6527ZM54.66 55.0967C54.7638 54.0831 54.8528 53.0695 54.9269 52.0706C52.7176 58.0935 51.0569 64.322 49.9892 70.6386C49.8113 71.7257 49.6334 72.8275 49.4703 73.9145C52.8214 68.2148 54.0076 61.5897 54.66 55.0967ZM50.182 65.7029C50.9234 62.1185 51.8872 58.5635 53.029 55.082C53.3403 54.1419 53.6666 53.2018 54.0076 52.2616C51.1903 57.5206 49.5444 63.3671 49.233 69.3019C49.2034 69.9335 49.1885 70.5505 49.1885 71.1822C49.4554 69.346 49.8113 67.5097 50.182 65.7029ZM44.1026 76.2355C45.3481 76.8672 46.6826 77.3666 48.032 77.7339C48.032 77.7192 48.032 77.6898 48.0171 77.6751C45.7188 76.0886 43.6281 74.2083 41.7004 72.2105C39.3873 69.8307 37.2817 67.2306 35.4431 64.4689C35.28 64.2192 35.1317 63.9694 34.9834 63.7344C35.8286 69.0522 39.2094 73.7676 44.1174 76.2502L44.1026 76.2355ZM38.898 64.0135C37.9193 63.2203 36.8814 62.5004 35.7989 61.8688C35.8138 61.8981 35.8434 61.9275 35.8583 61.9569C36.2883 62.4857 36.7183 63.0293 37.1631 63.5581C38.038 64.6158 38.9128 65.6735 39.8025 66.7165C41.5818 68.8024 43.376 70.8884 45.2147 72.9156C45.8078 73.5766 46.4009 74.2377 46.994 74.8987C45.2295 70.6827 42.516 66.9368 38.898 64.0282V64.0135ZM47.4388 76.0152C45.704 74.3111 44.0284 72.519 42.3974 70.7121C40.5439 68.6555 38.72 66.5695 36.9259 64.4542C36.4365 63.8666 35.9472 63.2937 35.4727 62.7061C35.2503 62.4417 35.0279 62.1626 34.8055 61.8982C34.8203 61.9276 34.85 61.9716 34.8648 62.001C35.2651 62.6621 35.6803 63.3231 36.1103 63.9695C37.8155 66.5402 39.7432 68.964 41.8784 71.1969C43.6577 73.0772 45.6002 74.7812 47.5871 76.4412C47.5426 76.309 47.4833 76.1768 47.4388 76.0446V76.0152ZM83.9155 85.593C83.7079 85.8133 83.5003 86.0337 83.2927 86.254C82.7737 86.9298 82.2696 87.6202 81.7951 88.3253C82.5068 87.532 83.2186 86.7388 83.9155 85.9308C84.301 85.4755 84.6865 85.0054 85.072 84.55C84.6717 84.8879 84.2713 85.2258 83.9006 85.593H83.9155ZM82.7885 85.2845C82.9072 85.167 83.0258 85.0495 83.1444 84.9319C83.2927 84.7557 83.4261 84.5794 83.5744 84.4031C84.7013 83.0517 85.9172 81.7736 87.2073 80.569C87.3407 80.2165 87.4445 79.8492 87.5631 79.4967C87.5631 79.4673 87.6076 79.4526 87.6224 79.4232C87.5631 79.1882 87.5186 78.9531 87.4445 78.7181C84.0044 81.2594 81.3206 84.7409 79.8674 88.766C79.7192 89.1626 79.6005 89.5593 79.4968 89.9559C80.3419 88.2519 81.454 86.68 82.7589 85.2992L82.7885 85.2845ZM86.3917 75.9711C86.2583 75.7214 86.0507 75.3394 85.7245 75.2954C85.3834 75.2513 85.0869 75.5891 84.9089 75.8242C84.4048 76.4412 83.9748 77.1169 83.5448 77.7927C81.8099 80.5103 80.505 83.507 79.6895 86.6213C79.6005 86.9591 79.5116 87.3117 79.4226 87.7084C79.6895 87.0767 80.0009 86.445 80.3123 85.8574C81.3799 83.8743 82.7589 82.0674 84.39 80.5103C85.2945 79.6436 86.2879 78.9531 87.3407 78.3068C87.0886 77.5135 86.7772 76.735 86.3769 76.0005L86.3917 75.9711ZM90.9291 79.0266C90.2321 79.2323 89.639 79.6729 89.0904 80.143C89.1794 80.2018 89.2387 80.3193 89.1645 80.4515C88.69 81.377 88.0673 82.229 87.4445 83.081C88.1118 82.5228 88.7938 81.9646 89.4908 81.4357C90.5139 80.6572 91.5815 79.8639 92.7381 79.2617C92.1746 78.9825 91.5518 78.865 90.9291 79.0413V79.0266ZM93.2126 79.5261C92.2932 80.3193 91.2849 80.9951 90.3211 81.7295C89.2832 82.5228 88.2897 83.3601 87.3111 84.2268C86.1396 85.2551 85.0127 86.3422 83.9451 87.4733C83.2186 88.3253 82.4623 89.1626 81.6913 89.9853C81.2761 90.47 80.8757 90.9548 80.4902 91.469C80.2678 91.7481 80.0602 92.0271 79.8526 92.3063C79.7785 92.4091 79.7043 92.5119 79.6302 92.6001C79.6599 92.6441 79.6747 92.6882 79.7043 92.7176C79.9119 92.6735 80.1344 92.6441 80.3271 92.5854C80.9795 92.4238 81.632 92.2328 82.2696 92.0271C83.5299 91.6158 84.7607 91.1164 85.9321 90.5288C88.2897 89.3683 90.4842 87.8699 92.4118 86.1071C92.9605 85.6077 93.4943 85.0935 93.9984 84.5647C94.2505 84.3003 94.5026 84.0358 94.7547 83.7714C94.9178 83.5951 95.0809 83.4189 95.2736 83.272C95.0957 81.7883 94.4433 80.378 93.1977 79.4967L93.2126 79.5261ZM92.8715 91.6305C92.5305 91.8949 92.1746 92.1447 91.8039 92.365C90.4249 93.217 88.9273 93.8634 87.3704 94.2894C87.1035 94.3629 86.8366 94.4216 86.5697 94.4804C85.9914 94.642 85.3834 94.7889 84.7755 94.9064C85.0424 94.9945 85.3093 95.0974 85.5762 95.1855C86.8959 95.5821 88.2304 95.9053 89.5945 96.1256C90.9439 96.346 92.3081 96.4929 93.6722 96.5517C94.3395 96.581 95.0216 96.581 95.6888 96.581C96.193 96.581 96.7119 96.5223 97.2309 96.5517C97.2457 96.1697 97.1568 95.7731 96.9937 95.4058C96.2374 93.6724 94.5174 92.5119 92.8863 91.6305H92.8715ZM94.5767 98.1676C95.2885 98.1676 96.1336 98.0941 96.7119 97.624C96.8602 97.5065 96.964 97.3596 97.053 97.2127C96.6378 97.2714 96.2078 97.3008 95.7926 97.3155C95.0957 97.3449 94.3988 97.3449 93.7019 97.3155C92.2932 97.2714 90.8697 97.1393 89.4759 96.9189C88.0821 96.6986 86.7179 96.3754 85.3686 95.9787C84.6865 95.7731 84.0193 95.5528 83.352 95.3177C83.3223 95.3177 83.3075 95.303 83.2779 95.2883C83.4855 95.4058 83.693 95.5087 83.9006 95.6262C85.5614 96.4488 87.3259 97.0805 89.1201 97.5065C90.8846 97.9178 92.7529 98.1969 94.5619 98.1529L94.5767 98.1676ZM83.1148 97.2862C84.0341 98.0353 85.0276 98.6817 86.0655 99.2546C87.1628 99.8422 88.3638 100.474 89.5945 100.709C90.2915 100.841 91.018 100.841 91.6556 100.489C92.2191 100.18 92.6343 99.6512 92.7381 99.0196C92.7381 99.0049 92.7381 98.9902 92.7529 98.9755C92.0263 98.9314 91.3146 98.858 90.6028 98.7404C88.5418 98.4173 86.5103 97.8297 84.5975 97.0217C83.5151 96.5664 82.4623 96.0228 81.454 95.4352C81.2909 95.3324 81.1278 95.2296 80.9647 95.112C81.6023 95.9053 82.3289 96.6398 83.1296 97.2862H83.1148ZM80.7719 93.7459C80.9351 93.834 81.0833 93.9075 81.2613 93.9662H81.2909C81.4095 93.9662 81.5282 93.9809 81.6468 93.9956C81.6913 93.9663 81.7358 93.9369 81.7951 93.9369C82.0175 93.9075 82.2399 93.9662 82.4623 94.0397C83.3075 94.0691 84.1379 94.0397 84.9831 93.9222C85.0127 93.9222 85.0424 93.9221 85.072 93.9074C86.5252 93.599 87.9486 93.1583 89.2832 92.5413C91.878 91.3367 94.1319 89.3389 95.0067 86.5772C95.2588 85.7693 95.3923 84.8732 95.3626 83.9771C95.155 84.2856 94.8733 84.5794 94.6657 84.8438C94.2357 85.3579 93.776 85.8427 93.3015 86.3128C92.3525 87.2676 91.2998 88.1343 90.2173 88.9276C88.0228 90.5288 85.591 91.8215 83.0406 92.7323C82.3141 92.9967 81.5727 93.217 80.8313 93.4227C80.7126 93.4521 80.594 93.4815 80.4754 93.5255C80.5792 93.599 80.6978 93.6871 80.8164 93.7606L80.7719 93.7459ZM61.8516 97.8297C62.6078 93.0114 62.6671 88.0902 61.985 83.2573C61.7626 81.7295 61.466 80.2165 61.0953 78.7328C60.4132 87.1207 59.6422 95.494 58.9156 103.867C58.797 105.145 58.6932 106.409 58.5746 107.687C58.5153 108.348 58.456 109.009 58.3967 109.67C60.0425 105.88 61.1991 101.899 61.8516 97.8297ZM58.7377 97.8003C59.1974 93.2171 59.6422 88.6485 60.1019 84.0652C60.3243 81.8911 60.5615 79.7317 60.7988 77.5576C60.695 77.1904 60.606 76.8378 60.5022 76.4705C59.2122 81.0244 58.2632 85.6958 57.7146 90.3966C57.1066 95.5527 56.9435 100.738 57.1956 105.924C57.2697 107.261 57.3735 108.597 57.507 109.934C57.5663 109.347 57.6553 108.759 57.7146 108.171C57.8332 107.026 57.9518 105.88 58.0556 104.734C58.2929 102.413 58.5153 100.107 58.7525 97.7856L58.7377 97.8003ZM88.5714 115.487C88.5714 115.487 88.6307 115.502 88.6456 115.516C88.7494 115.414 88.8235 115.296 88.7938 115.149C88.7197 114.826 88.2452 114.679 87.9783 114.591C86.97 114.268 85.8727 114.091 84.82 113.9C80.594 113.107 76.2791 112.769 71.979 112.902C67.1748 113.048 62.4743 113.856 57.8035 114.929C57.4477 115.59 57.0918 116.251 56.7508 116.912C57.7442 116.706 58.7674 116.662 59.7905 116.589C60.8136 116.53 61.8516 116.486 62.8747 116.442C64.9654 116.354 67.0561 116.251 69.1321 116.163C73.2542 115.986 77.3764 115.825 81.5133 115.663C82.6996 115.619 83.8858 115.575 85.072 115.516C85.6355 115.487 86.2138 115.472 86.7772 115.458C87.3704 115.443 88.008 115.34 88.5714 115.487ZM82.1658 117.323C83.2037 117.118 84.2417 116.868 85.2796 116.618C85.7096 116.515 86.1396 116.412 86.5697 116.295C86.2286 116.295 85.8876 116.324 85.5465 116.339C84.4938 116.383 83.4261 116.427 82.3734 116.456C80.3123 116.53 78.2512 116.618 76.1901 116.692C72.0087 116.853 67.8272 117 63.6457 117.132C62.4595 117.176 61.2733 117.22 60.087 117.25C58.9305 117.264 57.7739 117.323 56.6173 117.162C56.6173 117.162 56.6173 117.162 56.6025 117.162C56.558 117.25 56.5135 117.338 56.469 117.411C64.9209 119.057 73.7139 119.042 82.1658 117.323ZM72.4683 137.081C67.0561 139.02 61.9702 141.767 57.3439 145.146C52.851 148.436 48.8327 152.329 45.3778 156.692C46.9792 155.164 48.5954 153.681 50.2858 152.241C54.749 148.451 59.5236 145.072 64.5206 142.017C65.8847 141.18 67.2786 140.372 68.6724 139.578C69.829 138.932 71.0004 138.227 72.2311 137.683C72.3052 137.478 72.3942 137.287 72.4683 137.081ZM45.3036 158.631C51.7834 154.151 59.4643 151.624 65.5585 146.556C67.1599 145.234 68.6427 143.736 69.8586 142.061C70.7038 140.901 71.3859 139.652 71.9493 138.344C71.1486 138.785 70.3183 139.196 69.5324 139.637C68.2424 140.357 66.9672 141.106 65.7216 141.87C63.2454 143.383 60.8433 145.014 58.5004 146.732C53.8148 150.17 49.3516 153.901 45.2147 157.97C44.1915 158.969 43.1981 159.997 42.2194 161.04C42.2194 161.04 42.2194 161.055 42.2046 161.07C43.1832 160.203 44.2064 159.38 45.3036 158.617V158.631ZM39.9063 155.473C39.7432 152.124 39.1204 148.804 38.1418 145.601C36.14 139.064 32.6554 133.071 28.7854 127.459C27.3026 125.3 25.7456 123.184 24.159 121.098C25.3749 125.814 27.525 130.25 29.853 134.525C32.5072 139.402 35.3245 144.176 37.5042 149.288C38.5273 151.698 39.4318 154.195 39.9359 156.766C39.9359 156.34 39.9359 155.914 39.9063 155.473ZM39.8914 158.499C39.8914 158.367 39.8914 158.235 39.8914 158.102C39.2835 155.385 38.4976 152.741 37.4448 150.17C36.4069 147.628 35.1169 145.19 33.7824 142.781C31.0985 137.918 28.1477 133.174 25.8346 128.12C24.5594 125.314 23.4918 122.421 22.8245 119.409C22.7207 119.277 22.6318 119.145 22.528 119.013C22.0683 126.167 24.9449 133.085 28.6667 139.094C30.6388 142.267 32.8927 145.234 35.0279 148.275C37.0445 151.139 38.9425 154.224 39.6987 157.676C39.758 157.955 39.8173 158.235 39.8618 158.528L39.8914 158.499ZM29.1857 188.907C34.2865 186.821 39.7283 185.734 44.9033 183.868C47.5723 182.899 50.1968 181.724 52.5248 180.108C53.0141 179.77 53.6517 179.329 53.7704 178.698C53.8593 178.228 53.5628 177.86 53.1772 177.64C52.1689 177.082 50.8196 177.214 49.7075 177.287C43.9839 177.655 38.5569 180.064 33.9306 183.31C32.8185 184.089 31.7658 184.911 30.7278 185.778C31.3654 185.396 32.003 185.014 32.6554 184.647C36.7183 182.399 41.0777 180.681 45.5854 179.52C46.8161 179.197 48.0616 178.918 49.3072 178.698C50.5824 178.463 51.8872 178.198 53.1921 178.228C53.37 178.228 53.3403 178.492 53.1921 178.521C52.08 178.8 50.9382 178.903 49.8113 179.124C48.6844 179.329 47.5723 179.579 46.4602 179.858C44.2508 180.416 42.0711 181.121 39.9656 181.973C35.7396 183.677 31.7361 185.91 28.0736 188.599C27.2432 189.216 26.4277 189.847 25.6418 190.508C25.5529 190.596 25.4787 190.67 25.3898 190.758C26.6205 190.082 27.8957 189.465 29.2005 188.936L29.1857 188.907Z" fill="#56887C"/>
</svg>
