<svg width="139" height="204" viewBox="0 0 139 204" fill="none" xmlns="http://www.w3.org/2000/svg">
<path d="M0.673965 199.939C2.62266 199.759 4.56586 199.486 6.49976 199.135C15.1317 197.619 23.5586 194.995 31.6126 191.493C31.6323 191.59 31.6661 191.69 31.7644 191.778C33.7536 193.546 35.9353 195.107 38.213 196.48C42.2428 198.918 46.626 200.718 51.1808 201.877C55.4802 202.968 59.9048 203.422 64.3222 203.278C64.6419 203.333 64.9578 203.403 65.2776 203.458C65.4516 203.489 65.4777 203.222 65.3179 203.194C65.4553 203.078 65.453 202.803 65.3019 202.686C63.3323 201.014 61.2641 199.484 59.0792 198.105C55.2206 195.652 51.0507 193.681 46.6885 192.314C42.8047 191.09 38.6685 190.241 34.5609 190.193C40.1046 187.605 45.4664 184.618 50.5499 181.25C53.3763 179.384 56.1302 177.391 58.8076 175.286C59.5793 177.4 60.3727 179.489 61.2305 181.565C62.8276 185.364 64.7324 189.093 67.3015 192.329C69.6299 195.272 72.5147 197.784 75.9103 199.411C76.2213 199.556 76.5758 199.254 76.5244 198.935C76.1543 196.685 75.5305 194.473 74.7125 192.362C73.2714 188.605 71.1741 185.083 68.5772 182.008C67.2717 180.468 65.8467 179.033 64.2947 177.733C63.6627 177.197 62.9986 176.668 62.323 176.182C65.0664 177.009 67.8392 177.782 70.6235 178.513C77.0328 180.185 83.5146 181.586 90.0405 182.709C96.5664 183.832 103.151 184.681 109.749 185.305C110.151 185.336 110.346 184.839 110.033 184.588C107.146 182.197 103.946 180.18 100.565 178.557C94.3529 175.581 87.5622 173.914 80.7135 173.314C73.8648 172.715 66.9488 173.104 60.1733 174.218C63.7665 171.306 67.203 168.184 70.4572 164.891C71.1647 164.577 71.8476 164.241 72.5551 163.927C73.6434 163.441 74.7419 162.973 75.8471 162.536C76.9163 162.121 77.9958 161.724 79.0961 161.363C79.0961 161.363 79.0961 161.363 79.1206 161.385C79.4606 161.704 79.8224 162 80.1984 162.299C83.1753 164.637 86.8202 166.072 90.5683 166.496C92.4282 166.705 94.3066 166.674 96.1647 166.379C97.1188 166.222 98.0599 166.002 98.9736 165.712C99.9375 165.406 100.879 164.957 101.569 164.196C102.198 163.495 102.558 162.493 102.321 161.56C102.088 160.673 101.441 159.966 100.665 159.514C99.7405 158.992 98.6962 158.804 97.6585 158.648C96.5602 158.491 95.4505 158.376 94.3397 158.323C89.9675 158.128 85.6125 158.776 81.4153 159.97C79.2737 160.586 77.1582 161.332 75.1012 162.199C73.9202 162.691 72.7316 163.212 71.5703 163.801C75.4211 159.814 78.9915 155.568 82.2595 151.089C82.4973 150.939 82.6635 150.602 82.8097 150.397C83.3173 149.694 83.8638 149.017 84.4451 148.379C84.7249 148.073 85.0188 147.77 85.2948 147.478C85.3553 147.479 85.4377 147.455 85.489 147.377C85.784 147.014 86.0648 146.647 86.3561 146.298C86.5284 146.222 86.7008 146.146 86.8732 146.07C89.6491 144.846 92.4759 143.773 95.3676 142.854C97.0805 142.306 98.832 141.784 100.582 141.383C100.58 141.444 100.594 141.509 100.607 141.573C100.843 142.338 101.046 143.11 101.264 143.885C102.725 149.387 104.089 155.702 108.928 159.318C111.07 160.914 113.851 161.827 116.524 161.384C118.99 160.976 121.106 159.377 122.362 157.242C123.644 155.069 124.074 152.499 123.519 150.031C122.923 147.431 121.432 145.109 119.421 143.365C114.865 139.429 108.395 139.007 102.726 140.02C99.548 140.588 96.4347 141.538 93.3941 142.615C91.3469 143.333 89.3193 144.147 87.3436 145.052C91.4405 139.636 95.6226 134.242 100.534 129.532C100.503 129.646 100.529 129.775 100.638 129.88C101.275 130.509 101.924 131.095 102.627 131.649C108.154 136.105 115.108 138.807 122.199 139.182C124.104 139.28 126.026 139.2 127.86 138.654C129.511 138.166 130.964 137.228 132.102 135.931C134.229 133.496 135.053 130.025 134.467 126.877C133.901 123.827 132.122 121.047 129.657 119.181C128.444 118.261 127.048 117.567 125.573 117.171C123.786 116.693 121.879 116.716 120.049 117.019C116.257 117.665 112.673 119.466 109.416 121.462C106.21 123.44 103.25 125.805 100.522 128.385C97.6303 131.119 94.9766 134.099 92.4883 137.201C91.2133 138.781 89.9732 140.402 88.7616 142.03C87.882 143.213 86.9986 144.41 86.1436 145.615C86.0896 145.647 86.0394 145.664 85.9854 145.695C91.4103 137.309 95.7208 128.258 98.7918 118.783C99.2503 118.036 99.6314 117.238 100.055 116.452C100.177 116.225 100.294 116.012 100.416 115.785C101.127 115.061 101.852 114.34 102.599 113.655C103.946 112.429 105.391 111.291 106.878 110.225C107.553 109.749 108.238 109.292 108.933 108.853C109.006 108.979 109.132 109.074 109.318 109.063C113.964 108.859 118.594 108.375 123.169 107.587C124.141 107.421 125.11 107.268 126.065 107.051C126.726 106.908 127.465 106.649 127.839 106.047C128.235 105.421 128.056 104.671 127.551 104.17C126.953 103.567 126.113 103.296 125.311 103.112C121.802 102.248 118.055 103.578 114.835 104.927C111.651 106.256 108.617 107.99 105.844 110.054C104.457 111.086 103.137 112.212 101.872 113.414C101.749 113.534 101.622 113.668 101.481 113.798C101.492 113.755 101.536 113.706 101.547 113.663C102.592 111.807 103.704 109.984 104.85 108.202C107.788 103.649 111.085 99.3458 114.677 95.3042C114.731 95.4409 114.948 95.4837 115.04 95.3101C115.136 95.1222 115.218 94.9305 115.3 94.7389C115.809 94.7685 116.342 94.6519 116.835 94.5705C117.425 94.4692 118.004 94.3498 118.591 94.2019C119.793 93.9139 120.986 93.5471 122.142 93.0938C126.196 91.5256 129.87 89.0472 132.887 85.9042C134.39 84.3236 135.725 82.5761 136.827 80.6746C137.389 79.7116 138.147 78.5873 138.088 77.4427C138.041 76.4842 137.107 75.4865 136.113 75.9065C135.923 75.9928 135.908 76.2177 135.995 76.3478C135.995 76.3478 135.973 76.3724 135.955 76.3829C135.725 76.5043 135.491 76.6399 135.26 76.7613C133.64 77.7002 132.1 78.7977 130.573 79.8989C129.025 81.0249 127.486 82.1688 125.99 83.3849C123.04 85.7678 120.227 88.3244 117.556 91.0262C117.078 91.5081 116.613 91.9939 116.145 92.4938C116.517 91.3883 116.818 90.2639 117.087 89.146C117.209 88.6906 117.303 88.2275 117.397 87.7644C117.613 87.6392 117.697 87.3261 117.514 87.1552C117.793 85.7194 117.996 84.2789 118.129 82.8193C118.289 80.9707 118.355 79.0813 118.227 77.2316C118.115 75.493 117.815 73.7192 117.002 72.1587C116.319 70.8469 115.097 69.4514 113.482 69.4613C111.868 69.4711 110.852 70.938 110.222 72.2644C108.783 75.3112 108.756 79.0418 110.271 82.0716C111.581 84.7264 113.983 86.7733 116.792 87.6939C116.633 88.4597 116.463 89.2075 116.275 89.9657C115.95 91.1756 115.555 92.3664 115.16 93.5573C115.033 93.6911 114.906 93.8248 114.793 93.9624C114.703 94.0146 114.642 94.0743 114.619 94.1597C114.457 94.2536 114.295 94.3475 114.147 94.4452C114.013 94.5467 113.993 94.6786 114.051 94.801C112.645 96.3617 111.291 97.9517 109.983 99.5997C107.618 102.582 105.418 105.684 103.402 108.897C102.376 110.513 101.413 112.178 100.479 113.85C100.302 114.168 100.136 114.505 99.959 114.824C101.091 110.825 102.029 106.759 102.717 102.657C103.505 98.0163 104.015 93.3322 104.258 88.6223C104.343 88.6451 104.433 88.593 104.446 88.4895C104.675 86.7814 104.703 85.0343 104.857 83.3214C105.016 81.5942 105.203 79.8747 105.447 78.1703C106.281 72.1083 107.541 66.0996 109.081 60.1812C109.081 60.1812 109.089 60.1527 109.093 60.1385C109.093 60.1385 109.107 60.1423 109.125 60.1319C110.066 59.5144 110.912 58.7954 111.693 57.9824C114.441 55.1031 115.975 51.1358 115.853 47.167C115.839 46.9345 115.563 46.83 115.376 46.9021C112.925 47.8777 111.501 50.2421 110.594 52.6077C110.146 53.7691 109.811 54.961 109.473 56.167C109.054 57.672 108.636 59.177 108.26 60.6934C107.866 62.2202 107.486 63.7508 107.135 65.289C106.608 64.0191 106.096 62.7529 105.688 61.4384C105.233 59.9587 104.893 58.4487 104.663 56.9226C104.815 56.9787 104.991 56.9493 105.072 56.7577C106.529 52.7391 106.618 48.3234 105.321 44.2536C105.247 44.0201 104.865 44.0247 104.786 44.2628C104.317 45.8456 104.017 47.474 103.849 49.1224C103.548 52.0623 103.659 55.0518 104.203 57.9588C104.721 60.7367 105.558 63.5698 106.983 66.0264C106.7 67.3084 106.417 68.5904 106.167 69.8658C105.567 72.9546 105.067 76.07 104.716 79.195C104.608 80.1117 104.527 81.036 104.447 81.9603C104.419 72.0213 103.208 62.0705 100.819 52.4296C100.746 52.1354 100.669 51.8554 100.596 51.5612C100.488 49.9763 100.474 48.3857 100.562 46.8075C100.596 46.2828 100.63 45.758 100.693 45.2408C101.073 44.6715 101.324 44.0215 101.598 43.3934C102.504 42.1714 103.36 40.9057 104.167 39.5963C107.087 34.8258 109.231 29.6032 110.549 24.1743C110.625 23.8897 110.202 23.6542 109.995 23.8581C108.291 25.5676 106.782 27.4518 105.496 29.4718C103.213 33.0554 101.586 37.0283 100.7 41.1847C100.424 42.499 100.219 43.8323 100.099 45.1884C100.095 45.2026 100.091 45.2168 100.087 45.2311C100.08 45.2595 100.068 45.3022 100.093 45.3241C100.03 46.07 99.9705 46.8016 99.9539 47.5447C99.9415 48.0448 99.9471 48.5345 99.9489 49.0384C97.6437 40.7319 94.4712 32.7116 90.4537 25.1209C90.5825 25.0944 90.6708 24.935 90.5736 24.7869C90.4764 24.6388 90.3613 24.5012 90.2461 24.3635C90.5958 22.7181 90.8604 21.0498 91.0076 19.3653C91.5483 13.1486 90.6328 6.86198 88.4048 1.04753C88.2891 0.741909 87.8772 0.860395 87.8189 1.13464C87.4311 2.92244 87.1748 4.73022 87.0396 6.53993C86.8023 9.69531 86.9207 12.885 87.4035 16.0197C87.6463 17.6104 87.9856 19.1811 88.4177 20.7462C88.5483 21.2236 88.6969 21.6905 88.8416 22.1717C87.7394 20.2135 86.5653 18.2971 85.3409 16.3977C85.3458 16.3227 85.3223 16.2401 85.2524 16.1604C85.158 16.0588 85.0636 15.9572 84.9692 15.8556C83.0363 12.9121 80.9736 10.0557 78.7773 7.30092C78.6414 7.1272 78.3561 7.34064 78.5062 7.51815C79.7851 9.15756 81.024 10.832 82.2091 12.5378C82.5704 13.0618 82.9138 13.5962 83.2751 14.1202C82.7632 13.6474 82.2437 13.2031 81.7024 12.7835C77.09 9.22871 71.2687 7.34853 65.4525 7.60553C65.1279 7.62534 65.0703 8.06757 65.2847 8.23182C66.4826 9.20878 67.7971 10.0339 69.182 10.7101C74.0247 13.1214 79.4507 13.9803 84.3495 16.2388C84.4685 16.3622 84.5875 16.4856 84.6885 16.6195C84.7829 16.7211 84.8822 16.7477 84.9891 16.7458C86.2888 18.818 87.5345 20.9214 88.7083 23.0666C87.2415 22.1854 85.4208 21.7738 83.8025 21.4012C82.3403 21.0705 80.8524 20.7786 79.3711 20.519C77.8098 19.1395 76.1498 17.9014 74.3436 16.8682C71.1792 15.0592 67.6692 13.8594 64.065 13.3513C60.4505 12.8252 56.7276 12.9871 53.1839 13.8988C52.8583 13.9793 52.812 14.3788 53.1051 14.5336C55.6675 15.922 58.3679 16.9659 61.1653 17.7613C66.15 19.1885 71.2906 19.8641 76.4006 20.6536C77.2463 20.7887 78.092 20.9237 78.9196 21.0692C78.9196 21.0692 78.9196 21.0692 78.9338 21.073C79.0424 21.1784 79.1635 21.1804 79.2715 21.1178C80.8701 21.3936 82.4753 21.7016 84.069 22.0524C85.8509 22.4383 87.7595 22.9192 89.222 24.0433C89.3012 24.2018 89.3841 24.3461 89.4633 24.5046C89.4633 24.5046 89.4595 24.5189 89.4557 24.5331C89.4023 24.7324 89.5213 24.8558 89.6735 24.9118C93.3864 31.9937 96.3869 39.4645 98.6356 47.1305C97.3309 44.7366 95.724 42.5058 93.9321 40.4544C90.003 35.9385 85.0994 32.3362 79.6369 29.9114C73.7357 27.3081 67.2818 26.1432 60.8562 26.4048C60.5316 26.4246 60.456 26.8772 60.6846 27.0453C62.3692 28.3052 64.1487 29.438 65.9985 30.4219C72.529 33.9109 80.0405 35.7252 87.4529 35.4688C87.5135 35.4698 87.5779 35.4565 87.6177 35.4214C87.7197 35.4945 87.836 35.5714 87.9342 35.6588C90.2158 37.4143 92.3077 39.4241 94.1721 41.6018C96.0119 43.7577 97.5922 46.0881 99.0246 48.5162C99.9603 51.8333 100.749 55.1874 101.395 58.5642C103.043 67.1676 103.78 75.9386 103.583 84.6732C103.161 83.5229 102.565 82.4019 101.962 81.4166C100.494 79.0094 98.6357 76.864 96.8641 74.6806C96.5224 74.2534 96.1665 73.8224 95.8249 73.3953C95.8723 73.3317 95.8952 73.2463 95.8935 73.1391C95.5437 71.1536 94.9543 69.2108 94.1566 67.3646C92.7288 64.0682 90.6398 61.0828 88.0683 58.5936C85.5109 56.1082 82.467 54.1331 79.1218 52.8859C78.8031 52.77 78.4721 53.1542 78.7166 53.4333C80.8932 56.0913 83.0737 58.7351 85.2503 61.3931C87.9187 64.6558 90.5833 67.9328 93.2517 71.1955C91.6779 69.9194 90.0386 68.7174 88.33 67.6036C86.4911 66.4091 84.5932 65.3208 82.6441 64.3104C82.5677 64.1984 82.4553 64.1072 82.284 64.1224C82.284 64.1224 82.284 64.1224 82.2698 64.1186C79.5398 62.7311 76.732 61.521 73.8565 60.5065C68.757 58.7129 63.4368 57.5162 58.0622 56.9762C57.6923 56.9381 57.4699 57.4277 57.7902 57.6508C59.3455 58.7693 60.9635 59.7673 62.6621 60.6344C68.6862 63.7436 75.5303 65.2113 82.3061 64.8911C86.5862 67.0753 90.6876 69.6999 94.4656 72.6802C95.2434 73.6361 96.0211 74.592 96.8131 75.5518C98.5536 77.681 100.38 79.7724 101.8 82.1359C102.465 83.2294 103.032 84.4035 103.402 85.6317C103.476 85.8652 103.518 86.1053 103.579 86.335C103.319 93.7713 102.366 101.189 100.723 108.454C97.7061 121.757 92.2527 134.392 84.7655 145.765C85.0693 143.893 85.2454 141.988 85.236 140.094C85.2409 140.019 85.2354 139.926 85.2261 139.847C85.3203 137.736 85.2612 135.631 85.081 133.523C85.7143 131.953 86.2664 130.347 86.705 128.71C88.5325 122.06 88.7853 114.988 87.4043 108.226C87.3387 107.903 86.7997 107.759 86.6967 108.143C86.1763 109.971 85.7307 111.805 85.3664 113.675C84.4885 118.2 84.0723 122.817 84.1906 127.426C83.5583 124.282 82.6865 121.18 81.6281 118.15C80.9056 116.08 80.0969 114.048 79.22 112.044C79.2315 112.001 79.2467 111.944 79.2336 111.879C79.2412 111.851 79.2347 111.819 79.2281 111.786C79.3623 111.853 79.5194 111.834 79.64 111.668C80.4933 110.356 81.2446 108.97 81.89 107.526C84.1431 102.409 84.8683 96.6383 83.9749 91.1205C83.93 90.8338 83.5263 90.6951 83.3507 90.9532C82.4908 92.2331 81.733 93.5861 81.099 94.9876C79.9727 97.4319 79.182 100.042 78.7574 102.705C78.5446 104.067 78.4206 105.437 78.4037 106.806C78.3904 107.763 78.4092 108.714 78.517 109.674C78.4713 109.844 78.4293 110.001 78.3836 110.172C77.546 108.361 76.6763 106.556 75.7526 104.783C75.484 104.254 75.1974 103.734 74.9288 103.205C75.6176 100.918 75.8912 98.5351 75.737 96.1596C75.472 91.9848 73.865 87.9386 71.1557 84.7717C68.6353 81.808 65.2389 79.6165 61.4873 78.5807C61.1893 78.5009 60.8321 78.756 60.9866 79.0873C61.2514 79.6312 61.5265 80.1931 61.8055 80.7408C64.009 85.1146 66.4142 89.3595 68.8375 93.5939C70.645 96.7785 72.4524 99.963 74.1841 103.204C74.1934 103.282 74.2349 103.354 74.2944 103.416C74.8288 104.429 75.3491 105.438 75.8694 106.447C76.4066 107.506 76.9258 108.576 77.4412 109.66C76.1048 108.859 74.6802 108.218 73.2544 107.638C73.2375 107.588 73.2205 107.537 73.1894 107.483C72.1824 106.191 71.0597 104.99 69.8318 103.899C65.5238 100.059 60.0084 97.605 54.2639 97.0269C54.0577 97.0022 53.8984 97.1426 53.8527 97.3134C53.719 97.4149 53.6618 97.6284 53.8414 97.7528C53.9292 97.8221 54.0351 97.8809 54.141 97.9398C55.2337 99.4226 56.5937 100.702 58.0856 101.773C61.0488 103.879 64.4498 105.203 67.8349 106.415C69.6938 107.081 71.5681 107.69 73.408 108.427C74.9047 109.026 76.3643 109.707 77.7944 110.441C77.9178 110.718 78.0412 110.995 78.175 111.291C78.175 111.291 78.1674 111.319 78.1636 111.333C78.1358 111.494 78.2122 111.606 78.3361 111.654C79.5258 114.307 80.6113 117.008 81.5283 119.771C82.4961 122.685 83.2915 125.675 83.8512 128.693C83.6579 128.336 83.4609 127.993 83.2278 127.671C82.1541 126.117 80.7194 124.833 79.276 123.638C77.7834 122.399 76.2216 121.248 74.6085 120.175C71.3786 118.043 67.9322 116.265 64.3222 114.871C63.9365 114.722 63.6829 115.157 63.8773 115.454C64.9477 117.19 66.1338 118.835 67.4137 120.413C69.6706 123.169 72.2525 125.676 75.0575 127.862C76.4813 128.961 77.9846 129.989 79.5327 130.907C80.9749 131.767 82.4646 132.562 84.0295 133.134C83.9996 133.416 84.0303 133.699 84.0609 133.982C84.0609 133.982 84.0571 133.996 84.0533 134.01C83.9791 134.173 84.0337 134.31 84.1282 134.412C84.1506 134.555 84.173 134.698 84.1812 134.838C84.2529 135.421 84.3284 135.991 84.3717 136.567C84.479 137.755 84.522 138.957 84.5082 140.143C84.4911 142.533 84.2175 144.916 83.7311 147.242C83.7235 147.271 83.7197 147.285 83.7262 147.317C82.6035 148.954 81.4562 150.568 80.2418 152.15C77.8015 155.356 75.2139 158.431 72.4647 161.371C72.4762 161.328 72.4915 161.271 72.5171 161.232C74.1839 156.827 74.8238 152.056 74.4861 147.358C74.9748 147.123 75.3948 146.748 75.7967 146.382C76.2129 146.021 76.6186 145.641 77.014 145.244C77.8086 144.435 78.5437 143.564 79.1626 142.616C79.7008 141.799 80.1615 140.931 80.5267 140.022C80.9033 139.07 81.2499 138.004 81.2823 136.975C81.324 136.025 81.0072 134.994 80.1357 134.501C79.2643 134.008 78.1858 134.345 77.4938 134.999C76.7182 135.737 76.2298 136.765 75.7926 137.716C75.3221 138.734 74.9188 139.785 74.6109 140.878C74.3526 141.785 74.1511 142.707 74.0205 143.648C73.7985 142.491 73.5265 141.35 73.19 140.222C72.5509 138.068 71.6942 135.931 70.52 134.015C69.4288 132.243 68.0032 130.64 66.1572 129.642C64.47 128.732 61.8746 128.205 60.7378 130.234C59.7777 131.945 60.3901 134.199 60.9619 135.924C61.591 137.831 62.5611 139.602 63.7946 141.183C66.2617 144.346 69.8136 146.808 73.7578 147.636C73.8004 147.648 73.8326 147.641 73.8789 147.638C73.9146 148.243 73.9465 148.861 73.95 149.473C74.0082 153.851 73.145 158.151 71.6085 162.24C67.9851 166.059 64.1058 169.642 60.0207 172.972C61.321 170.559 62.265 167.944 62.8751 165.27C63.2156 165.361 63.5231 164.894 63.2322 164.618C63.308 164.562 63.3489 164.466 63.2829 164.372C63.2621 164.336 63.2414 164.3 63.2168 164.278C63.1933 164.195 63.1737 164.099 63.1502 164.016C63.2362 163.581 63.3223 163.147 63.3761 162.719C63.663 160.797 63.7577 158.855 63.6709 156.909C63.5911 155.164 63.3903 153.417 62.8496 151.746C62.3532 150.194 61.5168 148.719 60.2633 147.666C59.0447 146.653 57.0892 146.007 55.8676 147.389C54.8385 148.562 54.9947 150.42 55.1403 151.862C55.3269 153.605 55.7635 155.324 56.4225 156.95C57.6719 160.061 59.7329 162.811 62.3545 164.886C61.6791 168.031 60.5006 171.01 58.9544 173.83C58.6435 174.083 58.3185 174.331 58.0076 174.583C57.929 174.593 57.8646 174.606 57.7823 174.63C57.6355 174.667 57.5729 174.787 57.5991 174.916C53.5892 178.022 49.3877 180.878 45.0307 183.463C41.6532 185.457 38.1966 187.292 34.6467 188.965C36.4211 186.542 38.016 183.994 39.4133 181.333C42.286 175.832 44.3363 169.883 45.4842 163.783C46.6425 157.701 46.906 151.441 46.2268 145.294C46.1895 144.979 45.7149 144.821 45.5317 145.107C43.7514 148.063 42.2036 151.172 40.879 154.357C38.5416 160.016 36.9332 165.962 35.7979 171.958C35.2239 175.008 34.7634 178.088 34.4099 181.167C34.1499 183.385 33.9145 185.626 33.786 187.865C33.7669 187.936 33.7195 187.999 33.6862 188.067C33.6197 188.202 33.6601 188.334 33.748 188.404C33.7365 188.446 33.7393 188.493 33.742 188.539C33.501 188.871 33.26 189.204 33.0048 189.532C32.9573 189.595 32.9279 189.649 32.9088 189.72C32.3017 189.999 31.6842 190.261 31.0667 190.523C30.903 190.51 30.7951 190.572 30.704 190.685C28.3704 191.677 26.0057 192.615 23.6072 193.452C22.4851 193.838 21.3668 194.209 20.2381 194.563C20.3494 194.318 20.4606 194.073 20.5718 193.828C22.1755 190.169 23.4732 186.291 24.2836 182.359C24.313 182.306 24.3283 182.249 24.3255 182.202C24.3446 182.131 24.3637 182.06 24.3724 181.971C24.4651 181.965 24.5448 181.895 24.5005 181.776C24.4836 181.726 24.4525 181.672 24.4394 181.607C24.5254 181.173 24.6152 180.724 24.6871 180.285C25.3801 175.94 25.3665 171.451 24.2444 167.184C23.7074 165.103 22.9053 163.103 21.8228 161.242C20.975 159.809 19.5448 157.656 17.5641 158.239C16.6722 158.504 16.0593 159.316 15.8228 160.198C15.5215 161.323 15.786 162.492 16.009 163.589C16.4757 165.82 17.0749 168.009 17.7887 170.168C18.5167 172.331 19.3773 174.454 20.378 176.507C20.8765 177.541 21.4071 178.568 21.9738 179.574C22.4989 180.508 23.0345 181.46 23.6818 182.335C23.6704 182.378 23.659 182.42 23.6475 182.463C23.1775 184.671 22.5334 186.848 21.808 188.988C21.1502 190.932 20.3685 192.828 19.6681 194.761C13.4057 196.683 7.02528 198.025 0.545998 199.111C-0.011535 199.206 0.120244 200.019 0.666335 199.967L0.673965 199.939ZM16.5677 160.596C16.6955 161.027 16.8233 161.458 16.9511 161.889C17.186 162.715 17.4389 163.53 17.6917 164.345C19.3696 169.829 21.3486 175.211 23.6184 180.472C23.619 180.64 23.6338 180.812 23.6344 180.98C23.5825 180.89 23.5307 180.799 23.4788 180.709C21.256 177.032 19.4548 173.086 18.1195 168.991C17.4395 166.932 16.8675 164.811 16.4669 162.675C16.3133 161.886 16.2148 161.005 16.4671 160.234C16.5114 160.352 16.5414 160.467 16.5819 160.6L16.5677 160.596ZM17.6631 158.891C18.4465 160.337 19.2375 161.754 19.9025 163.244C21.1922 166.092 22.1769 169.056 22.7999 172.121C23.0977 173.62 23.317 175.128 23.4578 176.646C23.5438 177.63 23.573 178.599 23.5985 179.582C23.2294 178.69 22.8783 177.787 22.5271 176.884C21.3984 174.004 20.3418 171.081 19.3674 168.135C18.8803 166.662 18.4111 165.179 17.9561 163.699C17.7305 162.952 17.4946 162.187 17.287 161.43C17.116 160.819 17.0067 160.149 16.7893 159.542C17.0265 159.224 17.326 159.015 17.6451 158.902L17.6631 158.891ZM24.0997 176.009C23.7483 172.894 23.0222 169.816 21.9911 166.855C21.0071 164.059 19.7523 161.251 18.0313 158.822C18.3919 158.781 18.7788 158.87 19.1455 159.09C19.9601 159.568 20.5338 160.378 21.0186 161.179C21.5732 162.06 22.0378 162.993 22.4522 163.943C23.2706 165.825 23.8164 167.817 24.1406 169.841C24.59 172.647 24.608 175.474 24.2947 178.289C24.2404 177.527 24.172 176.761 24.0855 176.005L24.0997 176.009ZM58.9048 147.516C58.9048 147.516 58.7635 147.646 58.7756 147.771C59.1956 150.63 59.7443 153.462 60.4076 156.264C60.736 157.648 61.0966 159.026 61.4751 160.394C61.6996 161.202 61.9279 161.995 62.1988 162.8C61.7998 162.19 61.4046 161.565 61.0558 160.938C59.8848 158.839 58.9838 156.584 58.3905 154.259C58.1042 153.114 57.8824 151.956 57.7428 150.774C57.6711 150.191 57.6137 149.611 57.5845 149.039C57.5653 148.713 57.5565 148.406 57.5373 148.08C57.535 147.805 57.5507 147.519 57.4879 147.243C57.4879 147.243 57.4879 147.243 57.4775 147.225C57.963 147.172 58.4454 147.301 58.9048 147.516ZM62.7433 162.641C62.5111 161.862 62.261 161.093 62.0288 160.314C61.6219 158.938 61.251 157.542 60.9122 156.139C60.2555 153.37 59.7275 150.574 59.3282 147.752C60.0256 148.213 60.6374 148.88 61.0545 149.48C61.9687 150.778 62.4472 152.34 62.7156 153.892C63.2246 156.759 63.1645 159.764 62.7395 162.655L62.7433 162.641ZM62.519 164.045C59.9022 161.895 57.9001 159.039 56.7484 155.848C56.1876 154.309 55.8417 152.706 55.703 151.067C55.5968 149.818 55.5922 147.849 57.0231 147.332C56.9714 147.639 57.0048 147.968 57.0136 148.275C57.029 148.615 57.0444 148.955 57.074 149.299C57.1293 150 57.2168 150.695 57.3224 151.379C58.0305 155.886 59.7844 160.292 62.5277 163.956C62.5201 163.985 62.5124 164.013 62.5048 164.041L62.519 164.045ZM62.7012 131.645C62.9088 132.403 63.1344 133.149 63.396 133.876C65.2478 138.994 68.7678 143.675 73.4137 146.537C73.4345 146.573 73.4552 146.609 73.4902 146.649C73.1923 146.569 72.8943 146.489 72.6041 146.381C69.0411 145.152 65.9404 142.765 63.793 139.657C62.7297 138.121 61.8938 136.417 61.3733 134.615C60.9401 133.111 60.3948 130.493 62.2123 129.668C62.2265 129.672 62.2445 129.662 62.2625 129.651C62.3113 130.32 62.5341 131.021 62.7012 131.645ZM64.4398 129.64C64.6326 130.225 64.9541 130.784 65.2151 131.342C65.5241 132.005 65.8473 132.671 66.1564 133.334C67.2739 135.632 68.4275 137.909 69.6493 140.158C70.7296 142.141 71.8024 144.153 73.0627 146.031C72.1274 145.323 71.2215 144.561 70.3696 143.769C68.3296 141.849 66.613 139.574 65.299 137.101C64.6504 135.89 64.1099 134.616 63.6697 133.308C63.443 132.622 63.2344 131.925 63.0721 131.226C62.9464 130.673 62.8786 130.076 62.7245 129.516C63.2859 129.407 63.8724 129.488 64.4256 129.636L64.4398 129.64ZM73.7525 146.521C73.7525 146.521 73.7242 146.513 73.7138 146.495C73.0483 145.234 72.2966 144.01 71.5771 142.78C70.3014 140.562 69.0938 138.316 67.944 136.025C67.3653 134.893 66.8188 133.755 66.2761 132.603C66.0152 132.045 65.758 131.473 65.497 130.914C65.3321 130.565 65.2032 130.195 65.0384 129.846C65.1093 129.865 65.1622 129.894 65.2293 129.927C66.1313 130.306 66.9515 130.877 67.674 131.528C69.1541 132.871 70.2169 134.635 71.0582 136.432C72.5204 139.6 73.4076 143.042 73.7487 146.535L73.7525 146.521ZM78.6482 135.003C77.973 135.707 77.4223 136.627 76.955 137.463C76.4185 138.387 75.9491 139.344 75.5365 140.317C75.198 141.126 74.9162 141.951 74.6628 142.783C74.8175 142.092 74.9864 141.405 75.2159 140.719C75.5178 139.763 75.901 138.843 76.3409 137.939C76.7771 137.049 77.2371 136.013 78.004 135.364C78.203 135.189 78.4332 135.067 78.6662 134.992L78.6482 135.003ZM79.7977 135.082C79.0537 137.064 78.2852 139.025 77.2934 140.91C76.77 141.899 76.2079 142.862 75.607 143.799C75.3175 144.255 75.0176 144.694 74.7035 145.128C74.6561 145.192 74.6048 145.27 74.5432 145.329C74.5661 145.244 74.5606 145.151 74.5835 145.066C74.6744 144.556 74.7975 144.04 74.9168 143.538C75.1914 142.513 75.5266 141.489 75.925 140.513C76.3197 139.551 76.7711 138.604 77.2896 137.69C77.5725 137.201 77.8555 136.713 78.1669 136.232C78.4346 135.8 78.741 135.394 78.97 134.936C79.2521 134.905 79.5292 134.949 79.7655 135.089L79.7977 135.082ZM74.3772 146.46C74.3772 146.46 74.4077 146.346 74.4229 146.289C74.496 146.186 74.5691 146.084 74.6421 145.981C74.8101 145.752 74.9819 145.508 75.1356 145.275C75.4355 144.836 75.7393 144.384 76.025 143.942C76.6002 143.043 77.1226 142.115 77.6203 141.165C78.5979 139.276 79.4591 137.31 80.0405 135.254C80.1388 135.341 80.219 135.439 80.2916 135.565C80.8113 136.406 80.5743 137.517 80.3341 138.414C79.865 140.165 78.9921 141.777 77.8943 143.207C77.3403 143.913 76.7513 144.579 76.0991 145.197C75.7511 145.531 75.3928 145.847 75.0203 146.159C74.807 146.331 74.5938 146.502 74.3805 146.674C74.3712 146.595 74.3581 146.531 74.363 146.456L74.3772 146.46ZM70.9619 106.093C70.0479 105.589 69.1121 105.109 68.1801 104.615C65.8321 103.391 63.5021 102.157 61.1541 100.933C59.9679 100.31 58.792 99.7047 57.6095 99.0675C57.0093 98.7541 56.4128 98.4265 55.8126 98.1131C55.7067 98.0543 55.5867 97.9916 55.4808 97.9327C56.5933 98.0935 57.7009 98.3292 58.7856 98.6504C63.4261 100.001 67.6458 102.581 70.9477 106.089L70.9619 106.093ZM71.839 107.076C66.2539 104.938 59.9875 103.244 55.8358 98.8211C56.4786 99.1459 57.1214 99.4707 57.7642 99.7955C60.1198 100.991 62.4716 102.201 64.8234 103.411C67.0835 104.566 69.3388 105.795 71.6502 106.872C71.7058 106.948 71.7795 107.014 71.8352 107.09L71.839 107.076ZM62.5572 80.5455C62.5572 80.5455 62.6555 80.6329 62.7046 80.6766C63.0834 81.0221 63.4403 81.3924 63.7868 81.7446C64.4412 82.4234 65.0841 83.1448 65.6807 83.8691C67.8791 86.5025 69.7515 89.4451 71.2005 92.5489C71.925 94.1008 72.5453 95.701 73.0653 97.3354C73.3728 98.2874 73.6262 99.2707 73.8693 100.236C73.8809 100.59 73.8745 100.954 73.8681 101.319C72.143 98.1104 70.36 94.9477 68.5771 91.785C66.501 88.0707 64.443 84.3461 62.5289 80.5379L62.5572 80.5455ZM63.3181 80.0324C64.4717 80.8907 65.5561 81.8373 66.5532 82.8825C70.402 86.9039 72.9565 92.1804 73.6966 97.7029C73.5819 97.3366 73.4634 96.9844 73.3487 96.6181C72.2559 93.3199 70.719 90.1468 68.8249 87.2288C67.8532 85.748 66.7878 84.3336 65.6427 82.9894C65.0735 82.3334 64.472 81.6841 63.863 81.0632C63.5513 80.7509 63.2397 80.4385 62.9281 80.1262C62.7704 79.9772 62.6165 79.8139 62.4549 79.6791C62.7452 79.7874 63.0497 79.8994 63.3361 80.022L63.3181 80.0324ZM74.5561 101.305C74.5085 100.972 74.4429 100.649 74.3631 100.322C74.3282 98.8638 74.158 97.3994 73.8733 95.9653C73.165 92.4803 71.7345 89.1374 69.7334 86.2213C68.2814 84.0931 66.5017 82.1669 64.4809 80.5728C65.2863 80.9717 66.0803 81.4132 66.823 81.9326C69.9771 84.1203 72.449 87.2083 73.7929 90.8179C75.0276 94.1541 75.2728 97.8354 74.5484 101.333L74.5561 101.305ZM83.6219 95.7857C83.4318 96.6653 83.2417 97.545 83.0233 98.4171C82.4147 100.802 81.6359 103.141 80.6558 105.38C80.344 106.09 79.9754 106.784 79.6352 107.487C79.6734 107.344 79.7153 107.188 79.7535 107.045C80.993 102.419 82.3318 97.8199 83.5004 93.1749C83.5885 94.0376 83.6303 94.9031 83.6257 95.7714L83.6219 95.7857ZM79.2044 110.91C79.3077 109.901 79.6881 108.935 80.0893 108.005C81.5421 104.626 82.7651 101.14 83.5445 97.5499C83.2369 102.273 81.7371 106.906 79.1902 110.907L79.2044 110.91ZM79.0406 107.663C79.0406 107.663 79.0063 107.791 78.9911 107.848C78.9789 107.326 78.9847 106.793 79.0189 106.269C79.2599 101.284 80.7574 96.3759 83.3833 92.1366C83.403 92.2334 83.4085 92.3265 83.414 92.4195C83.0358 93.6606 82.6718 94.9056 82.3219 96.1544C81.6071 98.7089 80.8922 101.263 80.1632 103.814C79.8019 105.105 79.4406 106.397 79.0548 107.667L79.0406 107.663ZM84.0913 132.052C82.7717 130.905 81.3829 129.847 80.0415 128.725C77.5241 126.601 74.981 124.516 72.4674 122.378C71.2177 121.311 69.968 120.243 68.7221 119.162C68.1043 118.63 67.4762 118.081 66.8584 117.549C66.2794 117.043 65.7118 116.494 65.111 116.013C65.111 116.013 65.1006 115.995 65.0902 115.977C66.6644 116.628 68.2195 117.349 69.7234 118.149C73.0137 119.885 76.1198 121.968 78.9603 124.362C81.3058 126.333 83.8442 128.889 84.0913 132.052ZM84.109 132.667C82.5145 131.752 80.901 130.908 79.354 129.929C74.3037 126.76 69.8761 122.629 66.362 117.813C66.499 117.926 66.6218 118.035 66.7588 118.148C67.4502 118.745 68.1416 119.342 68.8331 119.939C71.3429 122.092 73.8887 124.223 76.4421 126.326C77.7137 127.369 78.989 128.397 80.2785 129.429C81.5435 130.439 82.7829 131.488 84.0953 132.435C84.0904 132.51 84.0997 132.589 84.109 132.667ZM84.8547 130.792C85.1242 129.446 85.3229 128.08 85.5177 126.729C86.3331 121.303 86.9007 115.78 86.9762 110.277C87.1753 111.521 87.3241 112.781 87.4123 114.04C87.8307 120.026 86.9752 126.113 84.9019 131.751C84.8827 131.425 84.8739 131.118 84.8547 130.792ZM84.7643 128.236C84.6711 122.398 85.3265 116.548 86.7091 110.877C86.6555 112.098 86.5916 113.302 86.5096 114.515C86.3137 117.346 86.0392 120.187 85.6512 122.996C85.4553 124.409 85.2452 125.817 84.9925 127.214C84.9283 127.624 84.8395 128.012 84.7611 128.418C84.7621 128.357 84.7528 128.278 84.7539 128.218L84.7643 128.236ZM79.7584 63.6745C78.5941 63.4235 77.4183 63.2153 76.2398 62.9605C73.3825 62.3322 70.548 61.6185 67.7403 60.8051C65.2162 60.0678 62.7369 59.2204 60.2357 58.3976C59.9749 58.2362 59.6999 58.071 59.4429 57.8953C61.9318 58.1961 64.4007 58.6288 66.8455 59.2076C71.2775 60.2579 75.6016 61.7674 79.7442 63.6707L79.7584 63.6745ZM79.9391 64.1348C78.8311 64.1278 77.7203 64.0742 76.6106 63.9599C71.517 63.4494 66.5486 61.9046 62.0665 59.4526C62.7076 59.6702 63.3629 59.8915 64.0078 60.0948C66.7785 60.9898 69.5901 61.7889 72.4103 62.4989C73.8366 62.8505 75.2666 63.1879 76.7043 63.4969C77.7693 63.7212 78.8447 63.9636 79.9391 64.1348ZM80.6433 54.3005C81.713 55.4719 82.7789 56.6576 83.8088 57.8642C85.7987 60.1976 87.7271 62.5907 89.5796 65.0398C90.5129 66.2663 91.4141 67.4994 92.3114 68.7467C92.7426 69.3504 93.17 69.9684 93.6012 70.5721C93.6918 70.6879 93.7644 70.8142 93.855 70.93L90.9951 67.4176C87.3677 62.9673 83.7621 58.4924 80.1385 54.0279C80.3153 54.1058 80.4883 54.1979 80.6651 54.2758L80.6433 54.3005ZM94.7877 71.5918C94.4896 71.1153 94.1697 70.6634 93.8537 70.1973C93.3641 69.4712 92.8564 68.7554 92.3488 68.0397C89.0973 63.4918 85.5862 59.1185 81.9043 54.9282C82.635 55.3223 83.3541 55.7591 84.0477 56.2348C86.9137 58.1927 89.3849 60.7161 91.297 63.6236C92.8969 66.0508 94.0856 68.7644 94.7877 71.5918ZM62.3034 27.1892C63.1987 27.5359 64.117 27.7972 65.0276 28.0869C65.9241 28.3729 66.8064 28.6551 67.7028 28.9411C73.5525 30.8288 79.3793 32.802 85.2404 34.6471C83.8759 34.6324 82.5163 34.5427 81.1616 34.378C74.2671 33.5528 67.6343 31.0127 61.9498 27.0334C62.0245 27.0382 62.0851 27.0391 62.1636 27.0297C62.1768 27.0942 62.222 27.1521 62.3034 27.1892ZM86.5803 34.64C86.5803 34.64 86.427 34.6447 86.3523 34.6399C84.7372 34.0851 83.1183 33.5446 81.5136 33.0078C78.3146 31.9523 75.1298 30.9006 71.9269 29.8593C70.3326 29.3406 68.7459 28.7934 67.1374 28.2709C65.9365 27.8728 64.7508 27.4178 63.5461 27.034C66.2106 27.0767 68.8774 27.3946 71.4794 27.9545C76.9142 29.1209 82.0439 31.426 86.5661 34.6362L86.5803 34.64ZM77.2109 19.5587C75.79 18.9034 74.3539 18.305 72.9025 17.7636C70.0952 16.7215 67.2345 15.8787 64.3139 15.2029C62.8375 14.8683 61.3638 14.5802 59.8787 14.3349C58.8164 14.157 57.722 13.9858 56.6444 13.8649C57.4944 13.757 58.3509 13.6814 59.1921 13.6627C65.5484 13.4894 72.186 15.5578 77.2147 19.5445L77.2109 19.5587ZM60.3099 14.9386C65.8078 15.7558 71.1926 17.3359 76.332 19.491C75.1971 19.187 74.0764 18.8867 72.9339 18.611C69.8725 17.8365 66.7996 17.1047 63.7164 16.3548L59.0754 15.2333C58.3055 15.0423 57.5319 14.8655 56.7478 14.6706C56.4499 14.5908 56.152 14.511 55.8541 14.4312C57.3441 14.6016 58.8314 14.7255 60.3099 14.9386ZM78.0508 20.2262C74.775 19.6841 71.4764 19.2274 68.1979 18.6388C63.7474 17.8277 59.2882 16.7091 55.1892 14.7565C55.7566 14.9085 56.3535 15.0074 56.9106 15.1414C57.7835 15.3448 58.6385 15.5587 59.5115 15.7621C65.5116 17.202 71.5078 18.6561 77.5204 19.9926L77.5488 20.0002C77.5488 20.0002 77.563 20.004 77.5772 20.0078C77.6623 20.0306 77.7616 20.0572 77.8467 20.08C77.91 20.1275 77.9695 20.1892 78.0328 20.2366L78.0508 20.2262ZM82.4798 14.3648C81.6111 13.9184 80.731 13.5148 79.8508 13.1112C77.5885 12.0778 75.2788 11.1081 72.9642 10.2133C71.7927 9.76205 70.6174 9.32508 69.4203 8.91278C68.8218 8.70663 68.2091 8.4967 67.6067 8.30478C67.5499 8.28958 67.4932 8.27437 67.4223 8.25536C68.3836 8.29936 69.3334 8.38605 70.2784 8.54772C74.7943 9.28482 79.0766 11.3476 82.4901 14.3828L82.4798 14.3648ZM83.461 15.299C82.5563 14.8735 81.6402 14.4907 80.7022 14.1326C76.2422 12.4493 71.4033 11.4426 67.369 8.85132C67.4967 8.88553 67.6244 8.91974 67.7662 8.95775C68.4395 9.16867 69.109 9.39381 69.7823 9.60474C72.1274 10.3857 74.4496 11.252 76.7206 12.1961C78.9632 13.1327 81.1316 14.2324 83.3562 15.1794C83.3912 15.2192 83.4299 15.2449 83.4648 15.2847L83.461 15.299ZM88.7103 7.17067C89.0812 9.98557 89.2988 12.8052 89.3914 15.637C89.434 17.0672 89.4481 18.4898 89.43 19.919C89.4259 20.5586 89.4076 21.1945 89.3712 21.8407C89.1653 21.1906 88.9632 20.5262 88.8075 19.859C87.4117 14.3438 87.1783 8.5756 88.0896 2.96158C88.2893 4.37283 88.5211 5.77745 88.7065 7.1849L88.7103 7.17067ZM89.8902 22.1171C89.8999 21.9671 89.8993 21.7992 89.9091 21.6492C89.923 20.8596 89.9331 20.0843 89.929 19.3052C89.9111 16.4781 89.7579 13.6452 89.5081 10.8322C89.2535 8.09424 88.9677 5.30215 88.3344 2.61527C88.7446 3.80832 89.1084 5.00422 89.404 6.2276C90.6415 11.4258 90.7988 16.8532 89.9043 22.1209L89.8902 22.1171ZM102.964 40.1131C103.937 37.8415 104.915 35.5557 105.931 33.2955C107.095 30.7089 108.284 28.1442 109.406 25.5462C109.421 25.4893 109.401 25.4532 109.362 25.4276C109.424 25.3678 109.471 25.3042 109.536 25.2302C109.239 26.3405 108.931 27.4327 108.563 28.5239C107.198 32.5975 105.301 36.4982 102.964 40.1131ZM101.009 42.8693C101.494 40.0395 102.308 37.2829 103.456 34.646C104.882 31.3668 106.806 28.3278 109.166 25.6496C108.507 27.0292 107.867 28.3984 107.222 29.7818C106.029 32.3608 104.84 34.9255 103.609 37.4789C102.991 38.7627 102.384 40.0645 101.738 41.3407C101.483 41.8369 101.243 42.337 100.999 42.8513L101.009 42.8693ZM104.563 56.1634C104.414 55.071 104.33 53.9654 104.307 52.8607C104.252 50.3439 104.548 47.8757 105.079 45.4397C105.976 48.9599 105.799 52.7417 104.563 56.1634ZM109.386 59.0425C109.691 57.9038 109.997 56.7651 110.316 55.6302C110.631 54.5095 110.975 53.3965 111.433 52.3138C112.207 50.4464 113.347 48.6314 115.181 47.6887C115.165 48.5998 115.074 49.506 114.898 50.3895C114.193 53.8161 112.199 56.9434 109.39 59.0283L109.386 59.0425ZM112.036 70.6603C111.885 71.1082 111.778 71.5675 111.677 71.9983C111.511 72.7318 111.402 73.4806 111.353 74.2303C111.157 76.8324 111.582 79.448 112.67 81.7991C113.167 82.8935 113.805 83.9187 114.554 84.867C115.021 85.4498 115.511 86.008 116.057 86.5207C113.6 85.4199 111.577 83.3826 110.548 80.8645C109.371 77.9402 109.538 74.3084 111.249 71.609C111.462 71.2694 111.735 70.9307 112.036 70.6603ZM114.013 70.0916C113.921 70.2653 113.885 70.4541 113.832 70.6534C113.748 70.9665 113.66 71.2939 113.605 71.6146C113.472 72.2808 113.367 72.9546 113.295 73.6217C113.068 76.0017 113.281 78.4389 113.911 80.7433C114.236 81.9135 114.651 83.0316 115.18 84.1194C115.552 84.8901 116 85.7121 116.526 86.4174C116.543 86.4677 116.564 86.5038 116.581 86.5541C115.823 85.863 115.087 85.1471 114.475 84.3118C113.038 82.3554 112.088 80.0565 111.76 77.6497C111.586 76.3675 111.574 75.0522 111.735 73.7682C111.822 73.1049 111.965 72.4568 112.14 71.802C112.282 71.2754 112.512 70.7573 112.642 70.2126C112.678 70.1917 112.714 70.1709 112.75 70.15C113.159 69.985 113.573 69.9738 113.97 70.0802L114.013 70.0916ZM116.618 72.6815C116.618 72.6815 116.6 72.6919 116.596 72.7061C116.028 73.8049 115.715 75.0328 115.479 76.2512C115.248 77.4554 115.162 78.6834 115.187 79.8953C115.211 81.168 115.378 82.4179 115.67 83.6555C115.743 83.9497 115.826 84.262 115.91 84.5742C115.727 84.2354 115.558 83.9003 115.408 83.5548C114.44 81.4344 113.871 79.1309 113.724 76.7877C113.641 75.6214 113.679 74.457 113.81 73.2869C113.874 72.7089 113.97 72.1244 114.104 71.5655C114.174 71.2485 114.24 70.9458 114.338 70.6365C114.376 70.4941 114.414 70.3518 114.449 70.2237C114.611 70.2978 114.784 70.3899 114.939 70.4924C115.71 71.0194 116.27 71.8253 116.661 72.6929L116.618 72.6815ZM117.031 86.4613C116.624 85.4827 116.242 84.5259 116.004 83.4857C115.736 82.3307 115.582 81.1453 115.549 79.9619C115.51 78.7462 115.606 77.5362 115.816 76.3567C116.018 75.2056 116.39 74.1002 116.748 72.9909C116.964 73.4911 117.126 74.0226 117.248 74.5285C117.641 76.1286 117.697 77.7913 117.696 79.4388C117.686 81.2362 117.559 83.0175 117.314 84.7825C117.24 85.3424 117.134 85.909 117.042 86.4793L117.031 86.4613ZM134.914 77.4312C134.678 77.6883 134.456 77.9492 134.219 78.2063C133.533 78.9529 132.846 79.6995 132.135 80.4243C129.565 83.092 126.806 85.6173 123.646 87.5929C122.385 88.384 121.068 89.0991 119.768 89.8645C122.223 87.4558 124.797 85.1705 127.469 82.9726C128.933 81.7632 130.443 80.6116 131.973 79.4961C132.746 78.9403 133.514 78.3987 134.301 77.8466C134.506 77.7034 134.712 77.5602 134.903 77.4131L134.914 77.4312ZM117.651 93.3399C117.651 93.3399 117.791 93.2707 117.863 93.229C118.924 92.6742 119.999 92.1232 121.078 91.5579C124.592 89.7381 128.113 87.8897 131.039 85.1955C132.368 83.9803 133.596 82.6313 134.684 81.1835C135.658 79.8732 136.613 78.4662 137.263 76.9471C137.311 77.0515 137.356 77.1701 137.368 77.2954C137.449 77.9578 137.077 78.6059 136.775 79.1657C136.252 80.1544 135.651 81.0918 135.011 82.0035C132.691 85.272 129.639 88.0392 126.179 90.0566C124.447 91.0723 122.597 91.9039 120.698 92.5239C119.748 92.8339 118.796 93.0974 117.816 93.2925C117.766 93.3096 117.705 93.3086 117.655 93.3257L117.651 93.3399ZM116.658 93.0738C116.916 92.7921 117.188 92.5141 117.446 92.2323C118.314 91.4886 119.267 90.8285 120.254 90.2082C121.717 89.2882 123.232 88.4583 124.66 87.4984C126.167 86.4683 127.602 85.312 128.949 84.0863C130.275 82.8854 131.544 81.6085 132.775 80.3059C133.392 79.6475 134.014 78.9749 134.621 78.2985C135.14 77.7207 135.688 77.1505 136.159 76.5291C136.213 76.4978 136.253 76.4627 136.311 76.4172C136.596 76.3717 136.869 76.4904 137.058 76.6936C136.07 78.336 135.111 79.986 133.902 81.4926C131.516 84.4384 128.543 86.7387 125.256 88.6194C123.496 89.6276 121.67 90.5418 119.858 91.4598C118.909 91.9377 117.956 92.4299 117.007 92.9079C116.885 92.9667 116.762 93.0255 116.64 93.0843L116.658 93.0738ZM126.236 104.199C125.289 104.159 124.338 104.133 123.396 104.185C119.702 104.355 116.002 105.225 112.626 106.761C113.521 106.314 114.423 105.9 115.345 105.522C118.403 104.266 121.999 102.987 125.329 103.895C125.599 103.967 125.925 104.054 126.236 104.199ZM127.228 105.151C126.009 105.16 124.779 105.212 123.565 105.314C121.268 105.491 118.961 105.758 116.678 106.108C115.71 106.26 114.752 106.43 113.78 106.597C117.962 105.002 122.432 104.324 126.922 104.703C126.95 104.711 126.968 104.7 126.986 104.69C127.07 104.773 127.137 104.867 127.181 104.986C127.212 105.04 127.215 105.086 127.214 105.147L127.228 105.151ZM110.032 108.156C110.284 108.01 110.55 107.868 110.816 107.725C110.913 107.706 110.995 107.682 111.092 107.662C111.109 107.712 111.162 107.742 111.234 107.7C111.338 107.652 111.442 107.603 111.528 107.565C112.448 107.369 113.371 107.159 114.311 106.999C115.747 106.743 117.195 106.505 118.659 106.318C121.499 105.935 124.353 105.723 127.211 105.497C127.045 105.834 126.56 106.055 126.212 106.16C125.371 106.408 124.474 106.518 123.613 106.669C122.655 106.84 121.701 106.996 120.75 107.138C117.203 107.667 113.63 108.006 110.057 108.178L110.032 108.156ZM130.356 120.94C129.607 121.014 128.856 121.148 128.095 121.265C127.223 121.397 126.355 121.515 125.483 121.648C119.761 122.464 114.015 122.969 108.242 123.176C109.205 122.534 110.174 121.924 111.179 121.354C114.421 119.523 118.01 117.876 121.766 117.647C124.948 117.462 128.007 118.586 130.272 120.856C130.297 120.878 130.317 120.914 130.356 120.94ZM133.131 125.451C132.662 125.555 132.2 125.69 131.732 125.794C131.148 125.927 130.544 126.025 129.948 126.094C128.77 126.236 127.572 126.281 126.389 126.269C124.237 126.242 122.099 126.05 119.96 125.919C117.863 125.8 115.786 125.777 113.7 125.905C109.619 126.154 105.56 127.004 101.694 128.378C101.937 128.154 102.183 127.914 102.44 127.693C104.015 126.3 105.659 124.986 107.38 123.784C109.024 123.721 110.672 123.644 112.313 123.535C115.409 123.327 118.482 123.037 121.564 122.657C123.103 122.475 124.635 122.26 126.172 122.031C127.643 121.815 129.154 121.625 130.597 121.233C131.73 122.452 132.598 123.921 133.137 125.484L133.131 125.451ZM133.688 128.026C133.688 128.026 133.688 128.026 133.684 128.041C132.658 130.222 130.076 130.781 127.891 130.821C123.386 130.895 118.896 130.059 114.461 129.419C112.236 129.098 109.985 128.815 107.739 128.686C106.091 128.595 104.431 128.547 102.789 128.718C104.632 128.082 106.519 127.566 108.428 127.193C110.502 126.772 112.613 126.498 114.724 126.393C116.9 126.274 119.065 126.366 121.232 126.504C123.297 126.63 125.386 126.778 127.454 126.722C128.48 126.692 129.519 126.619 130.537 126.45C131.441 126.311 132.399 126.14 133.243 125.771C133.472 126.504 133.619 127.26 133.688 128.026ZM132.428 133.806C130.905 134.665 129.143 135.001 127.382 135.048C125.236 135.113 123.077 134.886 120.959 134.562C118.709 134.219 116.484 133.729 114.289 133.126C110.235 132.025 106.313 130.547 102.377 129.065C104.612 129.008 106.826 128.975 109.056 129.161C113.678 129.56 118.237 130.477 122.846 130.98C123.984 131.101 125.144 131.199 126.283 131.26C127.394 131.313 128.527 131.342 129.652 131.171C131.221 130.935 132.78 130.224 133.722 128.92C133.71 130.611 133.27 132.308 132.417 133.788L132.428 133.806ZM101.565 129.427C103.934 130.29 106.31 131.126 108.702 131.904C113.077 133.335 117.563 134.583 122.142 135.139C124.219 135.39 126.361 135.567 128.434 135.376C129.684 135.253 130.961 134.969 132.076 134.383C131.464 135.303 130.702 136.105 129.789 136.73C126.854 138.72 122.858 138.427 119.516 137.959C116.133 137.48 112.844 136.476 109.759 134.994C106.752 133.563 104.038 131.661 101.562 129.441L101.565 129.427ZM120.534 145.906C120.202 145.786 119.869 145.666 119.554 145.536C118.892 145.283 118.248 145.019 117.586 144.765C116.281 144.247 114.975 143.73 113.665 143.226L109.737 141.716C109.075 141.462 108.427 141.212 107.765 140.959C107.351 140.802 106.924 140.581 106.474 140.445C111.249 140.214 116.311 141.296 119.673 144.866C119.98 145.193 120.266 145.544 120.534 145.906ZM122.706 151.08C121.207 150.83 119.75 150.364 118.364 149.749C112.672 147.216 108.062 142.518 101.888 141.047C102.739 140.878 103.586 140.724 104.45 140.62C104.811 140.579 105.172 140.538 105.532 140.498C105.539 140.53 105.56 140.566 105.584 140.588C106.132 141.04 106.906 141.217 107.557 141.452C108.219 141.706 108.867 141.956 109.532 142.195C110.87 142.706 112.212 143.203 113.536 143.71C114.874 144.221 116.219 144.704 117.557 145.215C118.223 145.454 118.87 145.704 119.532 145.958C120.003 146.13 120.481 146.334 120.969 146.495C121.879 147.868 122.496 149.422 122.71 151.065L122.706 151.08ZM121.646 156.455C120.805 156.017 119.942 155.663 119.127 155.186C118.313 154.708 117.527 154.177 116.786 153.597C114.082 151.545 111.742 149.042 109.282 146.705C108.059 145.538 106.81 144.41 105.47 143.395C104.827 142.902 104.172 142.452 103.481 142.023C104.526 142.379 105.566 142.81 106.555 143.319C111.895 146.032 116.677 150.486 122.761 151.384C122.75 151.427 122.77 151.463 122.773 151.51C122.907 153.223 122.502 154.961 121.664 156.445L121.646 156.455ZM118.53 159.572C118.165 159.459 117.8 159.346 117.439 159.218C116.897 159.027 116.377 158.812 115.868 158.553C114.876 158.059 113.956 157.461 113.114 156.747C108.578 152.908 106.774 146.872 102.917 142.482C103.105 142.578 103.302 142.692 103.486 142.802C104.286 143.276 105.057 143.803 105.803 144.369C108.535 146.428 110.885 148.95 113.399 151.256C114.644 152.398 115.933 153.491 117.33 154.46C118.009 154.932 118.714 155.365 119.431 155.755C120.094 156.116 120.776 156.466 121.51 156.678C121.264 157.085 120.99 157.485 120.677 157.859C120.058 158.578 119.343 159.149 118.544 159.576L118.53 159.572ZM101.902 142.301C102.889 143.268 103.758 144.34 104.543 145.496C106.478 148.318 107.973 151.419 110.056 154.143C111.07 155.467 112.231 156.694 113.592 157.684C114.395 158.265 115.266 158.758 116.178 159.155C116.78 159.408 117.424 159.672 118.084 159.818C116.963 160.311 115.716 160.542 114.456 160.418C111.888 160.187 109.55 158.813 107.841 156.906C104.234 152.888 103.319 147.395 101.926 142.323L101.902 142.301ZM101.259 160.985C99.8136 160.705 98.3378 160.538 96.8724 160.39C91.7504 159.872 86.5338 159.877 81.4216 160.628C81.8012 160.516 82.1771 160.419 82.553 160.321C86.5368 159.298 90.6759 158.775 94.7868 159.038C95.7868 159.107 96.7934 159.209 97.7848 159.368C98.7761 159.527 99.8346 159.719 100.65 160.364C100.875 160.547 101.078 160.754 101.241 160.996L101.259 160.985ZM98.8227 164.97C97.5565 165.043 96.2734 165.065 95.0093 165.016C90.6654 164.829 86.366 163.738 82.4182 161.902C83.0718 162.016 83.7113 162.126 84.3507 162.237C87.2396 162.69 90.1487 163.012 93.0561 163.227C94.5188 163.329 96.0033 163.406 97.467 163.448C98.6886 163.485 99.9346 163.544 101.176 163.45C100.789 163.987 100.212 164.381 99.623 164.651C99.3644 164.765 99.0917 164.875 98.8227 164.97ZM80.9894 161.901C82.0387 162.41 83.1174 162.867 84.2256 163.271C88.4493 164.815 93.058 165.546 97.5795 165.354C96.506 165.616 95.4024 165.762 94.332 165.842C92.566 165.964 90.7902 165.839 89.0574 165.496C86.1384 164.928 83.3703 163.683 81.0074 161.89L80.9894 161.901ZM80.7943 161.04C82.0938 160.9 83.3895 160.774 84.6917 160.68C87.5242 160.494 90.3753 160.464 93.209 160.613C94.633 160.69 96.0635 160.798 97.4929 160.968C98.8514 161.118 100.187 161.354 101.548 161.551C101.656 161.885 101.7 162.232 101.619 162.592C101.569 162.777 101.509 162.944 101.417 163.118C99.9045 163.033 98.3818 163.098 96.8717 163.059C91.4509 162.919 86.109 162.143 80.8085 161.043L80.7943 161.04ZM107.991 183.979C104.637 183.05 101.3 182.11 97.919 181.281C91.7705 179.77 85.5714 178.506 79.3483 177.388C76.5352 176.878 73.7249 176.415 70.9069 175.98C71.0564 175.99 71.2096 175.985 71.3591 175.995C74.5791 176.064 77.8143 176.077 81.0375 176.361C84.2183 176.633 87.374 177.113 90.4943 177.781C93.5863 178.442 96.639 179.305 99.6279 180.35C101.13 180.875 102.62 181.442 104.095 182.066C104.82 182.367 105.541 182.682 106.262 182.998C106.588 183.146 106.927 183.298 107.252 183.446C107.509 183.621 107.752 183.793 108.005 183.983L107.991 183.979ZM63.9169 175.511C64.5214 175.581 65.1363 175.67 65.737 175.754C67.4682 175.989 69.2097 176.242 70.937 176.492C77.1917 177.435 83.411 178.568 89.6129 179.879C92.7086 180.525 95.7891 181.229 98.8658 181.946C101.971 182.671 105.098 183.372 108.19 184.201C108.219 184.208 108.233 184.212 108.255 184.187C108.318 184.235 108.395 184.286 108.473 184.337C105.247 184.007 102.022 183.616 98.8161 183.153C92.3012 182.216 85.8304 181.001 79.4064 179.554C74.1997 178.388 69.0463 177.023 63.9273 175.529L63.9169 175.511ZM62.1495 174.503C64.9596 174.173 67.797 173.911 70.6104 173.795C77.8205 173.5 85.1034 174.124 92.0486 176.123C96.6929 177.459 101.162 179.449 105.221 182.062C104.757 181.862 104.312 181.651 103.849 181.451C102.208 180.767 100.523 180.132 98.8366 179.559C92.8396 177.54 86.5799 176.274 80.2676 175.773C74.2324 175.315 68.1064 175.764 62.1533 174.489L62.1495 174.503ZM75.3527 197.69C74.1164 196.062 72.8403 194.47 71.6078 192.827C69.4147 189.89 67.3154 186.887 65.346 183.796C64.3574 182.265 63.4048 180.713 62.4741 179.136C61.8479 178.069 61.2436 176.976 60.6355 175.898C61.913 176.805 63.1687 177.736 64.3436 178.798C67.2726 181.429 69.7653 184.553 71.6896 187.983C73.3819 191.03 74.6177 194.305 75.363 197.708L75.3527 197.69ZM60.6316 177.331C61.154 178.218 61.6945 179.095 62.2207 179.969C64.1286 183.119 66.1624 186.197 68.3299 189.172C70.5077 192.166 72.7538 195.133 75.2605 197.864C75.3058 197.922 75.374 197.894 75.3996 197.856C75.4193 197.952 75.4531 198.053 75.469 198.164C73.9226 197.353 72.4722 196.354 71.1602 195.179C65.8453 190.444 63.053 183.899 60.6316 177.331ZM35.2519 186.366C35.2977 186.195 35.3434 186.024 35.3854 185.868C36.353 183.732 37.2639 181.581 38.0973 179.378C40.1227 174.032 41.8115 168.581 43.0927 163.005C43.7371 160.203 44.2823 157.374 44.7243 154.533C45.0857 152.219 45.4084 149.88 45.592 147.549C45.7975 150.244 45.8317 152.953 45.6701 155.656C45.2811 161.761 43.9951 167.808 41.8487 173.549C40.1553 178.053 37.9342 182.37 35.2377 186.362L35.2519 186.366ZM44.2047 155.507C43.2214 161.163 41.8513 166.73 40.0839 172.191C38.9117 175.828 37.5626 179.388 36.0472 182.887C36.1381 182.377 36.2329 181.854 36.3096 181.34C36.7658 178.503 37.1898 175.672 37.7453 172.861C38.3275 169.951 39.0128 167.053 39.7974 164.181C41.2827 158.752 43.133 153.435 45.2169 148.211C44.9138 150.647 44.6108 153.083 44.1905 155.503L44.2047 155.507ZM34.5301 186.279C34.7225 184.256 34.915 182.233 35.1821 180.214C35.9732 174.141 37.1304 168.12 38.9015 162.248C40.5172 156.899 42.6435 151.687 45.4231 146.817C45.3932 147.099 45.3491 147.377 45.323 147.645C44.0131 150.604 42.8412 153.616 41.7751 156.687C39.8676 162.217 38.3393 167.864 37.1552 173.588C36.5676 176.405 36.1256 179.247 35.5946 182.079C35.3583 183.358 35.0756 184.64 34.7258 185.889C34.6593 186.024 34.6108 186.148 34.5443 186.283L34.5301 186.279ZM63.1935 201.816C61.472 201.035 59.7248 200.292 57.97 199.578C53.8166 197.885 49.6109 196.331 45.3566 194.901C43.2346 194.195 41.0909 193.514 38.9537 192.865C38.3617 192.691 37.7555 192.513 37.1635 192.34C37.4548 192.387 37.7424 192.449 38.0337 192.496C46.2761 194.079 54.2358 196.945 61.7272 200.706C62.2232 201.068 62.7154 201.444 63.1935 201.816ZM63.1038 202.662C61.2907 202.222 59.4776 201.782 57.6798 201.285C53.2691 200.042 48.9487 198.518 44.7216 196.76C42.6171 195.876 40.542 194.938 38.5001 193.933C37.8431 193.605 37.1862 193.276 36.533 192.933C37.5686 193.211 38.6042 193.488 39.6321 193.794C43.918 195.049 48.1695 196.433 52.3649 197.969C56.3551 199.419 60.2892 201.023 64.1976 202.665C63.8304 202.673 63.4633 202.682 63.0858 202.672L63.1038 202.662ZM33.5191 192.095C33.5191 192.095 33.59 192.114 33.6325 192.126C35.3972 193.087 37.2235 193.988 39.0509 194.829C43.2388 196.79 47.5455 198.478 51.9313 199.927C54.1384 200.656 56.3607 201.328 58.6021 201.928C59.51 202.172 60.4179 202.415 61.3476 202.634C59.9765 202.587 58.6208 202.483 57.2519 202.314C52.6657 201.726 48.184 200.464 43.9629 198.57C40.205 196.877 36.73 194.695 33.5332 192.099L33.5191 192.095ZM33.0778 190.848C33.2502 190.772 33.4225 190.696 33.5949 190.621C33.6374 190.632 33.698 190.633 33.7444 190.63C33.8219 190.681 33.9108 190.69 33.9828 190.648C36.2819 190.807 38.5477 191.032 40.8065 191.454C45.2351 192.29 49.5385 193.764 53.5796 195.762C55.8228 196.866 57.9635 198.126 60.0377 199.521C58.5933 198.783 57.1233 198.084 55.6419 197.428C51.7203 195.721 47.6865 194.32 43.5698 193.171C40.1199 192.201 36.6127 191.444 33.074 190.862L33.0778 190.848Z" fill="#56887C"/>
</svg>
