<svg width="73" height="61" viewBox="0 0 73 61" fill="none" xmlns="http://www.w3.org/2000/svg">
<path d="M41.8027 35.4717L50.4463 44.1152V60.7559H0.5V33.3887L17.5596 16.3291H41.8027V35.4717ZM72.9404 60.7559H53.4033V43.0742L44.7021 34.5791L44.5518 34.4316V16.6416L44.6758 16.5L58.5264 0.670898L58.6758 0.5H72.9404V60.7559ZM15.9131 40.2822C14.7054 40.2823 13.7266 41.262 13.7266 42.4697V47.5723H18.1006V42.4697C18.1006 41.2619 17.1209 40.2823 15.9131 40.2822ZM58.1943 19.6621C56.9866 19.6623 56.0078 20.6419 56.0078 21.8496V26.9521H60.3818V21.8496C60.3818 20.6418 59.4022 19.6621 58.1943 19.6621ZM51.373 4.65039L43.9795 13.6074L43.8291 13.7891H16.5127L6.03613 24.0596L5.18652 24.8936V3.83203H52.0488L51.373 4.65039Z" fill="#FFFBF0"/>
</svg>
