<svg width="344" height="285" viewBox="0 0 344 285" fill="none" xmlns="http://www.w3.org/2000/svg">
<path d="M194.161 166.501L235.589 207.929V285.002H0V156.519L0.146484 156.372L80.5059 76.0137L80.6523 75.8672H194.161V166.501ZM343.399 285.002H253.555V201.357L211.28 160.078L211.13 159.932V76.1787L277.637 0.170898L277.786 0H343.399V285.002ZM74.3701 191.166C68.5815 191.166 63.8887 195.859 63.8887 201.647V226.104H84.8525V201.647C84.8525 195.859 80.1589 191.166 74.3701 191.166ZM277.015 92.3389C271.226 92.339 266.533 97.0317 266.533 102.82V127.277H287.496V102.82C287.496 97.0316 282.803 92.3389 277.015 92.3389ZM240.465 16.79L205.027 59.7148L204.877 59.8965H74.0762L23.3105 109.666L22.4609 110.499V15.9717H241.141L240.465 16.79Z" fill="#56887C"/>
</svg>
