<svg width="100" height="100" viewBox="0 0 100 100" fill="none" xmlns="http://www.w3.org/2000/svg">
<path d="M49.824 11.7759C28.8133 11.7759 11.7784 28.8091 11.7784 49.8179C11.7784 70.8266 28.8133 87.8599 49.824 87.8599C70.8347 87.8599 87.8696 70.8266 87.8696 49.8179C87.8696 28.8091 70.8347 11.7759 49.824 11.7759ZM34.7771 66.6799C34.7459 67.8476 34.7667 70.5464 34.7667 71.3716C34.7667 71.5169 34.6525 71.6259 34.5227 71.6259H33.0798C31.0088 71.6259 29.3479 69.773 29.514 67.6815C29.6593 65.8391 31.2476 64.3704 33.1005 64.3911C33.6974 64.3911 34.2476 64.5364 34.7407 64.8011C34.8341 64.8426 34.8757 64.9464 34.8757 65.0347C34.8238 65.5796 34.7926 66.1193 34.7822 66.6747L34.7771 66.6799ZM70.5804 43.8858C70.4143 45.2923 69.9368 46.5794 69.0544 47.69C68.0994 48.8681 66.9523 49.8438 65.582 50.5393C64.383 51.1465 63.1218 51.5721 61.819 51.9354C61.3155 52.0703 61.3051 52.0807 61.3051 52.5997C61.3051 54.66 61.3155 56.7205 61.3051 58.7808C61.2948 59.305 61.2325 59.824 61.1391 60.3274C60.8951 61.5574 60.4643 62.7148 59.774 63.7735C59.6287 63.9863 59.6079 64.1939 59.6598 64.4482C59.9037 65.6575 60.1425 66.8771 60.3761 68.0967C60.4695 68.6105 60.5785 68.6416 61.0197 68.6001C61.7879 68.5378 62.4937 68.7662 62.9868 69.4098C63.4799 70.0429 63.563 70.8058 63.6097 71.6051C63.4332 71.6155 63.3138 71.6259 63.1893 71.6259C61.6944 71.6362 60.1944 71.6155 58.6996 71.6362C58.3207 71.6466 58.1546 71.5013 58.0144 71.1639C57.4591 69.8717 56.8881 68.6001 56.312 67.3182C56.1355 66.9186 56.0992 66.9186 55.6684 67.0743C54.9625 67.339 54.241 67.5674 53.5351 67.832C53.177 67.967 52.8396 67.9462 52.4711 67.8528C51.8742 67.6971 51.8586 67.6867 51.9261 67.0639C51.9261 67.0328 51.9261 67.0016 51.9365 66.9705C52.0714 65.9637 52.0611 64.962 51.8742 63.9656C51.4019 61.3187 49.8551 59.4452 47.5714 58.1321C47.1509 57.8882 46.6475 58.0075 46.4035 58.3864C46.17 58.7445 46.2686 59.2168 46.6475 59.5126C46.8603 59.6787 47.0887 59.8188 47.3118 59.9538C48.3966 60.6285 49.0973 61.6457 49.689 62.72C50.1095 63.4777 50.2652 64.3392 50.2859 65.2215C50.3171 66.2439 50.2133 67.2611 50.042 68.2784C49.959 68.8025 50.2288 69.2125 50.7375 69.3423C50.8932 69.3838 51.0437 69.3838 51.1994 69.4046C51.5472 69.4461 51.895 69.4565 52.2323 69.5188C53.1355 69.6952 53.9348 70.0637 54.5369 70.7903C54.7237 71.0135 54.895 71.2626 54.9158 71.5999C54.7393 71.6103 54.5888 71.6207 54.4331 71.6207C48.5575 71.631 42.6872 71.6311 36.8117 71.6311C36.7494 71.6311 36.6871 71.631 36.6248 71.6207C36.2563 71.6103 36.2459 71.5999 36.2355 71.2107C36.2252 71.0965 36.2252 70.9875 36.2252 70.8837C36.2252 69.4772 36.2044 68.0759 36.2355 66.6799C36.2563 65.7457 36.329 64.8271 36.438 63.9033C36.6248 62.3567 37.1127 60.8672 37.6992 59.4244C38.9086 56.4402 40.9069 54.084 43.3983 52.0962C44.8516 50.9493 46.471 50.0774 48.1112 49.247C48.6043 49.0031 49.1285 48.8058 49.6475 48.6398C50.8257 48.2609 52.0143 47.9132 53.2029 47.5551C53.5403 47.4513 53.5715 47.3994 53.5299 47.0516C53.3327 45.2767 53.5403 43.5692 54.3189 41.95C54.3812 41.8254 54.4227 41.6957 54.5057 41.5088C51.6873 39.9311 49.3101 37.8707 47.535 35.1979C45.7599 32.5251 44.6025 29.5928 44.073 26.3751C44.3585 26.427 44.5765 26.4477 44.7893 26.4893C46.8811 26.9097 48.7236 27.875 50.4261 29.1257C51.6251 30.008 52.6631 31.0719 53.6026 32.2085C54.6459 33.4697 55.6009 34.8035 56.4106 36.2255C56.8103 36.9106 57.158 37.6424 57.5369 38.3482C57.62 38.4935 57.6719 38.7167 57.8951 38.6648C58.3674 38.5298 58.8397 38.3689 59.3587 38.2029C59.2861 38.0056 59.2446 37.8551 59.1719 37.7202C58.9383 37.2894 58.6892 36.8691 58.466 36.4383C57.4694 34.5544 56.3016 32.7898 54.9417 31.1498C54.0075 30.034 52.9849 29.0271 51.869 28.0981C50.9659 27.3508 50.0264 26.6813 48.9468 26.2142C48.8119 26.1519 48.6613 26.0274 48.6198 25.908C48.3655 25.0672 48.1475 24.2161 48.0437 23.3027C48.2461 23.313 48.4226 23.313 48.5887 23.3442C50.2288 23.64 51.7652 24.2472 53.1718 25.1503C55.2532 26.5048 56.9556 28.2538 58.4504 30.226C59.5456 31.6688 60.4383 33.2517 61.2896 34.8502C61.793 35.8051 62.1927 36.8172 62.6443 37.8136C62.7377 38.0264 62.8311 38.234 63.1166 38.2651C63.9471 38.3897 64.7256 38.6855 65.4834 39.0229C67.0924 39.7495 68.5769 40.6525 69.8278 41.9033C70.7828 42.8686 70.7101 42.5157 70.5544 43.9014L70.5804 43.8858ZM63.8848 41.4569C63.1373 41.4569 62.5301 42.0694 62.5301 42.8219C62.5301 43.5744 63.1373 44.1764 63.8848 44.1764C64.6322 44.1764 65.2498 43.5692 65.2498 42.8219C65.2498 42.0745 64.6426 41.4569 63.8848 41.4569ZM7.08111 55.3399C6.80602 55.9523 6.39598 56.4454 5.85618 56.8242C5.31638 57.2031 4.69353 57.4159 3.98245 57.4626C3.27136 57.5093 2.62775 57.3848 2.04124 57.0889C1.45472 56.7931 0.9824 56.3572 0.624263 55.7915C0.266126 55.2258 0.0636967 54.5718 0.0117928 53.8349C-0.0297303 53.2121 0.0377466 52.6464 0.224601 52.1274C0.406265 51.6136 0.691736 51.1673 1.07582 50.7988L2.12947 51.7952C1.60524 52.3194 1.36649 52.937 1.41839 53.6532C1.44954 54.0944 1.57411 54.4836 1.7921 54.8209C2.0101 55.1531 2.30076 55.4074 2.66408 55.5787C3.02741 55.75 3.42708 55.8174 3.86826 55.7863C4.30944 55.7551 4.69872 55.6306 5.0361 55.4126C5.36828 55.1946 5.62261 54.904 5.79389 54.5407C5.96517 54.1774 6.03265 53.7778 6.00151 53.3366C5.94961 52.6204 5.6278 52.0391 5.02571 51.598L5.93403 50.4666C6.37522 50.778 6.71778 51.1776 6.97211 51.6707C7.22644 52.1585 7.37177 52.7139 7.41849 53.3366C7.47039 54.0684 7.3562 54.7379 7.08111 55.3503V55.3399ZM5.51361 45.6608L7.64686 44.493L7.8441 42.7181L5.37347 44.083C5.21776 43.59 4.96343 43.2007 4.61568 42.9049C4.25754 42.6091 3.80597 42.4327 3.28174 42.3704C2.74713 42.3185 2.27481 42.3911 1.86477 42.6039C1.44434 42.8063 1.10697 43.1385 0.847446 43.5796C0.593117 44.0311 0.427026 44.5657 0.354361 45.1989L0.0273633 48.2817L7.15897 49.0394L7.33544 47.389L5.34752 47.1762L5.50323 45.7438L5.51361 45.6608ZM4.03435 47.0413L1.54296 46.7766L1.6883 45.4324C1.75058 44.929 1.89072 44.5709 2.12947 44.3373C2.37342 44.1038 2.69523 44 3.09489 44.0415C3.49455 44.083 3.78002 44.2439 3.97725 44.5346C4.17449 44.8096 4.23158 45.1989 4.17968 45.6919L4.03435 47.0465V47.0413ZM7.66243 40.3982C6.95654 40.7823 6.10012 40.8238 5.088 40.5228L1.23673 39.3706L1.71424 37.7773L5.50842 38.9087C6.73855 39.2772 7.50672 38.9502 7.81295 37.9278C7.96347 37.4296 7.92715 37.004 7.70396 36.6563C7.48596 36.3034 7.05516 36.0335 6.42193 35.8467L2.62776 34.7153L3.09489 33.1427L6.94616 34.2949C7.95309 34.5959 8.64861 35.0993 9.02751 35.8103C9.40641 36.5213 9.45312 37.3673 9.15727 38.3482C8.86661 39.3291 8.36314 40.0142 7.65725 40.3982H7.66243ZM12.0276 27.9372L13.2162 28.5393L10.7092 33.5008L4.30425 30.2675L6.74893 25.4253L7.93752 26.0274L6.23508 29.3956L7.6261 30.0962L9.12612 27.1224L10.2784 27.7037L8.77837 30.6775L10.2628 31.4249L12.0224 27.9372H12.0276ZM8.25414 23.0328L9.22474 21.6834L13.9532 25.0828L16.0553 22.1609L17.1557 22.9498L14.0881 27.221L8.25933 23.0328H8.25414ZM14.3269 17.4744L12.749 19.1456L11.768 18.2166L16.0657 13.6754L17.0467 14.6044L15.4688 16.2703L19.699 20.2718L18.5571 21.481L14.3269 17.4796V17.4744ZM23.218 13.8311L24.7752 15.8396L23.462 16.8568L21.8893 14.8327L16.865 12.8917L18.256 11.8122L21.7232 13.1564L21.282 9.4612L22.5692 8.46473L23.2077 13.8363L23.218 13.8311ZM29.7839 6.05662L30.5624 7.78485L33.5884 6.41991L34.1386 7.63434L31.1126 8.99929L32.187 11.3815L30.6714 12.0665L27.7181 5.52724L32.6594 3.29559L33.2095 4.51003L29.7787 6.05662H29.7839ZM40.9173 5.95282C41.3169 5.63624 41.592 5.25737 41.7477 4.81623C41.8931 4.38547 41.9035 3.90281 41.7685 3.38901C41.6336 2.86483 41.3896 2.45483 41.0522 2.14863C40.7045 1.83204 40.2841 1.63482 39.7702 1.5414C39.2667 1.45836 38.7062 1.4895 38.0885 1.65558L35.0833 2.44444L36.9103 9.38334L38.5089 8.96296L38.0055 7.02713L39.4017 6.66903L39.4847 6.64826L41.3273 8.226L43.0505 7.77448L40.9173 5.94762V5.95282ZM39.9934 4.80586C39.7962 5.08092 39.4588 5.28851 38.9761 5.41306L37.6629 5.7608L37.0297 3.3423L38.3428 2.99457C38.8256 2.87001 39.2252 2.87001 39.5211 3.01533C39.8273 3.16065 40.0349 3.42534 40.1335 3.81458C40.2373 4.20382 40.1854 4.53078 39.9882 4.81103L39.9934 4.80586ZM49.8707 5.8127L49.9849 7.14131L44.4468 7.61359L43.8343 0.461909L49.2375 0L49.3517 1.32861L45.5938 1.65039L45.7288 3.20218L49.0506 2.91672L49.1596 4.20382L45.8378 4.48926L45.9779 6.14484L49.8707 5.8127ZM57.1944 6.25383L57.0957 7.58244L51.5576 7.16206L52.0974 0.00519497L57.5058 0.415186L57.4072 1.7438L53.6441 1.45836L53.5247 3.01014L56.8466 3.25926L56.748 4.54636L53.4261 4.29724L53.3016 5.95282L57.1944 6.24865V6.25383ZM92.5669 44.3062C92.842 43.6938 93.252 43.2008 93.7918 42.8219C94.3316 42.443 94.9545 42.2303 95.6655 42.1835C96.3766 42.1368 97.0202 42.2562 97.6067 42.5572C98.1933 42.853 98.6656 43.289 99.0237 43.8547C99.3819 44.4204 99.5843 45.0743 99.6362 45.8113C99.6777 46.4341 99.6102 46.9998 99.4286 47.5136C99.2469 48.0274 98.9614 48.4737 98.5773 48.8422L97.5237 47.8457C98.0479 47.3215 98.2867 46.7039 98.2348 45.9877C98.2036 45.5466 98.0791 45.1573 97.8611 44.82C97.6431 44.4878 97.3524 44.2336 96.9891 44.0623C96.6258 43.891 96.2261 43.8235 95.7849 43.8547C95.3438 43.8858 94.9545 44.0104 94.6171 44.2283C94.2849 44.4463 94.0306 44.737 93.8593 45.1003C93.688 45.4636 93.6205 45.8632 93.6517 46.3043C93.7036 47.0205 94.0254 47.6018 94.6275 48.0429L93.7191 49.1743C93.278 48.8629 92.9354 48.4633 92.6811 47.9703C92.4267 47.4824 92.2814 46.9271 92.2347 46.3043C92.1828 45.5725 92.297 44.9031 92.5721 44.2906L92.5669 44.3062ZM92.4838 50.6067L92.3074 52.2571L94.2953 52.4595L94.1396 53.892L94.1292 53.975L91.9959 55.1427L91.7987 56.9177L94.2693 55.5631C94.425 56.0561 94.6794 56.4454 95.0375 56.7412C95.3853 57.037 95.8368 57.2135 96.3611 57.2654C96.8957 57.3277 97.368 57.2446 97.7832 57.0422C98.1933 56.8294 98.5306 56.4973 98.7902 56.0561C99.0549 55.615 99.221 55.07 99.2832 54.4473L99.6102 51.3541L92.4786 50.6067H92.4838ZM97.9597 54.2189C97.9078 54.7119 97.7573 55.0804 97.5185 55.314C97.2746 55.5475 96.9528 55.6409 96.5531 55.5994C96.1534 55.5579 95.868 55.397 95.6707 55.1168C95.4839 54.8313 95.4164 54.4525 95.4683 53.949L95.6136 52.6048L98.105 52.8695L97.9597 54.2137V54.2189ZM91.9856 59.2479C92.6915 58.8639 93.5479 58.8223 94.56 59.1234L98.4113 60.2703L97.9337 61.8636L94.1448 60.7323C92.9146 60.3638 92.1465 60.6907 91.8402 61.7131C91.6897 62.2113 91.726 62.6369 91.9492 62.9847C92.1672 63.3376 92.598 63.6074 93.2312 63.7943L97.0254 64.9257L96.5583 66.4982L92.707 65.3512C91.7001 65.0502 91.0046 64.5468 90.6257 63.8358C90.2468 63.1248 90.2001 62.2788 90.4959 61.2979C90.7918 60.317 91.29 59.632 91.9959 59.2479H91.9856ZM87.6204 71.7089L86.4318 71.1069L88.9388 66.1453L95.3437 69.3786L92.8991 74.2208L91.7105 73.6188L93.4129 70.2505L92.0219 69.5499L90.5219 72.5237L89.3696 71.9424L90.8696 68.9686L89.3852 68.2213L87.6256 71.7089H87.6204ZM91.3938 76.6133L90.4232 77.9627L85.6948 74.5633L83.5927 77.4852L82.4923 76.6964L85.5599 72.4251L91.3887 76.6133H91.3938ZM85.3211 82.1717L86.899 80.5058L87.88 81.4348L83.5823 85.9811L82.6013 85.0521L84.1792 83.381L79.949 79.3796L81.0909 78.1755L85.3211 82.1769V82.1717ZM76.4299 85.815L74.8728 83.8065L76.186 82.7893L77.7587 84.8134L82.783 86.7544L81.392 87.8339L77.9248 86.4897L78.366 90.185L77.0788 91.1814L76.4403 85.8099L76.4299 85.815ZM69.8641 93.5895L69.0855 91.8613L66.0595 93.2262L65.5094 92.0118L68.5354 90.6468L67.461 88.2647L68.9765 87.5796L71.9299 94.1189L66.9886 96.3506L66.4384 95.1361L69.8693 93.5895H69.8641ZM62.7481 90.2524L61.1391 90.6832L61.6425 92.6086L60.2463 92.9771L60.1633 92.9979L58.3207 91.4202L56.5975 91.8717L58.7411 93.6985C58.331 94.0151 58.056 94.3836 57.9002 94.8247C57.7549 95.2659 57.7445 95.7485 57.8795 96.2571C58.0144 96.7709 58.2584 97.1913 58.5958 97.4975C58.9435 97.8141 59.3639 98.0113 59.8778 98.0944C60.3812 98.1878 60.9418 98.1462 61.5595 97.9906L64.5647 97.2017L62.7481 90.2524ZM61.3051 96.6567C60.8224 96.7813 60.4228 96.7709 60.1269 96.6256C59.8207 96.4803 59.6131 96.2156 59.5145 95.8264C59.4107 95.4475 59.4626 95.1205 59.6598 94.8403C59.857 94.5652 60.1944 94.3576 60.6771 94.2279L61.9903 93.8905L62.6235 96.309L61.3103 96.6567H61.3051ZM49.7773 93.8334L49.6631 92.5048L55.2012 92.0326L55.8137 99.1842L50.4105 99.6461L50.2963 98.3175L54.0542 97.9958L53.9192 96.444L50.5974 96.7294L50.4884 95.4423L53.8102 95.1569L53.6701 93.5013L49.7773 93.8334ZM42.4536 93.3923L42.5522 92.0637L48.0904 92.4841L47.5506 99.6409L42.1422 99.2309L42.2408 97.9023L46.0039 98.1878L46.1232 96.636L42.8014 96.3869L42.9 95.0998L46.2219 95.3489L46.3464 93.6933L42.4536 93.3975V93.3923ZM33.0383 92.7695C29.815 91.6329 26.7112 90.133 23.8201 88.3218C20.846 86.4586 18.064 84.2373 15.557 81.7358C12.0379 78.217 9.12093 74.2 6.88906 69.799L8.50847 68.979C10.6521 73.2088 13.4549 77.0701 16.839 80.4539C19.2474 82.862 21.9204 84.995 24.7803 86.7855C27.5624 88.5293 30.5417 89.967 33.6404 91.062L33.0331 92.7747L33.0383 92.7695ZM91.181 33.9939C90.0911 30.828 88.6481 27.7867 86.8834 24.9427C85.0668 22.0208 82.9024 19.2961 80.4473 16.8412C77.0476 13.4419 73.1704 10.6289 68.9194 8.48549L69.7395 6.86105C74.1617 9.09271 78.1999 12.0198 81.7345 15.5541C84.2882 18.1076 86.5408 20.9413 88.4301 23.9825C90.2675 26.9356 91.7727 30.1066 92.9043 33.4022L91.1862 33.9939H91.181Z" fill="#222428"/>
</svg>
