<svg width="132" height="54" viewBox="0 0 132 54" fill="none" xmlns="http://www.w3.org/2000/svg">
<path fill-rule="evenodd" clip-rule="evenodd" d="M15.3487 37.1089H32.0098V30.8447H9.33299H9.09424V53.1509H15.1722V37.2024L15.3487 37.1089Z" fill="#222428"/>
<path fill-rule="evenodd" clip-rule="evenodd" d="M9.09406 8.94905H54.619L54.7176 8.90234C64.543 8.99576 72.4791 16.9623 72.4791 26.7712C72.4791 36.5801 64.5171 44.5726 54.6657 44.64H54.51L43.3714 44.6192V22.0588H49.657V38.4848L50.1812 38.4744H54.7591C61.1226 38.3447 66.2403 33.1651 66.2403 26.7919C66.2403 20.4187 61.0706 15.1873 54.6605 15.1095H15.3173H15.1668V22.0536L31.9577 22.0588L31.9733 28.323H9.15634L9.08887 28.3178V8.94386L9.09406 8.94905Z" fill="#222428"/>
<path fill-rule="evenodd" clip-rule="evenodd" d="M100.274 0.738281L127.778 47.0945L131.707 40.5864L107.333 0.738281H100.274Z" fill="#222428"/>
<path fill-rule="evenodd" clip-rule="evenodd" d="M72.0483 53.1514L100.253 6.17236L123.516 44.6607H91.4552V38.656H112.269L100.253 18.6126L80.5606 53.1514H72.0483Z" fill="#222428"/>
<path fill-rule="evenodd" clip-rule="evenodd" d="M127.778 47.0949L91.4553 47.0845V53.1515L124.207 53.1411L124.253 52.9958L127.778 47.0949Z" fill="#222428"/>
<path fill-rule="evenodd" clip-rule="evenodd" d="M34.47 46.8972L34.496 22.0583H40.7815V46.9439H54.5205H54.6658C65.7992 46.8712 74.7994 37.8564 74.7994 26.7448C74.7994 15.6332 65.8252 6.64431 54.7177 6.54051H54.5257H6.85194V53.1406H0.768799V0.483887H54.5257H54.7697C67.5536 0.598065 78.1679 9.478 80.4621 21.5809L93.2253 0.727813H100.284L78.4015 37.3789L76.2786 40.9651C71.571 47.8625 63.7594 53.0005 54.7749 53.0784H54.5309H34.4804V46.8868L34.47 46.8972Z" fill="#222428"/>
</svg>
