<svg width="88" height="88" viewBox="0 0 88 88" fill="none" xmlns="http://www.w3.org/2000/svg">
<path d="M43.833 0.186035C19.7236 0.186035 0.187012 19.7208 0.187012 43.8279C0.187012 67.935 19.7236 87.4594 43.833 87.4594C67.9424 87.4594 87.479 67.9246 87.479 43.8279C87.479 19.7312 67.932 0.186035 43.833 0.186035ZM30.5768 72.1648C29.902 72.7512 28.9574 73.2183 27.7584 73.2183C25.6978 73.2183 24.286 71.7756 24.286 69.8138V69.793C24.286 67.9194 25.7393 66.3781 27.748 66.3781C28.9366 66.3781 29.6529 66.6946 30.3432 67.2811L29.4297 68.3866C28.9158 67.9558 28.4643 67.7119 27.6961 67.7119C26.6424 67.7119 25.8016 68.6564 25.8016 69.7722V69.793C25.8016 71.0022 26.6321 71.8949 27.7999 71.8949C28.3345 71.8949 28.8068 71.76 29.1753 71.4953V70.5507H27.7116V69.2896H30.582V72.1596L30.5768 72.1648ZM36.8208 77.2613H33.2446V78.6677H36.39V79.9912H33.2446V82.555H31.7913V75.943H36.826V77.2665L36.8208 77.2613ZM36.7274 71.7859V73.1094H31.973V66.4974H33.4263V71.7859H36.7274ZM40.4074 71.869C41.2897 71.869 41.8347 71.324 41.8347 70.2808V66.4974H43.288V70.229C43.288 72.2271 42.1617 73.2132 40.3866 73.2132C38.6115 73.2132 37.5267 72.2167 37.5267 70.2705V66.4974H38.98V70.229C38.98 71.3137 39.5146 71.869 40.4074 71.869ZM41.9956 82.5498L40.5735 80.4271H39.4368V82.5498H37.9835V75.9379H41.0095C41.8503 75.9379 42.4939 76.1714 42.9351 76.6021C43.3036 76.9706 43.5008 77.4948 43.5008 78.1176V78.1384C43.5008 79.2023 42.9247 79.8718 42.0838 80.178L43.6929 82.5446H42.0008L41.9956 82.5498ZM44.2898 67.8416V66.4974H49.776V67.8416H47.7673V73.1094H46.314V67.8416H44.295H44.2898ZM49.8383 82.5498H44.8036V75.9379H49.7968V77.2301H46.2517V78.5743H49.366V79.8666H46.2517V81.2523H49.8383V82.555V82.5498ZM55.4439 69.1339V70.4262H52.3297V71.8119H55.9163V73.1145H50.8816V66.5026H55.8747V67.7949H52.3297V69.1391H55.4439V69.1339ZM56.1602 82.5498H51.1255V75.9379H56.1187V77.2301H52.5736V78.5743H55.6879V79.8666H52.5736V81.2523H56.1602V82.555V82.5498ZM63.0894 73.1094H61.8489L58.6516 68.9055V73.1094H57.2191V66.4974H58.553L61.6568 70.5663V66.4974H63.0894V73.1094ZM19.1475 63.0773L32.5439 51.4052C30.9764 49.7755 29.7774 47.8086 29.0508 45.6133L10.7443 61.5826C7.89473 56.2941 6.28572 50.2478 6.28572 43.8331C6.28572 23.0995 23.0974 6.28935 43.833 6.28935C52.0961 6.28935 59.7208 8.95177 65.9233 13.4722L59.373 19.1811V19.8142C59.373 22.6427 58.5841 25.3052 57.2191 27.5731H59.373V28.0143L70.9736 17.8992C77.4201 24.6408 81.3751 33.7647 81.3751 43.8279C81.3751 50.8602 79.4391 57.4514 76.0654 63.0773H19.1475ZM42.0164 78.1954V78.2162C42.0164 78.7715 41.6167 79.1504 40.9108 79.1504H39.4368V77.2561H40.8797C41.5856 77.2561 42.0164 77.5727 42.0164 78.2006V78.1954ZM44.3417 32.1558V41.1759C45.0891 35.0881 50.2847 30.3653 56.5806 30.3653C56.5806 37.1485 51.1048 42.655 44.3417 42.7069V51.7373C44.7102 48.6909 46.205 45.9869 48.3798 44.0407C50.5649 42.1049 53.4353 40.9268 56.5806 40.9268C56.5806 47.6996 51.1048 53.2061 44.3417 53.258V58.9669C44.3417 59.5326 44.1081 59.8595 43.8278 59.8595C43.5476 59.8595 43.314 59.5326 43.314 58.9669V53.258C39.9298 53.2268 36.8675 51.8411 34.6512 49.6198C32.4246 47.383 31.0647 44.3106 31.0647 40.9268C37.371 40.9268 42.5666 45.6392 43.314 51.7373V42.7069C36.5405 42.655 31.0647 37.1537 31.0647 30.3653C37.371 30.3653 42.5666 35.0881 43.314 41.1863V32.1558C36.5405 32.1039 31.0647 26.6026 31.0647 19.8142C37.371 19.8142 42.5666 24.5371 43.314 30.6248V27.1995C39.0215 22.3521 39.1824 14.9305 43.8278 10.2908C48.4732 14.9357 48.6341 22.3521 44.3417 27.1995V30.6248C45.0891 24.5371 50.2847 19.8142 56.5806 19.8142C56.5806 26.5974 51.1048 32.1039 44.3417 32.1558Z" fill="#222428"/>
</svg>
