<svg width="88" height="88" viewBox="0 0 88 88" fill="none" xmlns="http://www.w3.org/2000/svg">
<path d="M64.6168 56.86C64.9593 56.86 65.2397 57.1402 65.2397 57.4828V58.4065C65.2397 58.7491 64.9593 59.0293 64.6168 59.0293H59.6703C59.3277 59.0293 59.0475 58.7491 59.0475 58.4065V49.9937C59.0475 49.6512 59.3277 49.3709 59.6703 49.3709H60.9368C61.2794 49.3709 61.5596 49.6512 61.5596 49.9937V56.86H64.6116H64.6168ZM49.383 58.2249L51.9522 49.8121C52.0352 49.5526 52.274 49.3709 52.5491 49.3709H54.6772C54.9522 49.3709 55.191 49.5474 55.2741 49.8069L57.8693 58.1782C57.8952 58.2509 57.9108 58.3287 57.9108 58.4065C57.9108 58.5259 57.8797 58.6349 57.8226 58.7283C57.8018 58.7646 57.781 58.7906 57.7551 58.8218C57.6409 58.9463 57.4748 59.0293 57.2931 59.0293H55.9125C55.6374 59.0293 55.3934 58.8477 55.3156 58.583L54.7342 56.6524H52.3986L51.8692 58.5674C51.7965 58.8373 51.5474 59.0241 51.2671 59.0241H49.9747C49.7982 59.0241 49.6269 58.9463 49.5127 58.8166C49.4972 58.801 49.4867 58.7854 49.4764 58.7698C49.466 58.7543 49.4556 58.7387 49.4453 58.7232C49.357 58.5726 49.3311 58.391 49.383 58.2197V58.2249ZM42.2098 58.4117V49.9989C42.2098 49.6564 42.4901 49.3761 42.8327 49.3761H44.0991C44.4417 49.3761 44.722 49.6564 44.722 49.9989V56.8652H47.774C48.1165 56.8652 48.3968 57.1454 48.3968 57.488V58.4117C48.3968 58.7543 48.1165 59.0345 47.774 59.0345H42.8275C42.4849 59.0345 42.2047 58.7543 42.2047 58.4117H42.2098ZM25.6888 55.1629V58.4065C25.6888 58.7491 25.4086 59.0293 25.066 59.0293H23.7995C23.4569 59.0293 23.1767 58.7491 23.1767 58.4065V49.9937C23.1767 49.6512 23.4569 49.3709 23.7995 49.3709H25.066C25.4086 49.3709 25.6888 49.6512 25.6888 49.9937V52.9208H28.7148V49.9937C28.7148 49.6512 28.9951 49.3709 29.3377 49.3709H30.5938C30.9363 49.3709 31.2166 49.6512 31.2166 49.9937V58.4065C31.2166 58.7491 30.9363 59.0293 30.5938 59.0293H29.3377C28.9951 59.0293 28.7148 58.7491 28.7148 58.4065V55.1629H25.6888ZM35.7115 49.3709H37.8395C38.1146 49.3709 38.3534 49.5474 38.4365 49.8069L41.0317 58.1782C41.0576 58.2509 41.0732 58.3287 41.0732 58.4065C41.0732 58.5259 41.042 58.6349 40.9849 58.7283C40.9641 58.7646 40.9434 58.7906 40.9174 58.8218C40.8032 58.9463 40.6372 59.0293 40.4555 59.0293H39.0749C38.7998 59.0293 38.5558 58.8477 38.478 58.583L37.8966 56.6524H35.561L35.0315 58.5674C34.9589 58.8373 34.7097 59.0241 34.4294 59.0241H33.137C32.9605 59.0241 32.7893 58.9463 32.6751 58.8166C32.6595 58.801 32.6491 58.7854 32.6388 58.7698C32.6284 58.7543 32.618 58.7387 32.6076 58.7232C32.5194 58.5726 32.4934 58.391 32.5453 58.2197L35.1198 49.8069C35.1976 49.5474 35.4416 49.3657 35.7167 49.3657L35.7115 49.3709ZM47.3951 37.7975C46.6009 37.9895 46.248 37.0397 46.139 36.4066C45.4227 32.3688 42.978 29.7375 39.4745 27.8899C38.7686 27.5163 38.2859 26.8623 38.5143 26.0371C38.8828 24.7189 39.8119 23.8159 41.0732 23.3488C41.888 23.0477 42.5109 23.5356 42.9625 24.2103C45.3916 27.8276 47.7116 31.4917 47.7999 36.1938C47.7065 36.6712 48.0802 37.6262 47.3951 37.7975ZM20.1558 37.9999C20.6489 37.2318 21.2718 36.5467 22.0867 36.1004C22.6369 35.7993 23.2493 35.7267 23.6594 36.3339C24.0123 36.8529 23.7995 37.32 23.4154 37.7819C21.9258 39.5672 22.1853 40.299 24.4224 40.8595C25.3255 41.0878 26.2338 41.1034 27.137 41.0048C30.4432 40.6467 31.3671 39.5568 31.3931 36.2197C31.4138 32.9812 30.6612 29.8465 30.1318 26.6807C29.9398 25.5389 29.8515 24.4386 30.6872 23.4837C31.3152 22.7675 32.0367 22.1707 33.0488 22.425C34.061 22.6741 34.2114 23.6186 34.3101 24.4594C34.5955 26.852 34.7928 29.2601 34.7928 31.6734C34.7616 33.8168 34.7824 35.9602 34.3153 38.0725C33.7858 40.491 32.6647 42.266 29.9969 42.8472C27.7442 43.3403 25.5279 43.9734 23.2026 43.9267C21.8531 43.9008 20.3946 43.797 19.6991 42.4217C18.9413 40.9218 19.2631 39.3856 20.1558 37.9999ZM68.1463 42.9614C64.2016 43.8852 60.3606 45.3332 56.2395 45.4162C54.3917 45.4526 52.6062 45.3384 51.0284 44.207C50.1616 43.5842 49.6529 42.7382 49.2376 41.4771C47.2912 43.9423 45.0853 45.3695 42.0956 45.2969C41.3846 45.2813 40.7047 45.1567 40.0611 44.9232C38.5922 44.3938 37.3412 43.5634 37.0402 41.9027C36.8066 40.6259 38.2548 38.0725 39.4434 37.3978C39.734 37.2318 40.0403 37.0605 40.3258 37.294C40.6112 37.5276 40.4815 37.8909 40.4295 38.2023C40.0143 40.7661 41.0316 41.8559 43.6891 41.6691C47.0214 41.4356 48.8795 39.5776 49.0716 36.2457C49.2377 33.4016 48.786 30.5783 48.703 27.7394C48.6874 27.127 48.4903 26.3952 48.1114 25.9385C47.1148 24.7293 47.7532 24.0338 48.7082 23.328C49.4919 22.7519 50.3172 22.2745 51.2515 21.9838C53.1408 21.3922 53.9817 22.0876 53.5457 24.0235C52.6322 28.056 52.1287 32.1405 51.8692 36.256C51.8017 37.3252 51.7394 38.4047 51.8328 39.4634C52.0353 41.6691 53.1096 42.6915 55.3208 42.5358C57.2879 42.4009 59.2291 41.9598 61.1859 41.6588C61.4143 41.6224 61.6686 41.529 61.6167 41.3058C61.5596 41.0723 61.3728 40.8284 61.1703 40.683C60.0959 39.8994 58.8347 39.6814 57.5526 39.5101C56.6495 39.3908 55.7464 39.2818 54.8589 39.0949C54.4644 39.0119 54.0076 38.8302 53.9609 38.3113C53.9193 37.8649 54.2723 37.6262 54.6045 37.4705C56.7585 36.4637 58.9541 35.9083 61.1963 37.1747C62.2655 37.7819 63.288 38.4721 64.295 39.178C65.4057 39.9564 66.5268 40.6519 67.9438 40.6882C68.5771 40.709 69.1064 40.901 69.148 41.6847C69.1843 42.4061 68.7743 42.8109 68.1566 42.9562L68.1463 42.9614ZM58.4402 10.1301C53.9297 8.22538 49.1442 7.25488 44.2082 7.25488C39.2721 7.25488 34.4813 8.22019 29.9761 10.1301C25.6213 11.9725 21.713 14.609 18.3548 17.9668C14.9966 21.3247 12.3599 25.2327 10.5173 29.587C8.61244 34.0971 7.64185 38.8821 7.64185 43.8177C7.64185 48.7533 8.60725 53.5436 10.5173 58.0484C12.3599 62.4028 14.9966 66.3108 18.3548 69.6686C21.713 73.0265 25.6213 75.663 29.9761 77.5054C34.4865 79.4101 39.2721 80.3806 44.2082 80.3806C49.1442 80.3806 53.9349 79.4153 58.4402 77.5054C62.7949 75.663 66.7033 73.0265 70.0615 69.6686C73.4197 66.3108 76.0564 62.4028 77.899 58.0484C79.8038 53.5384 80.7745 48.7533 80.7745 43.8177C80.7745 38.8821 79.809 34.0919 77.899 29.587C76.0564 25.2327 73.4197 21.3247 70.0615 17.9668C66.7033 14.609 62.7949 11.9725 58.4402 10.1301Z" fill="#222428"/>
<path d="M44.2081 83.297C22.4396 83.297 4.72995 65.5891 4.72995 43.8226C4.72995 22.0562 22.4396 4.34821 44.2081 4.34821C65.9766 4.34821 83.6862 22.0562 83.6862 43.8226C83.6862 65.5891 65.9766 83.297 44.2081 83.297ZM84.4077 26.8412C82.2121 21.6462 79.0668 16.9804 75.0598 12.9738C71.0528 8.96722 66.3866 5.82214 61.1911 3.62681C55.8086 1.34844 50.094 0.196289 44.2081 0.196289C38.3222 0.196289 32.6023 1.34844 27.2251 3.62681C22.0295 5.82214 17.3634 8.96722 13.3564 12.9738C9.3494 16.9804 6.20405 21.6462 4.00851 26.8412C1.72993 32.2232 0.577637 37.9373 0.577637 43.8226C0.577637 49.708 1.72993 55.4272 4.00851 60.804C6.20405 65.999 9.3494 70.6648 13.3564 74.6714C17.3634 78.678 22.0295 81.8231 27.2251 84.0184C32.6075 86.2968 38.3222 87.4489 44.2081 87.4489C50.094 87.4489 55.8138 86.2968 61.1911 84.0184C66.3866 81.8231 71.0528 78.678 75.0598 74.6714C79.0668 70.6648 82.2121 65.999 84.4077 60.804C86.6863 55.422 87.8385 49.708 87.8385 43.8226C87.8385 37.9373 86.6863 32.218 84.4077 26.8412Z" fill="#222428"/>
<path d="M36.9726 52.9832C36.8792 52.6718 36.7857 52.3189 36.6975 51.9712C36.6196 52.3189 36.5366 52.677 36.4535 52.978L35.9812 54.6751H37.476L36.9778 52.978L36.9726 52.9832Z" fill="#222428"/>
<path d="M53.8154 52.9832C53.722 52.6718 53.6286 52.3189 53.5403 51.9712C53.4625 52.3241 53.3794 52.677 53.2964 52.978L52.8188 54.6751H54.3137L53.8154 52.978V52.9832Z" fill="#222428"/>
</svg>
